<svg viewBox="0 0 259.42 259.42" xmlns="http://www.w3.org/2000/svg" xmlns:xlink="http://www.w3.org/1999/xlink"><linearGradient id="a" gradientUnits="userSpaceOnUse" x1="61.17" x2="198.68" y1="129.71" y2="129.71"><stop offset="0" stop-color="#8edd91"/><stop offset="1" stop-color="#69c6be"/></linearGradient><rect fill="#fff" height="259.42" rx="129.71" width="259.42"/><path d="m180.74 201.45h-9v-26.9a6 6 0 0 0 -6-6h-26.85v-6a9 9 0 0 0 9-9v-7.8a35.69 35.69 0 0 0 17.59-26 69 69 0 0 0 33.2-58.75 3 3 0 0 0 -3-3h-29.88v-3h6a3 3 0 0 0 3-3v-9a3 3 0 0 0 -3-3h-83.73a3 3 0 0 0 -3 3v9a3 3 0 0 0 3 3h6v3h-29.91a3 3 0 0 0 -3 3 69 69 0 0 0 33.24 58.86 35.65 35.65 0 0 0 17.58 26v7.8a9 9 0 0 0 9 9v6h-26.93a6 6 0 0 0 -6 6v26.9h-9a6 6 0 0 0 -6 6v6a6 6 0 0 0 6 6h101.69a6 6 0 0 0 6-6v-6a6 6 0 0 0 -6-6.11zm-14.94-89v-7.55a56.31 56.31 0 0 0 20.84-41h6a63 63 0 0 1 -26.84 48.55zm14.77-48.51a50.16 50.16 0 0 1 -14.77 32.93v-32.93zm-89.51-17.94h77.73v3h-77.73zm44.84 9h12v30.76l-3.71-4.33a3 3 0 0 0 -4.53 0l-3.72 4.33zm-41.85 41.87a50.2 50.2 0 0 1 -14.77-32.93h14.77zm-26.8-32.93h6a56.34 56.34 0 0 0 20.84 41v7.54a63 63 0 0 1 -26.84-48.54zm32.75 50.82v-59.76h29.9v38.84a3 3 0 0 0 5.25 1.94l6.7-7.82 6.7 7.82a3 3 0 0 0 2.27 1 3.35 3.35 0 0 0 1-.19 3 3 0 0 0 2-2.8v-38.79h6v59.79a29.9 29.9 0 1 1 -59.79 0zm18 38.86v-5.06a35.56 35.56 0 0 0 23.91 0v5.06a3 3 0 0 1 -3 3h-17.91a3 3 0 0 1 -3-3zm9 9h6v6h-6zm-32.89 12h71.69v26.9h-71.75zm-15 38.79v-6h101.63v6z" fill="url(#a)"/></svg>