<svg xmlns="http://www.w3.org/2000/svg" xmlns:xlink="http://www.w3.org/1999/xlink" viewBox="0 0 329.78 37.21"><defs><style>.boshushuryo_cls-1{fill:#fff;}.boshushuryo_cls-2{fill:url(#名称未設定グラデーション_4);}</style><linearGradient id="名称未設定グラデーション_4" y1="18.61" x2="329.78" y2="18.61" gradientUnits="userSpaceOnUse"><stop offset="0" stop-color="#d8ff6c"/><stop offset="1" stop-color="#9ad4b6"/></linearGradient></defs><title>boshushuryo</title><g id="レイヤー_2" data-name="レイヤー 2"><g id="レイヤー_1-2" data-name="レイヤー 1"><path class="boshushuryo_cls-1" d="M33.74,31.22a26.79,26.79,0,0,1-4.52-2.08,12.69,12.69,0,0,1-2,4.82C25.87,35.8,23,36.9,17.87,36.9c0-.86-.3-3.06-.49-4.5a8.43,8.43,0,0,0,2.69.43c1.72,0,2.78-.36,3.36-1a4.48,4.48,0,0,0,.62-1.26H18.69c-3,3.76-8.4,5.76-16,6.66-.33-1-1.08-2.93-1.56-4.11C6.22,32.75,10,32,12.5,30.55H9.88c-.83,0-1.57,0-2.29,0l.4-1.8A39.2,39.2,0,0,1,1.72,31,21.56,21.56,0,0,0,0,27a32.27,32.27,0,0,0,9.6-3.37H5.09c-1.56,0-2.74,0-3.74.08l.89-4c1,.08,2.14.08,3.71.08h9c.35-.35.7-.7,1-1.06H7.28a11.57,11.57,0,0,0,.36-1.29L9.39,9.52c.1-.47.17-.94.21-1.29H35.45c-.13.39-.22.82-.33,1.29l-1.74,7.91-.25,1.29H21l-.82,1.06H34.42c1.57,0,2.75,0,3.78-.08l-.89,4c-1-.08-2.18-.08-3.74-.08H28.2a28,28,0,0,0,8.63,3.49A39.46,39.46,0,0,0,33.74,31.22ZM9.06,6.42c-1.57,0-2.75,0-3.78.08l.94-4.27c1,0,2.19,0,3.75,0h5.41l.12-.55a10.36,10.36,0,0,0,.19-1c1,0,3.93.11,4.93.19-.1.32-.17.63-.23.86l-.12.55h7.05l.12-.55a10.31,10.31,0,0,0,.2-1c1.05,0,4,.11,5,.19a7.56,7.56,0,0,0-.23.86l-.12.55h5.44c1.57,0,2.78,0,3.77,0L40.57,6.5c-1-.08-2.18-.08-3.74-.08H31.38l0,.16a8.06,8.06,0,0,0-.16,1.06H26.1a10.87,10.87,0,0,0,.27-1.06l0-.16h-7l0,.16c-.08.39-.16.75-.19,1.06h-5a10.37,10.37,0,0,0,.32-1.06l0-.16Zm12.3,18.26c0,.15-.22.62-.28.9A9.75,9.75,0,0,1,20.64,27H26.2A21.05,21.05,0,0,1,23,23.66h-6.7A37.54,37.54,0,0,1,11.44,27H15.9a8.83,8.83,0,0,0,.57-1.69c.06-.27.13-.74.15-.86C18.1,24.52,20.43,24.6,21.36,24.68Zm-8-8.74H28.26l.27-1.21H13.61ZM14.43,11l-.25,1.13H29.1L29.35,11Z"/><path class="boshushuryo_cls-1" d="M72.6,35.8a30.75,30.75,0,0,1-12.33-5.36c-.35,2.15-.83,4.5-.92,4.89a8.91,8.91,0,0,0-.25,1.49H53.26a9,9,0,0,0,.41-1.49c.09-.43.65-2.78,1.25-5a48.61,48.61,0,0,1-14.53,5.52,18,18,0,0,0-1.55-4.15,53.63,53.63,0,0,0,13.74-3.88H44.43c-1.56,0-2.74,0-3.77,0l1-4.31c1,.08,2.18.08,3.75.08H56.29l.22-1c0-.16.06-.43.12-.7H46.21a7.16,7.16,0,0,0,.29-1l1.23-5.57c.11-.5.63-2.31,1.24-4.34-1.25.86-2.35,1.56-3.24,2.07-.39-1.09-1.11-3-1.56-4.11C48.39,6.74,52.7,3.17,54.66.35l4.88,1.14a2.29,2.29,0,0,0-.45.43c-.55.7-1.13,1.41-1.8,2.11h5.64A18.47,18.47,0,0,0,65.34.59l5.14,1c-.2.19-.49.43-.65.62-.39.51-.89,1.18-1.45,1.8h7.48c1.13,0,2,0,2.87-.07l-.8,3.64c-.81-.08-1.71-.08-2.84-.08H66.35L66,9h7.37c1.06,0,1.88,0,2.68-.08l-.75,3.41a26.25,26.25,0,0,0-2.65-.08H65.31L65,13.67h7.37c1.06,0,1.88,0,2.68-.08L74.29,17a26.25,26.25,0,0,0-2.65-.08H64.28l-.34,1.53h9.13c1.09,0,2,0,2.83-.08L75.1,22c-.77-.07-1.71-.07-2.8-.07H62.35a7.33,7.33,0,0,0-.24.7l-.22,1h11c1.53,0,2.74,0,3.78-.08l-.95,4.31c-1,0-2.22,0-3.75,0H63.27a39.85,39.85,0,0,0,12.56,3.8A36.17,36.17,0,0,0,72.6,35.8ZM52.11,18.45h7.17l.34-1.53H52.45Zm8.53-6.19H53.48l-.31,1.41h7.16Zm1-4.74H54.52L54.19,9h7.17Z"/><path class="boshushuryo_cls-1" d="M92.27,21.23c-3.33,6-4.42,9-5.26,13.16l-5.23,1.37c-.51-3.36,0-8.61,1.14-13.67a124.48,124.48,0,0,1,6.31-19.7l5.61,1a87.52,87.52,0,0,0-7.12,19.11l-.25,1.14c.9-1.8,1.78-3.49,2.54-4.78Zm19.5,11.56a19.26,19.26,0,0,0-4-3.57c-1.3,3.57-4.85,6-9.55,6s-8-2.36-7.11-6.47,4.73-6.34,9.67-6.34a23.87,23.87,0,0,1,3,.19c.46-2.47,1-5.44,1.52-8.15-3.21.16-6.67.24-10,.16l.93-5.29a75.88,75.88,0,0,0,10.1,0l.1-.47c.54-2.43,1-4.5,1.57-6.19l5.5.43a30.65,30.65,0,0,0-1.81,5.92,46.43,46.43,0,0,0,5.86-.82l-.85,5.25c-1.33.19-3.5.43-6.1.66-.77,3.84-1.35,7.17-1.78,9.68A24.35,24.35,0,0,1,115.38,28Zm-8.88-5.17.11-.51a10.09,10.09,0,0,0-2.84-.43c-2.55,0-3.44.66-3.66,1.64-.3,1.37.68,2.08,2.68,2.08A3.59,3.59,0,0,0,102.89,27.62Z"/><path class="boshushuryo_cls-1" d="M120.79,23c1.21.2,2.65.43,3.58.63,0,.16-.17.43-.29.78a48.76,48.76,0,0,1-3.59,10.42c-.6-.31-2.28-1-3.44-1.45A42.35,42.35,0,0,0,120.79,23Zm36.73-3.52c-1,1.33-2.61,3.52-3.25,4.62a19.84,19.84,0,0,1-7.4-5.68,36.54,36.54,0,0,1-10.66,5.68,21.36,21.36,0,0,0-.84-2.74c-1,.27-2,.51-2.91.74,0-.55.1-1.13.12-1.76l-2.05.24L127.36,34.9c-.13.59-.27,1.26-.35,1.76h-4.62c.15-.5.29-1.13.43-1.76L125.88,21l-4.07.35c-.44,0-1.34.19-1.86.27l.41-4.54a21.63,21.63,0,0,0,2.38,0,9.24,9.24,0,0,0,1,0c.89-.82,1.79-1.73,2.75-2.7a60.11,60.11,0,0,0-4-5.65l3.21-3.72c.28.36.6.83.93,1.3A45,45,0,0,0,131.43,0l3.44,2.31-.64.63a68.64,68.64,0,0,1-5.54,6.62,16.06,16.06,0,0,1,1,1.53,61.92,61.92,0,0,0,6-7.41L139,6l-.71.71c-2.33,2.78-6,6.7-9.43,10.07,1.36-.12,2.64-.24,3.71-.32a23.2,23.2,0,0,0-.29-2.94l3.56-.86a39.61,39.61,0,0,1,.7,6.43,36.13,36.13,0,0,0,8.09-4.19,27,27,0,0,1-1.39-3.45,29,29,0,0,1-4.36,3.6A21.22,21.22,0,0,0,137,11.09c3.59-2.24,8-7,9.5-10.38l4.43.86-.38.51c-.32.54-.63,1-1,1.6h5.1l.38-.31a20.18,20.18,0,0,1,3.15,2.74l-.56.24a40.78,40.78,0,0,1-6.67,8.57A15.26,15.26,0,0,0,157.52,19.47Zm-23.21,2.94A51.46,51.46,0,0,1,134,31L129.88,32a58.05,58.05,0,0,0,.87-8.69Zm3.11,4.93a66.26,66.26,0,0,1,14.78,4.9c-.89,1.37-2.13,3.25-3.09,4.78-4-2.43-10.5-4.62-14.7-5.64Zm13.93-2.78-3.07,4.15a32.63,32.63,0,0,0-8-4.19l2.9-3.37A34.48,34.48,0,0,1,151.35,24.56ZM152,7.72h-5a12.72,12.72,0,0,0,1.49,4.07A24.21,24.21,0,0,0,152,7.72Z"/><path class="boshushuryo_cls-1" d="M181.74,17.31a35.41,35.41,0,0,1-.91,9.6c-1.54,7-4.6,9.68-10.48,9.68-.94,0-2.18,0-2.84-.08-.08-1.06-.51-3.92-.84-5.76.38,0,2.18.23,3.67.23,2.74,0,3.93-.58,4.86-4.81,1.24-5.6,1.05-10.27-.56-12.89L180.05,12l.11.19a5.67,5.67,0,0,1,.4.51,85,85,0,0,0,8-4.5H169.1c-1.34,0-2.47,0-3.35.07L167,2.78c.84.08,2,.08,3.31.08h22.8l.57-.47a27.71,27.71,0,0,1,4.52,4.39,10.45,10.45,0,0,1-1.17.47A73.66,73.66,0,0,1,181.74,17.31Z"/><path class="boshushuryo_cls-1" d="M227.15,27.19c-3.55,3.64-10.39,8.38-17.21,8.38-7.05,0-9.88-3.49-8.41-10.15,1-4.46,4.84-18.37,5.38-20.8.12-.55.32-1.45.42-2.11l6.25.82a23.45,23.45,0,0,0-1.24,3.29c-1.22,4.11-4.27,14.53-5,18-.87,4,.79,5.13,3.92,5.13,5.09,0,11-4.23,14-8C225.69,23.66,226.76,25.93,227.15,27.19Z"/><path class="boshushuryo_cls-1" d="M255.7,34.12A26.55,26.55,0,0,0,249,29.65c-1.35,4-4.48,7-10.35,7-5.45,0-9-2.71-8-6.9.82-3.72,4.67-6.23,10.86-6.23a29.1,29.1,0,0,1,3.4.2c.25-1.29.52-2.7.85-4.19h-1.53a32.25,32.25,0,0,1-8.68-.94l1.18-5c1.62.67,5.67,1.1,9.12,1.1h.9c.28-1.45.56-2.86.85-4.19a63.23,63.23,0,0,1-10.1-.9l1.12-5.09a53.17,53.17,0,0,0,10,1c.37-1.68.57-2.93.73-4.19l5.88.36c-.37,1.13-.8,2.7-1.09,3.83a82.78,82.78,0,0,0,9.19-.82l-1.08,4.9c-2.33.27-5.72.7-9.16.86-.24,1.25-.54,2.62-.81,4a83.67,83.67,0,0,0,9.27-1l-1.11,5c-2.28.35-5.67.63-9.16.82-.41,1.88-.77,3.68-1.12,5.25a29.39,29.39,0,0,1,9.22,4.58Zm-11.82-5.88v-.08a13.33,13.33,0,0,0-3.47-.43c-2.74,0-4.16.79-4.41,1.88-.29,1.34.87,2.12,3.41,2.12A4.25,4.25,0,0,0,243.88,28.24Z"/><path class="boshushuryo_cls-1" d="M291.58,27.19c-3.54,3.64-10.39,8.38-17.2,8.38-7.05,0-9.89-3.49-8.42-10.15,1-4.46,4.84-18.37,5.38-20.8.12-.55.32-1.45.43-2.11l6.24.82a24.86,24.86,0,0,0-1.23,3.29c-1.23,4.11-4.27,14.53-5,18-.88,4,.78,5.13,3.92,5.13,5.09,0,11-4.23,14-8C290.13,23.66,291.19,25.93,291.58,27.19Z"/><path class="boshushuryo_cls-1" d="M311,11.56a212,212,0,0,1-13.43,24.09L292.33,33A124,124,0,0,0,305,12.1c-2.23.16-4.48.24-6.67.24l1-5.49a67.91,67.91,0,0,0,7.89-.07c.43-1.06.82-2.12,1.22-3.22a14.56,14.56,0,0,0,.74-2.46l6.05.62A18.56,18.56,0,0,0,314,4.43c-.21.58-.45,1.13-.69,1.72a56.29,56.29,0,0,0,5.84-1.1l-.79,5.37C316.15,10.85,313.63,11.24,311,11.56Zm14.79,22.75a41.06,41.06,0,0,1-7.34.79c-7,0-11.26-2-10.23-6.7a10.36,10.36,0,0,1,3-4.9l4.73.94a5,5,0,0,0-2.08,2.82c-.44,2,1.56,2.71,5.13,2.71a30.57,30.57,0,0,0,7.57-.94ZM314,13.91a45.22,45.22,0,0,1,8.68-1,33.43,33.43,0,0,1,7.12.74l-1.63,5.09a37.59,37.59,0,0,0-6.41-.58,35.85,35.85,0,0,0-8.64,1Z"/><path class="boshushuryo_cls-2" d="M33.74,31.22a26.79,26.79,0,0,1-4.52-2.08,12.69,12.69,0,0,1-2,4.82C25.87,35.8,23,36.9,17.87,36.9c0-.86-.3-3.06-.49-4.5a8.43,8.43,0,0,0,2.69.43c1.72,0,2.78-.36,3.36-1a4.48,4.48,0,0,0,.62-1.26H18.69c-3,3.76-8.4,5.76-16,6.66-.33-1-1.08-2.93-1.56-4.11C6.22,32.75,10,32,12.5,30.55H9.88c-.83,0-1.57,0-2.29,0l.4-1.8A39.2,39.2,0,0,1,1.72,31,21.56,21.56,0,0,0,0,27a32.27,32.27,0,0,0,9.6-3.37H5.09c-1.56,0-2.74,0-3.74.08l.89-4c1,.08,2.14.08,3.71.08h9c.35-.35.7-.7,1-1.06H7.28a11.57,11.57,0,0,0,.36-1.29L9.39,9.52c.1-.47.17-.94.21-1.29H35.45c-.13.39-.22.82-.33,1.29l-1.74,7.91-.25,1.29H21l-.82,1.06H34.42c1.57,0,2.75,0,3.78-.08l-.89,4c-1-.08-2.18-.08-3.74-.08H28.2a28,28,0,0,0,8.63,3.49A39.46,39.46,0,0,0,33.74,31.22ZM9.06,6.42c-1.57,0-2.75,0-3.78.08l.94-4.27c1,0,2.19,0,3.75,0h5.41l.12-.55a10.36,10.36,0,0,0,.19-1c1,0,3.93.11,4.93.19-.1.32-.17.63-.23.86l-.12.55h7.05l.12-.55a10.31,10.31,0,0,0,.2-1c1.05,0,4,.11,5,.19a7.56,7.56,0,0,0-.23.86l-.12.55h5.44c1.57,0,2.78,0,3.77,0L40.57,6.5c-1-.08-2.18-.08-3.74-.08H31.38l0,.16a8.06,8.06,0,0,0-.16,1.06H26.1a10.87,10.87,0,0,0,.27-1.06l0-.16h-7l0,.16c-.08.39-.16.75-.19,1.06h-5a10.37,10.37,0,0,0,.32-1.06l0-.16Zm12.3,18.26c0,.15-.22.62-.28.9A9.75,9.75,0,0,1,20.64,27H26.2A21.05,21.05,0,0,1,23,23.66h-6.7A37.54,37.54,0,0,1,11.44,27H15.9a8.83,8.83,0,0,0,.57-1.69c.06-.27.13-.74.15-.86C18.1,24.52,20.43,24.6,21.36,24.68Zm-8-8.74H28.26l.27-1.21H13.61ZM14.43,11l-.25,1.13H29.1L29.35,11Z"/><path class="boshushuryo_cls-2" d="M72.6,35.8a30.75,30.75,0,0,1-12.33-5.36c-.35,2.15-.83,4.5-.92,4.89a8.91,8.91,0,0,0-.25,1.49H53.26a9,9,0,0,0,.41-1.49c.09-.43.65-2.78,1.25-5a48.61,48.61,0,0,1-14.53,5.52,18,18,0,0,0-1.55-4.15,53.63,53.63,0,0,0,13.74-3.88H44.43c-1.56,0-2.74,0-3.77,0l1-4.31c1,.08,2.18.08,3.75.08H56.29l.22-1c0-.16.06-.43.12-.7H46.21a7.16,7.16,0,0,0,.29-1l1.23-5.57c.11-.5.63-2.31,1.24-4.34-1.25.86-2.35,1.56-3.24,2.07-.39-1.09-1.11-3-1.56-4.11C48.39,6.74,52.7,3.17,54.66.35l4.88,1.14a2.29,2.29,0,0,0-.45.43c-.55.7-1.13,1.41-1.8,2.11h5.64A18.47,18.47,0,0,0,65.34.59l5.14,1c-.2.19-.49.43-.65.62-.39.51-.89,1.18-1.45,1.8h7.48c1.13,0,2,0,2.87-.07l-.8,3.64c-.81-.08-1.71-.08-2.84-.08H66.35L66,9h7.37c1.06,0,1.88,0,2.68-.08l-.75,3.41a26.25,26.25,0,0,0-2.65-.08H65.31L65,13.67h7.37c1.06,0,1.88,0,2.68-.08L74.29,17a26.25,26.25,0,0,0-2.65-.08H64.28l-.34,1.53h9.13c1.09,0,2,0,2.83-.08L75.1,22c-.77-.07-1.71-.07-2.8-.07H62.35a7.33,7.33,0,0,0-.24.7l-.22,1h11c1.53,0,2.74,0,3.78-.08l-.95,4.31c-1,0-2.22,0-3.75,0H63.27a39.85,39.85,0,0,0,12.56,3.8A36.17,36.17,0,0,0,72.6,35.8ZM52.11,18.45h7.17l.34-1.53H52.45Zm8.53-6.19H53.48l-.31,1.41h7.16Zm1-4.74H54.52L54.19,9h7.17Z"/><path class="boshushuryo_cls-2" d="M92.27,21.23c-3.33,6-4.42,9-5.26,13.16l-5.23,1.37c-.51-3.36,0-8.61,1.14-13.67a124.48,124.48,0,0,1,6.31-19.7l5.61,1a87.52,87.52,0,0,0-7.12,19.11l-.25,1.14c.9-1.8,1.78-3.49,2.54-4.78Zm19.5,11.56a19.26,19.26,0,0,0-4-3.57c-1.3,3.57-4.85,6-9.55,6s-8-2.36-7.11-6.47,4.73-6.34,9.67-6.34a23.87,23.87,0,0,1,3,.19c.46-2.47,1-5.44,1.52-8.15-3.21.16-6.67.24-10,.16l.93-5.29a75.88,75.88,0,0,0,10.1,0l.1-.47c.54-2.43,1-4.5,1.57-6.19l5.5.43a30.65,30.65,0,0,0-1.81,5.92,46.43,46.43,0,0,0,5.86-.82l-.85,5.25c-1.33.19-3.5.43-6.1.66-.77,3.84-1.35,7.17-1.78,9.68A24.35,24.35,0,0,1,115.38,28Zm-8.88-5.17.11-.51a10.09,10.09,0,0,0-2.84-.43c-2.55,0-3.44.66-3.66,1.64-.3,1.37.68,2.08,2.68,2.08A3.59,3.59,0,0,0,102.89,27.62Z"/><path class="boshushuryo_cls-2" d="M120.79,23c1.21.2,2.65.43,3.58.63,0,.16-.17.43-.29.78a48.76,48.76,0,0,1-3.59,10.42c-.6-.31-2.28-1-3.44-1.45A42.35,42.35,0,0,0,120.79,23Zm36.73-3.52c-1,1.33-2.61,3.52-3.25,4.62a19.84,19.84,0,0,1-7.4-5.68,36.54,36.54,0,0,1-10.66,5.68,21.36,21.36,0,0,0-.84-2.74c-1,.27-2,.51-2.91.74,0-.55.1-1.13.12-1.76l-2.05.24L127.36,34.9c-.13.59-.27,1.26-.35,1.76h-4.62c.15-.5.29-1.13.43-1.76L125.88,21l-4.07.35c-.44,0-1.34.19-1.86.27l.41-4.54a21.63,21.63,0,0,0,2.38,0,9.24,9.24,0,0,0,1,0c.89-.82,1.79-1.73,2.75-2.7a60.11,60.11,0,0,0-4-5.65l3.21-3.72c.28.36.6.83.93,1.3A45,45,0,0,0,131.43,0l3.44,2.31-.64.63a68.64,68.64,0,0,1-5.54,6.62,16.06,16.06,0,0,1,1,1.53,61.92,61.92,0,0,0,6-7.41L139,6l-.71.71c-2.33,2.78-6,6.7-9.43,10.07,1.36-.12,2.64-.24,3.71-.32a23.2,23.2,0,0,0-.29-2.94l3.56-.86a39.61,39.61,0,0,1,.7,6.43,36.13,36.13,0,0,0,8.09-4.19,27,27,0,0,1-1.39-3.45,29,29,0,0,1-4.36,3.6A21.22,21.22,0,0,0,137,11.09c3.59-2.24,8-7,9.5-10.38l4.43.86-.38.51c-.32.54-.63,1-1,1.6h5.1l.38-.31a20.18,20.18,0,0,1,3.15,2.74l-.56.24a40.78,40.78,0,0,1-6.67,8.57A15.26,15.26,0,0,0,157.52,19.47Zm-23.21,2.94A51.46,51.46,0,0,1,134,31L129.88,32a58.05,58.05,0,0,0,.87-8.69Zm3.11,4.93a66.26,66.26,0,0,1,14.78,4.9c-.89,1.37-2.13,3.25-3.09,4.78-4-2.43-10.5-4.62-14.7-5.64Zm13.93-2.78-3.07,4.15a32.63,32.63,0,0,0-8-4.19l2.9-3.37A34.48,34.48,0,0,1,151.35,24.56ZM152,7.72h-5a12.72,12.72,0,0,0,1.49,4.07A24.21,24.21,0,0,0,152,7.72Z"/><path class="boshushuryo_cls-2" d="M181.74,17.31a35.41,35.41,0,0,1-.91,9.6c-1.54,7-4.6,9.68-10.48,9.68-.94,0-2.18,0-2.84-.08-.08-1.06-.51-3.92-.84-5.76.38,0,2.18.23,3.67.23,2.74,0,3.93-.58,4.86-4.81,1.24-5.6,1.05-10.27-.56-12.89L180.05,12l.11.19a5.67,5.67,0,0,1,.4.51,85,85,0,0,0,8-4.5H169.1c-1.34,0-2.47,0-3.35.07L167,2.78c.84.08,2,.08,3.31.08h22.8l.57-.47a27.71,27.71,0,0,1,4.52,4.39,10.45,10.45,0,0,1-1.17.47A73.66,73.66,0,0,1,181.74,17.31Z"/><path class="boshushuryo_cls-2" d="M227.15,27.19c-3.55,3.64-10.39,8.38-17.21,8.38-7.05,0-9.88-3.49-8.41-10.15,1-4.46,4.84-18.37,5.38-20.8.12-.55.32-1.45.42-2.11l6.25.82a23.45,23.45,0,0,0-1.24,3.29c-1.22,4.11-4.27,14.53-5,18-.87,4,.79,5.13,3.92,5.13,5.09,0,11-4.23,14-8C225.69,23.66,226.76,25.93,227.15,27.19Z"/><path class="boshushuryo_cls-2" d="M255.7,34.12A26.55,26.55,0,0,0,249,29.65c-1.35,4-4.48,7-10.35,7-5.45,0-9-2.71-8-6.9.82-3.72,4.67-6.23,10.86-6.23a29.1,29.1,0,0,1,3.4.2c.25-1.29.52-2.7.85-4.19h-1.53a32.25,32.25,0,0,1-8.68-.94l1.18-5c1.62.67,5.67,1.1,9.12,1.1h.9c.28-1.45.56-2.86.85-4.19a63.23,63.23,0,0,1-10.1-.9l1.12-5.09a53.17,53.17,0,0,0,10,1c.37-1.68.57-2.93.73-4.19l5.88.36c-.37,1.13-.8,2.7-1.09,3.83a82.78,82.78,0,0,0,9.19-.82l-1.08,4.9c-2.33.27-5.72.7-9.16.86-.24,1.25-.54,2.62-.81,4a83.67,83.67,0,0,0,9.27-1l-1.11,5c-2.28.35-5.67.63-9.16.82-.41,1.88-.77,3.68-1.12,5.25a29.39,29.39,0,0,1,9.22,4.58Zm-11.82-5.88v-.08a13.33,13.33,0,0,0-3.47-.43c-2.74,0-4.16.79-4.41,1.88-.29,1.34.87,2.12,3.41,2.12A4.25,4.25,0,0,0,243.88,28.24Z"/><path class="boshushuryo_cls-2" d="M291.58,27.19c-3.54,3.64-10.39,8.38-17.2,8.38-7.05,0-9.89-3.49-8.42-10.15,1-4.46,4.84-18.37,5.38-20.8.12-.55.32-1.45.43-2.11l6.24.82a24.86,24.86,0,0,0-1.23,3.29c-1.23,4.11-4.27,14.53-5,18-.88,4,.78,5.13,3.92,5.13,5.09,0,11-4.23,14-8C290.13,23.66,291.19,25.93,291.58,27.19Z"/><path class="boshushuryo_cls-2" d="M311,11.56a212,212,0,0,1-13.43,24.09L292.33,33A124,124,0,0,0,305,12.1c-2.23.16-4.48.24-6.67.24l1-5.49a67.91,67.91,0,0,0,7.89-.07c.43-1.06.82-2.12,1.22-3.22a14.56,14.56,0,0,0,.74-2.46l6.05.62A18.56,18.56,0,0,0,314,4.43c-.21.58-.45,1.13-.69,1.72a56.29,56.29,0,0,0,5.84-1.1l-.79,5.37C316.15,10.85,313.63,11.24,311,11.56Zm14.79,22.75a41.06,41.06,0,0,1-7.34.79c-7,0-11.26-2-10.23-6.7a10.36,10.36,0,0,1,3-4.9l4.73.94a5,5,0,0,0-2.08,2.82c-.44,2,1.56,2.71,5.13,2.71a30.57,30.57,0,0,0,7.57-.94ZM314,13.91a45.22,45.22,0,0,1,8.68-1,33.43,33.43,0,0,1,7.12.74l-1.63,5.09a37.59,37.59,0,0,0-6.41-.58,35.85,35.85,0,0,0-8.64,1Z"/></g></g></svg>