<svg xmlns="http://www.w3.org/2000/svg" xmlns:xlink="http://www.w3.org/1999/xlink" viewBox="0 0 280.58 37.51"><defs><style>.comming_soon_cls-1{fill:#fff;}.comming_soon_cls-2{fill:url(#grad_4);}</style><linearGradient id="grad_4" x1="1050.03" y1="550.89" x2="1330.61" y2="550.89" gradientTransform="translate(-1050.03 -532.14)" gradientUnits="userSpaceOnUse"><stop offset="0" stop-color="#d8ff6c"/><stop offset="1" stop-color="#9ad4b6"/></linearGradient></defs><title>comming_soon</title><g id="レイヤー_2" data-name="レイヤー 2"><g id="レイヤー_1-2" data-name="レイヤー 1"><path class="comming_soon_cls-1" d="M22.34,28.31A38.41,38.41,0,0,1,11.23,30.2a13.31,13.31,0,0,1-6.06-1.33,8.53,8.53,0,0,1-3.91-3.8A11.91,11.91,0,0,1,0,19.59a19.12,19.12,0,0,1,2.48-9.33A19.55,19.55,0,0,1,9.05,3.13,17.64,17.64,0,0,1,18.86.48a35.22,35.22,0,0,1,8.43,1.09l-.88,4.59a22.22,22.22,0,0,0-8.07-1.8,9.84,9.84,0,0,0-5.83,1.82,13.8,13.8,0,0,0-4.3,5.42A16.25,16.25,0,0,0,6.5,18.74a8.3,8.3,0,0,0,.87,3.87,5.58,5.58,0,0,0,2.57,2.51,8.29,8.29,0,0,0,3.75.83,33.7,33.7,0,0,0,9.51-2Z"/><path class="comming_soon_cls-1" d="M35.8,30A8.26,8.26,0,0,1,30.06,28,6.5,6.5,0,0,1,27.9,23a15.5,15.5,0,0,1,2-7.38,14.77,14.77,0,0,1,5-5.62A12.24,12.24,0,0,1,41.64,8a8.39,8.39,0,0,1,5.89,2A6.61,6.61,0,0,1,49.65,15a15.49,15.49,0,0,1-2,7.38,15,15,0,0,1-5,5.62A12.41,12.41,0,0,1,35.8,30ZM37,26.3a4.76,4.76,0,0,0,3.37-1.37,10,10,0,0,0,2.38-3.84A14.08,14.08,0,0,0,43.7,16a5.34,5.34,0,0,0-.83-3.24,2.81,2.81,0,0,0-2.4-1.1A4.68,4.68,0,0,0,37.21,13a10,10,0,0,0-2.41,3.84A14.25,14.25,0,0,0,33.85,22a5.2,5.2,0,0,0,.84,3.2A2.77,2.77,0,0,0,37,26.3Z"/><path class="comming_soon_cls-1" d="M52.92,29.49l4.19-21h5.43l-1.75,8.72a25.41,25.41,0,0,1,4.78-6.61A7.88,7.88,0,0,1,70.94,8a3.48,3.48,0,0,1,2.41.9,3.68,3.68,0,0,1,1,2.89,13.82,13.82,0,0,1-.25,2.49l-.57,2.92Q78.62,8,83.84,8a3.19,3.19,0,0,1,2.6,1.18,4.58,4.58,0,0,1,.94,3,11.42,11.42,0,0,1-.24,2.09l-3,15.25H78.66l2.82-14.15a4.52,4.52,0,0,0,.1-1,1.13,1.13,0,0,0-.28-.88.84.84,0,0,0-.56-.24q-1.93,0-8.18,9l-1.45,7.3H65.79l2.82-14.15a4.55,4.55,0,0,0,.1-1,1.12,1.12,0,0,0-.28-.87.84.84,0,0,0-.56-.24q-1.91,0-8.06,9l-1.46,7.3Z"/><path class="comming_soon_cls-1" d="M91.54,29.49l4.18-21h5.68l-4.21,21ZM96.43,5l1-4.95h5.66l-1,5Z"/><path class="comming_soon_cls-1" d="M104.71,29.49l4.19-21h5.65l-1.73,8.72a26,26,0,0,1,4.92-6.71A7.92,7.92,0,0,1,123.1,8a3.62,3.62,0,0,1,2.64,1.06,4.17,4.17,0,0,1,1.08,3.13,12.88,12.88,0,0,1-.27,2.51l-3,14.78h-5.65l2.87-14.4a3.85,3.85,0,0,0,.09-.8c0-.72-.27-1.07-.8-1.07q-1.35,0-3.88,3.13a59.89,59.89,0,0,0-4.44,6.18l-1.4,7Z"/><path class="comming_soon_cls-1" d="M130.22,36.43,130,31.67A33.53,33.53,0,0,0,133.36,33a18.43,18.43,0,0,0,2.53.6,16.52,16.52,0,0,0,2.41.19c1.89,0,3.22-.45,4-1.36a7,7,0,0,0,1.5-3.19l1.68-8.44c-.24.37-.42.65-.53.84a37.19,37.19,0,0,1-2.79,4.15,17,17,0,0,1-1.59,1.47A11.47,11.47,0,0,1,138,28.85a6.19,6.19,0,0,1-2.68.64A3.9,3.9,0,0,1,132.08,28a5.91,5.91,0,0,1-1.2-3.77,16.5,16.5,0,0,1,2.17-7.62,17.78,17.78,0,0,1,5.33-6.34A11.07,11.07,0,0,1,144.85,8a12,12,0,0,1,1.6.12c.58.08,1.22.2,1.9.36h5.22l-3.42,17c-.75,3.75-1.6,6.31-2.57,7.69a9,9,0,0,1-4.24,3.17,16,16,0,0,1-6,1.11A24.38,24.38,0,0,1,130.22,36.43Zm16.23-20.71.71-3.54a6.6,6.6,0,0,0-2.8-.63,5.45,5.45,0,0,0-3.54,1.5,11.36,11.36,0,0,0-3,4.55A14.93,14.93,0,0,0,136.63,23c0,.78.14,1.25.41,1.43a1.46,1.46,0,0,0,.78.25q1.38,0,3.82-2.65A50.26,50.26,0,0,0,146.45,15.72Z"/><path class="comming_soon_cls-1" d="M170.18,29.17l.91-4.59a20,20,0,0,0,7.25,1.74,6.23,6.23,0,0,0,4.12-1.18,3.77,3.77,0,0,0,1.37-3,3.88,3.88,0,0,0-1-2.69,15.55,15.55,0,0,0-2.27-2l-1.6-1.19a15.35,15.35,0,0,1-3.48-3.34,6.13,6.13,0,0,1-1.17-3.65,7.82,7.82,0,0,1,1.36-4.41,9.16,9.16,0,0,1,3.69-3.21A12.74,12.74,0,0,1,185.08.48,27,27,0,0,1,193,1.74L192.13,6A19.26,19.26,0,0,0,185,4.36a5.5,5.5,0,0,0-3.46,1,3.07,3.07,0,0,0-1.27,2.53,3.2,3.2,0,0,0,.74,2.06,13.73,13.73,0,0,0,2.38,2.15l1.74,1.33a15.8,15.8,0,0,1,4.09,4,7.06,7.06,0,0,1,1.06,3.68,7.9,7.9,0,0,1-1.49,4.48,9.65,9.65,0,0,1-4.18,3.4,17.33,17.33,0,0,1-7,1.2A27.93,27.93,0,0,1,170.18,29.17Z"/><path class="comming_soon_cls-1" d="M202.81,30A8.27,8.27,0,0,1,197.06,28,6.5,6.5,0,0,1,194.91,23a15.39,15.39,0,0,1,2-7.38,14.69,14.69,0,0,1,5-5.62A12.23,12.23,0,0,1,208.64,8a8.39,8.39,0,0,1,5.89,2A6.58,6.58,0,0,1,216.65,15a15.49,15.49,0,0,1-2,7.38,15,15,0,0,1-5,5.62A12.4,12.4,0,0,1,202.81,30ZM204,26.3a4.78,4.78,0,0,0,3.38-1.37,10.22,10.22,0,0,0,2.38-3.84A14.29,14.29,0,0,0,210.7,16a5.27,5.27,0,0,0-.83-3.24,2.8,2.8,0,0,0-2.4-1.1A4.7,4.7,0,0,0,204.21,13a10.13,10.13,0,0,0-2.41,3.84,14.25,14.25,0,0,0-1,5.12,5.13,5.13,0,0,0,.85,3.2A2.76,2.76,0,0,0,204,26.3Z"/><path class="comming_soon_cls-1" d="M227.65,30A8.29,8.29,0,0,1,221.9,28,6.53,6.53,0,0,1,219.75,23a15.39,15.39,0,0,1,2-7.38,14.77,14.77,0,0,1,5-5.62A12.23,12.23,0,0,1,233.48,8a8.37,8.37,0,0,1,5.89,2A6.58,6.58,0,0,1,241.5,15a15.49,15.49,0,0,1-2,7.38,15,15,0,0,1-5,5.62A12.4,12.4,0,0,1,227.65,30Zm1.2-3.67a4.76,4.76,0,0,0,3.38-1.37,10.09,10.09,0,0,0,2.38-3.84,14.08,14.08,0,0,0,.94-5.06,5.34,5.34,0,0,0-.83-3.24,2.82,2.82,0,0,0-2.4-1.1A4.72,4.72,0,0,0,229.05,13a10.12,10.12,0,0,0-2.4,3.84,14,14,0,0,0-1,5.12,5.2,5.2,0,0,0,.84,3.2A2.76,2.76,0,0,0,228.85,26.3Z"/><path class="comming_soon_cls-1" d="M244.77,29.49l4.18-21h5.66l-1.73,8.72a25.53,25.53,0,0,1,4.92-6.71A7.9,7.9,0,0,1,263.16,8a3.65,3.65,0,0,1,2.64,1.06,4.21,4.21,0,0,1,1.07,3.13,12.88,12.88,0,0,1-.27,2.51l-3,14.78H258l2.87-14.4a3.3,3.3,0,0,0,.1-.8c0-.72-.27-1.07-.81-1.07q-1.33,0-3.88,3.13a63.07,63.07,0,0,0-4.44,6.18l-1.4,7Z"/><path class="comming_soon_cls-1" d="M269.28,29.49l1-4.72h5.65l-.94,4.72Zm2.55-8,2-14.65,1.13-5.64h5.65l-1.12,5.64-3.87,14.65Z"/><path class="comming_soon_cls-2" d="M22.34,28.31A38.41,38.41,0,0,1,11.23,30.2a13.31,13.31,0,0,1-6.06-1.33,8.53,8.53,0,0,1-3.91-3.8A11.91,11.91,0,0,1,0,19.59a19.12,19.12,0,0,1,2.48-9.33A19.55,19.55,0,0,1,9.05,3.13,17.64,17.64,0,0,1,18.86.48a35.22,35.22,0,0,1,8.43,1.09l-.88,4.59a22.22,22.22,0,0,0-8.07-1.8,9.84,9.84,0,0,0-5.83,1.82,13.8,13.8,0,0,0-4.3,5.42A16.25,16.25,0,0,0,6.5,18.74a8.3,8.3,0,0,0,.87,3.87,5.58,5.58,0,0,0,2.57,2.51,8.29,8.29,0,0,0,3.75.83,33.7,33.7,0,0,0,9.51-2Z"/><path class="comming_soon_cls-2" d="M35.8,30A8.26,8.26,0,0,1,30.06,28,6.5,6.5,0,0,1,27.9,23a15.5,15.5,0,0,1,2-7.38,14.77,14.77,0,0,1,5-5.62A12.24,12.24,0,0,1,41.64,8a8.39,8.39,0,0,1,5.89,2A6.61,6.61,0,0,1,49.65,15a15.49,15.49,0,0,1-2,7.38,15,15,0,0,1-5,5.62A12.41,12.41,0,0,1,35.8,30ZM37,26.3a4.76,4.76,0,0,0,3.37-1.37,10,10,0,0,0,2.38-3.84A14.08,14.08,0,0,0,43.7,16a5.34,5.34,0,0,0-.83-3.24,2.81,2.81,0,0,0-2.4-1.1A4.68,4.68,0,0,0,37.21,13a10,10,0,0,0-2.41,3.84A14.25,14.25,0,0,0,33.85,22a5.2,5.2,0,0,0,.84,3.2A2.77,2.77,0,0,0,37,26.3Z"/><path class="comming_soon_cls-2" d="M52.92,29.49l4.19-21h5.43l-1.75,8.72a25.41,25.41,0,0,1,4.78-6.61A7.88,7.88,0,0,1,70.94,8a3.48,3.48,0,0,1,2.41.9,3.68,3.68,0,0,1,1,2.89,13.82,13.82,0,0,1-.25,2.49l-.57,2.92Q78.62,8,83.84,8a3.19,3.19,0,0,1,2.6,1.18,4.58,4.58,0,0,1,.94,3,11.42,11.42,0,0,1-.24,2.09l-3,15.25H78.66l2.82-14.15a4.52,4.52,0,0,0,.1-1,1.13,1.13,0,0,0-.28-.88.84.84,0,0,0-.56-.24q-1.93,0-8.18,9l-1.45,7.3H65.79l2.82-14.15a4.55,4.55,0,0,0,.1-1,1.12,1.12,0,0,0-.28-.87.84.84,0,0,0-.56-.24q-1.91,0-8.06,9l-1.46,7.3Z"/><path class="comming_soon_cls-2" d="M91.54,29.49l4.18-21h5.68l-4.21,21ZM96.43,5l1-4.95h5.66l-1,5Z"/><path class="comming_soon_cls-2" d="M104.71,29.49l4.19-21h5.65l-1.73,8.72a26,26,0,0,1,4.92-6.71A7.92,7.92,0,0,1,123.1,8a3.62,3.62,0,0,1,2.64,1.06,4.17,4.17,0,0,1,1.08,3.13,12.88,12.88,0,0,1-.27,2.51l-3,14.78h-5.65l2.87-14.4a3.85,3.85,0,0,0,.09-.8c0-.72-.27-1.07-.8-1.07q-1.35,0-3.88,3.13a59.89,59.89,0,0,0-4.44,6.18l-1.4,7Z"/><path class="comming_soon_cls-2" d="M130.22,36.43,130,31.67A33.53,33.53,0,0,0,133.36,33a18.43,18.43,0,0,0,2.53.6,16.52,16.52,0,0,0,2.41.19c1.89,0,3.22-.45,4-1.36a7,7,0,0,0,1.5-3.19l1.68-8.44c-.24.37-.42.65-.53.84a37.19,37.19,0,0,1-2.79,4.15,17,17,0,0,1-1.59,1.47A11.47,11.47,0,0,1,138,28.85a6.19,6.19,0,0,1-2.68.64A3.9,3.9,0,0,1,132.08,28a5.91,5.91,0,0,1-1.2-3.77,16.5,16.5,0,0,1,2.17-7.62,17.78,17.78,0,0,1,5.33-6.34A11.07,11.07,0,0,1,144.85,8a12,12,0,0,1,1.6.12c.58.08,1.22.2,1.9.36h5.22l-3.42,17c-.75,3.75-1.6,6.31-2.57,7.69a9,9,0,0,1-4.24,3.17,16,16,0,0,1-6,1.11A24.38,24.38,0,0,1,130.22,36.43Zm16.23-20.71.71-3.54a6.6,6.6,0,0,0-2.8-.63,5.45,5.45,0,0,0-3.54,1.5,11.36,11.36,0,0,0-3,4.55A14.93,14.93,0,0,0,136.63,23c0,.78.14,1.25.41,1.43a1.46,1.46,0,0,0,.78.25q1.38,0,3.82-2.65A50.26,50.26,0,0,0,146.45,15.72Z"/><path class="comming_soon_cls-2" d="M170.18,29.17l.91-4.59a20,20,0,0,0,7.25,1.74,6.23,6.23,0,0,0,4.12-1.18,3.77,3.77,0,0,0,1.37-3,3.88,3.88,0,0,0-1-2.69,15.55,15.55,0,0,0-2.27-2l-1.6-1.19a15.35,15.35,0,0,1-3.48-3.34,6.13,6.13,0,0,1-1.17-3.65,7.82,7.82,0,0,1,1.36-4.41,9.16,9.16,0,0,1,3.69-3.21A12.74,12.74,0,0,1,185.08.48,27,27,0,0,1,193,1.74L192.13,6A19.26,19.26,0,0,0,185,4.36a5.5,5.5,0,0,0-3.46,1,3.07,3.07,0,0,0-1.27,2.53,3.2,3.2,0,0,0,.74,2.06,13.73,13.73,0,0,0,2.38,2.15l1.74,1.33a15.8,15.8,0,0,1,4.09,4,7.06,7.06,0,0,1,1.06,3.68,7.9,7.9,0,0,1-1.49,4.48,9.65,9.65,0,0,1-4.18,3.4,17.33,17.33,0,0,1-7,1.2A27.93,27.93,0,0,1,170.18,29.17Z"/><path class="comming_soon_cls-2" d="M202.81,30A8.27,8.27,0,0,1,197.06,28,6.5,6.5,0,0,1,194.91,23a15.39,15.39,0,0,1,2-7.38,14.69,14.69,0,0,1,5-5.62A12.23,12.23,0,0,1,208.64,8a8.39,8.39,0,0,1,5.89,2A6.58,6.58,0,0,1,216.65,15a15.49,15.49,0,0,1-2,7.38,15,15,0,0,1-5,5.62A12.4,12.4,0,0,1,202.81,30ZM204,26.3a4.78,4.78,0,0,0,3.38-1.37,10.22,10.22,0,0,0,2.38-3.84A14.29,14.29,0,0,0,210.7,16a5.27,5.27,0,0,0-.83-3.24,2.8,2.8,0,0,0-2.4-1.1A4.7,4.7,0,0,0,204.21,13a10.13,10.13,0,0,0-2.41,3.84,14.25,14.25,0,0,0-1,5.12,5.13,5.13,0,0,0,.85,3.2A2.76,2.76,0,0,0,204,26.3Z"/><path class="comming_soon_cls-2" d="M227.65,30A8.29,8.29,0,0,1,221.9,28,6.53,6.53,0,0,1,219.75,23a15.39,15.39,0,0,1,2-7.38,14.77,14.77,0,0,1,5-5.62A12.23,12.23,0,0,1,233.48,8a8.37,8.37,0,0,1,5.89,2A6.58,6.58,0,0,1,241.5,15a15.49,15.49,0,0,1-2,7.38,15,15,0,0,1-5,5.62A12.4,12.4,0,0,1,227.65,30Zm1.2-3.67a4.76,4.76,0,0,0,3.38-1.37,10.09,10.09,0,0,0,2.38-3.84,14.08,14.08,0,0,0,.94-5.06,5.34,5.34,0,0,0-.83-3.24,2.82,2.82,0,0,0-2.4-1.1A4.72,4.72,0,0,0,229.05,13a10.12,10.12,0,0,0-2.4,3.84,14,14,0,0,0-1,5.12,5.2,5.2,0,0,0,.84,3.2A2.76,2.76,0,0,0,228.85,26.3Z"/><path class="comming_soon_cls-2" d="M244.77,29.49l4.18-21h5.66l-1.73,8.72a25.53,25.53,0,0,1,4.92-6.71A7.9,7.9,0,0,1,263.16,8a3.65,3.65,0,0,1,2.64,1.06,4.21,4.21,0,0,1,1.07,3.13,12.88,12.88,0,0,1-.27,2.51l-3,14.78H258l2.87-14.4a3.3,3.3,0,0,0,.1-.8c0-.72-.27-1.07-.81-1.07q-1.33,0-3.88,3.13a63.07,63.07,0,0,0-4.44,6.18l-1.4,7Z"/><path class="comming_soon_cls-2" d="M269.28,29.49l1-4.72h5.65l-.94,4.72Zm2.55-8,2-14.65,1.13-5.64h5.65l-1.12,5.64-3.87,14.65Z"/></g></g></svg>