<svg xmlns="http://www.w3.org/2000/svg" viewBox="0 0 46.99 46.99"><defs><style>.facebook_cls-1{fill:#4267b2;}.facebook_cls-2{fill:#fff;}</style></defs><title>Facebook</title><g id="レイヤー_2" data-name="レイヤー 2"><g id="レイヤー_1-2" data-name="レイヤー 1"><path class="facebook_cls-1" d="M44.4,0H2.58A2.59,2.59,0,0,0,0,2.59V44.42A2.59,2.59,0,0,0,2.59,47H25.1V28.82H19V21.7H25.1V16.47c0-6.07,3.71-9.37,9.12-9.37a47.49,47.49,0,0,1,5.47.28v6.34H36c-2.94,0-3.52,1.41-3.52,3.46V21.7h7l-.94,7.12H32.42V47h12A2.59,2.59,0,0,0,47,44.4V2.58A2.59,2.59,0,0,0,44.4,0Z"/><path id="f" class="facebook_cls-2" d="M32.42,47V28.82h6.11l.94-7.12h-7V17.18c0-2.06.58-3.46,3.52-3.46h3.73V7.38A47.49,47.49,0,0,0,34.2,7.1c-5.41,0-9.12,3.28-9.12,9.37V21.7H19v7.12h6.11V47Z"/></g></g></svg>