<svg xmlns="http://www.w3.org/2000/svg" viewBox="0 0 30.56 30.56"><defs><style>.facebook_white_cls-1{fill:#fff;}</style></defs><title>facebook_white</title><g id="レイヤー_2" data-name="レイヤー 2"><g id="レイヤー_1-2" data-name="レイヤー 1"><path class="facebook_white_cls-1" d="M28.86,0H1.7A1.7,1.7,0,0,0,0,1.7V28.86a1.7,1.7,0,0,0,1.7,1.7H16.32V18.74h-4V14.12h4v-3.4c0-4,2.41-6.09,5.95-6.09a30.15,30.15,0,0,1,3.55.18v4.1H23.38c-1.91,0-2.28.91-2.28,2.25V14.1h4.58l-.6,4.63h-4V30.56h7.76a1.7,1.7,0,0,0,1.7-1.7V1.7A1.7,1.7,0,0,0,28.86,0Z"/></g></g></svg>