<svg xmlns="http://www.w3.org/2000/svg" viewBox="0 0 347.9 265.96"><defs><style>.cls-1{fill:#0e0f0d;}</style></defs><title>final_pitch_day</title><g id="レイヤー_2" data-name="レイヤー 2"><g id="レイヤー_1-2" data-name="レイヤー 1"><path class="cls-1" d="M0,231.21l.65-3.31a17.34,17.34,0,0,1,3.12-4.2,43.29,43.29,0,0,1,4.31-3.8l2.65-2a29.73,29.73,0,0,0,4.63-4.25,5.69,5.69,0,0,0,1.52-3.6,2.86,2.86,0,0,0-1.17-2.44,5.78,5.78,0,0,0-3.47-.87A16,16,0,0,0,5,208.61l.77-3.9a25.35,25.35,0,0,1,8.38-1.55c2.86,0,5,.61,6.38,1.85a5.89,5.89,0,0,1,2.09,4.6A8.09,8.09,0,0,1,21.17,214a19,19,0,0,1-5.54,4.93l-2.87,1.91a34.29,34.29,0,0,0-3.15,2.29,12.16,12.16,0,0,0-1.72,1.73,7,7,0,0,0-1.14,2H19.12l-.87,4.33Z"/><path class="cls-1" d="M34.08,231.9a8.05,8.05,0,0,1-5.91-2.5c-1.64-1.66-2.47-4.07-2.47-7.21a23.66,23.66,0,0,1,2.07-9.7,17.33,17.33,0,0,1,5.12-7,10.62,10.62,0,0,1,6.54-2.33,8.1,8.1,0,0,1,6.1,2.54q2.41,2.55,2.42,7.17a23.8,23.8,0,0,1-2,9.6,17.6,17.6,0,0,1-5.07,7A10.73,10.73,0,0,1,34.08,231.9Zm.61-3.43q3.86,0,5.78-6.38A39,39,0,0,0,42.4,211a4.53,4.53,0,0,0-1.1-3.42,3.56,3.56,0,0,0-2.5-1,4.77,4.77,0,0,0-3.67,2c-1.12,1.33-2.06,3.7-2.83,7.09A39.32,39.32,0,0,0,31.14,224a4.39,4.39,0,0,0,1.15,3.46A3.62,3.62,0,0,0,34.69,228.47Z"/><path class="cls-1" d="M50,231.21l.64-3.31a17.65,17.65,0,0,1,3.13-4.2,43.29,43.29,0,0,1,4.31-3.8l2.64-2a29.28,29.28,0,0,0,4.63-4.25,5.7,5.7,0,0,0,1.53-3.6,2.86,2.86,0,0,0-1.17-2.44,5.8,5.8,0,0,0-3.47-.87,16,16,0,0,0-7.29,1.9l.78-3.9a25.31,25.31,0,0,1,8.38-1.55c2.86,0,5,.61,6.38,1.85a5.89,5.89,0,0,1,2.09,4.6A8.09,8.09,0,0,1,71.14,214a19.23,19.23,0,0,1-5.55,4.93l-2.86,1.91a36.24,36.24,0,0,0-3.16,2.29,13.32,13.32,0,0,0-1.72,1.73,7.22,7.22,0,0,0-1.13,2H69.09l-.87,4.33Z"/><path class="cls-1" d="M84.05,231.9a8,8,0,0,1-5.91-2.5c-1.65-1.66-2.47-4.07-2.47-7.21a23.81,23.81,0,0,1,2.06-9.7,17.35,17.35,0,0,1,5.13-7,10.6,10.6,0,0,1,6.53-2.33,8.1,8.1,0,0,1,6.11,2.54q2.41,2.55,2.42,7.17a23.82,23.82,0,0,1-2,9.6,17.68,17.68,0,0,1-5.06,7A10.73,10.73,0,0,1,84.05,231.9Zm.61-3.43q3.84,0,5.78-6.38A39,39,0,0,0,92.37,211a4.57,4.57,0,0,0-1.1-3.42,3.56,3.56,0,0,0-2.51-1,4.78,4.78,0,0,0-3.67,2c-1.11,1.33-2.06,3.7-2.83,7.09A39.2,39.2,0,0,0,81.11,224a4.43,4.43,0,0,0,1.14,3.46A3.66,3.66,0,0,0,84.66,228.47Z"/><path class="cls-1" d="M217.44,256.1a30.32,30.32,0,0,1-22.34-9.44q-9.34-9.43-9.34-27.27a89.84,89.84,0,0,1,7.8-36.68q7.8-17.65,19.37-26.47t24.72-8.81q13.9,0,23.07,9.62t9.16,27.09a90.16,90.16,0,0,1-7.65,36.33q-7.67,17.6-19.16,26.61A40.56,40.56,0,0,1,217.44,256.1Zm2.31-12.94q14.53,0,21.85-24.16t7.31-41.78c0-6-1.39-10.26-4.16-12.9a13.43,13.43,0,0,0-9.48-3.95q-7.54,0-13.88,7.59t-10.7,26.81q-4.37,19.23-4.37,31.54,0,9.3,4.34,13.08A13.66,13.66,0,0,0,219.75,243.16Z"/><path class="cls-1" d="M267.69,252.46l2.94-14.54,2.77.84q13.92,4.41,22.16,4.4a26.68,26.68,0,0,0,12.26-2.76,20.53,20.53,0,0,0,8.52-8,20.93,20.93,0,0,0,3.1-10.87,14,14,0,0,0-7.6-12.91q-7.6-4.29-22.87-4.3h-3.59L288,191.42h6q17.68,0,25.31-6.51t7.63-13.63a9.61,9.61,0,0,0-4-7.69q-4-3.22-12.75-3.22a63.26,63.26,0,0,0-13.07,1.5,85.46,85.46,0,0,0-10.71,2.84l2.8-14a113.76,113.76,0,0,1,27.35-3.29q16.08,0,23.7,5.56a17.3,17.3,0,0,1,7.62,14.65,23.85,23.85,0,0,1-3,11.57,32.35,32.35,0,0,1-8.85,10q-5.81,4.47-15.73,7.76,10.07,2.87,15.27,9.34a22.4,22.4,0,0,1,5.21,14.44,31.25,31.25,0,0,1-5.86,18.07,36.86,36.86,0,0,1-15.62,12.87q-9.75,4.36-23.68,4.37A113.12,113.12,0,0,1,267.69,252.46Z"/><path class="cls-1" d="M32.35,179.94A30.28,30.28,0,0,1,10,170.5Q.68,161.07.67,143.23a89.88,89.88,0,0,1,7.8-36.68q7.8-17.65,19.37-26.46t24.72-8.81q13.92,0,23.08,9.61T84.8,108a90.07,90.07,0,0,1-7.66,36.33Q69.49,161.9,58,170.92A40.48,40.48,0,0,1,32.35,179.94ZM34.66,167q14.55,0,21.85-24.16t7.31-41.78q0-9-4.16-12.91a13.41,13.41,0,0,0-9.48-4q-7.55,0-13.88,7.59T25.6,118.62q-4.37,19.23-4.37,31.54,0,9.3,4.34,13.07A13.69,13.69,0,0,0,34.66,167Z"/><path class="cls-1" d="M82.6,176.31l2.94-14.55,2.77.84Q102.23,167,110.48,167a26.67,26.67,0,0,0,12.25-2.76,20.46,20.46,0,0,0,8.53-8,21,21,0,0,0,3.09-10.87,13.93,13.93,0,0,0-7.6-12.9q-7.6-4.31-22.87-4.3h-3.59l2.59-12.94h6q17.68,0,25.31-6.5t7.62-13.64a9.63,9.63,0,0,0-4-7.69q-4-3.21-12.75-3.22a62.7,62.7,0,0,0-13.07,1.51,84,84,0,0,0-10.71,2.83l2.8-14a113.82,113.82,0,0,1,27.35-3.28q16.08,0,23.7,5.56a17.29,17.29,0,0,1,7.62,14.65,23.77,23.77,0,0,1-3,11.57,32.44,32.44,0,0,1-8.85,10q-5.8,4.48-15.73,7.77,10.06,2.86,15.28,9.33a22.47,22.47,0,0,1,5.21,14.44,31.29,31.29,0,0,1-5.87,18.08,36.91,36.91,0,0,1-15.62,12.86q-9.75,4.38-23.67,4.37A113.65,113.65,0,0,1,82.6,176.31Z"/><path class="cls-1" d="M.62,26.65l5-25H21.31l-.68,3.44H10.11l-1.5,7.48h8.44l-.64,3.22H8L5.81,26.65Z"/><path class="cls-1" d="M20.72,26.65,24.41,8.12h5L25.71,26.65ZM25,5,25.92.62h5L30,5Z"/><path class="cls-1" d="M31.65,26.65l3.7-18.53h5l-1.53,7.69a22.6,22.6,0,0,1,4.35-5.92A7,7,0,0,1,47.88,7.7a3.21,3.21,0,0,1,2.33.92,3.7,3.7,0,0,1,.95,2.77,11.37,11.37,0,0,1-.24,2.22l-2.61,13h-5l2.53-12.71a3,3,0,0,0,.08-.71c0-.63-.23-.94-.71-.94q-1.19,0-3.42,2.76a55,55,0,0,0-3.92,5.46l-1.24,6.14Z"/><path class="cls-1" d="M65.38,26.65,66.91,19a21.21,21.21,0,0,1-4.28,5.78,7.19,7.19,0,0,1-4.76,2.34A3.36,3.36,0,0,1,55,25.6a5.24,5.24,0,0,1-1-3.1,15,15,0,0,1,2.11-7.21,16.06,16.06,0,0,1,4.86-5.71A9.61,9.61,0,0,1,66.4,7.7a7.79,7.79,0,0,1,1.22.1,11.65,11.65,0,0,1,1.45.32h5L70.37,26.65Zm2.41-12.13.62-3.08A5.47,5.47,0,0,0,67.23,11a4.83,4.83,0,0,0-1.18-.15,4.55,4.55,0,0,0-3,1.3A11.49,11.49,0,0,0,60.3,16.4a13.45,13.45,0,0,0-1.24,4.82,2,2,0,0,0,.23.92.79.79,0,0,0,.77.44q1.35,0,3.77-2.83A48.09,48.09,0,0,0,67.79,14.52Z"/><path class="cls-1" d="M76.31,26.65,81.63,0h5L81.3,26.65Z"/><path class="cls-1" d="M97.21,33.32l5-25.2h5l-1.54,7.7a22.07,22.07,0,0,1,4.14-5.65,7.17,7.17,0,0,1,4.92-2.47,3.35,3.35,0,0,1,2.85,1.45,5.18,5.18,0,0,1,1.06,3.12,15,15,0,0,1-2.11,7.21,16.18,16.18,0,0,1-4.87,5.71,9.67,9.67,0,0,1-5.5,1.88,10.34,10.34,0,0,1-2.65-.42l-1.33,6.67Zm7.6-13.07-.61,3.08a5,5,0,0,0,2.34.62,4.64,4.64,0,0,0,3-1.32,11.29,11.29,0,0,0,2.75-4.32,13.46,13.46,0,0,0,1.24-4.86,2,2,0,0,0-.23-1,.83.83,0,0,0-.78-.42c-.88,0-2.12.95-3.74,2.85A49.58,49.58,0,0,0,104.81,20.25Z"/><path class="cls-1" d="M120.92,26.65l3.7-18.53h5l-3.71,18.53ZM125.24,5l.88-4.38h5L130.24,5Z"/><path class="cls-1" d="M141.26,26.48a12,12,0,0,1-3.35.49c-1.81,0-3.08-.4-3.82-1.19A3.77,3.77,0,0,1,133,23.14a14.45,14.45,0,0,1,.32-2.53l1.87-9.37h-2.82L133,8.12h2.75L136.42,5l5.11-.68-.75,3.8h3.82L144,11.24h-3.83l-1.79,9a8.32,8.32,0,0,0-.22,1.65,1.47,1.47,0,0,0,.58,1.34,2.21,2.21,0,0,0,1.18.37,5.34,5.34,0,0,0,2-.42Z"/><path class="cls-1" d="M159.78,25.44a19.11,19.11,0,0,1-7.38,1.63,6.76,6.76,0,0,1-4.68-1.65,5.8,5.8,0,0,1-1.85-4.58,13,13,0,0,1,1.72-6.35,13.31,13.31,0,0,1,4.64-5,11,11,0,0,1,5.94-1.84,14.36,14.36,0,0,1,4.54.84L162,12.07a10.23,10.23,0,0,0-4.17-1.25,5.18,5.18,0,0,0-3.2,1.14,8.41,8.41,0,0,0-2.48,3.45,11.51,11.51,0,0,0-1,4.56,3.39,3.39,0,0,0,.92,2.64,3.31,3.31,0,0,0,2.29.82,7.92,7.92,0,0,0,1.69-.23,21.1,21.1,0,0,0,2.13-.62,13.47,13.47,0,0,0,2.34-1.09Z"/><path class="cls-1" d="M164.11,26.65,169.43,0h5l-3.15,15.81a22.81,22.81,0,0,1,4.34-5.92,7,7,0,0,1,4.73-2.19,3.21,3.21,0,0,1,2.33.92,3.74,3.74,0,0,1,1,2.77,11.37,11.37,0,0,1-.24,2.22l-2.61,13h-5l2.53-12.71a3,3,0,0,0,.08-.71c0-.63-.23-.94-.71-.94q-1.19,0-3.42,2.76a55,55,0,0,0-3.92,5.46l-1.24,6.14Z"/><rect class="cls-1" x="41.23" y="166.31" width="262.29" height="2" transform="translate(-67.2 184.9) rotate(-48.35)"/></g></g></svg>