<svg xmlns="http://www.w3.org/2000/svg" viewBox="0 0 216.97 216.97"><defs><style>.icon_online_cls-1{fill:#527e7f;}.icon_online_cls-2{fill:none;}</style></defs><title>icon1_online</title><g id="レイヤー_2" data-name="レイヤー 2"><g id="レイヤー_1-2" data-name="レイヤー 1"><path class="icon_online_cls-1" d="M43.07,135.32H173.91a18.61,18.61,0,0,0,18.61-18.61V43.64A18.61,18.61,0,0,0,173.91,25H43.07A18.61,18.61,0,0,0,24.46,43.64v73.07A18.61,18.61,0,0,0,43.07,135.32ZM37.59,43.64a5.48,5.48,0,0,1,5.48-5.48H173.91a5.49,5.49,0,0,1,5.48,5.48v71a5.48,5.48,0,0,1-5.48,5.48H43.07a5.48,5.48,0,0,1-5.48-5.48Z"/><path class="icon_online_cls-1" d="M209.12,172.79l-17-23.89a7.68,7.68,0,0,0-6.47-3.3H31.34a7.67,7.67,0,0,0-6.46,3.3l-17,23.89a11.74,11.74,0,0,0,.05,13.06,15.39,15.39,0,0,0,12.88,6.53H196.2a15.35,15.35,0,0,0,12.87-6.53A11.7,11.7,0,0,0,209.12,172.79Zm-96.41,6.88H87.27a1.05,1.05,0,0,1-1-1.39L89,170.1a1.54,1.54,0,0,1,1.47-1h36a1.54,1.54,0,0,1,1.47,1l2.75,8.18a1.05,1.05,0,0,1-1,1.39Z"/><rect class="icon_online_cls-2" width="216.97" height="216.97"/></g></g></svg>