<svg xmlns="http://www.w3.org/2000/svg" viewBox="0 0 216.97 216.97"><defs><style>.icon_process_cls-1{fill:#527e7f;}.icon_process_cls-2{fill:none;}</style></defs><title>icon3_process</title><g id="レイヤー_2" data-name="レイヤー 2"><g id="レイヤー_1-2" data-name="レイヤー 1"><path class="icon_process_cls-1" d="M124.63,41.4A13.83,13.83,0,1,0,110.8,27.57,13.83,13.83,0,0,0,124.63,41.4Z"/><polygon class="icon_process_cls-1" points="165.28 169.18 125.7 169.18 125.7 145 86.15 145 86.15 120.8 46.58 120.8 46.58 96.61 12.87 96.61 12.87 106.47 34.83 106.47 34.83 130.66 74.4 130.66 74.4 154.85 113.96 154.85 113.96 179.04 153.53 179.04 153.53 203.23 204.1 203.23 204.1 193.37 165.28 193.37 165.28 169.18"/><path class="icon_process_cls-1" d="M180.26,71.51l-9.59-15.32a8.37,8.37,0,0,0-4.46-3.52l-17.35-8.09a20.21,20.21,0,0,0-19.29,1.22L102.9,62.6,87.29,55.27a5.15,5.15,0,0,0-6.93,1.82l-.2.32a5.19,5.19,0,0,0-.6,3.92,5.11,5.11,0,0,0,2.37,3.19l18.6,11.1a8.8,8.8,0,0,0,7.66.68l11-5.93,5.23,21.08-17.37-.09A9.78,9.78,0,0,0,97.43,103l5.84,30.08a6.33,6.33,0,0,0,7.16,5.06l.26,0a6.34,6.34,0,0,0,5.37-6.85l-2-21.55,26.21.61A12.42,12.42,0,0,0,152.76,95.5l-.67-3.41L146.7,61.67l13.89,2,10.17,11.79c.79.94,1.39,1.58,1.88,2.13a4.85,4.85,0,0,0,6,.63l.11-.07a4.84,4.84,0,0,0,1.79-2,4.55,4.55,0,0,0,.42-2.8A5,5,0,0,0,180.26,71.51Z"/><path class="icon_process_cls-1" d="M164.1,156.17a6.25,6.25,0,0,0,8.68.33l.18-.16a6.25,6.25,0,0,0,.62-8.64l-14.33-19.22-4-20.36c-.31.45-.63.89-1,1.31a17.89,17.89,0,0,1-13.7,6.36l-2.43-.05,4.78,15.46a29.07,29.07,0,0,0,4.76,7Z"/><rect class="icon_process_cls-2" width="216.97" height="216.97"/></g></g></svg>