<svg xmlns="http://www.w3.org/2000/svg" viewBox="0 0 216.97 216.97"><defs><style>.icon_link_cls-1{fill:#527e7f;}.icon_link_cls-2{fill:none;}</style></defs><title>icon2_link</title><g id="レイヤー_2" data-name="レイヤー 2"><g id="レイヤー_1-2" data-name="レイヤー 1"><path class="icon_link_cls-1" d="M108.48,57.43a22,22,0,1,0-21.94-22A21.95,21.95,0,0,0,108.48,57.43Z"/><path class="icon_link_cls-1" d="M108.48,98.26c15.08,0,30.52-5.23,28.11-19.68-1-5.87-5.83-14.1-9.52-17.78a4.29,4.29,0,0,0-3.23-.24,29.16,29.16,0,0,1-30.71,0,4.29,4.29,0,0,0-3.23.24c-3.68,3.68-8.54,11.91-9.52,17.78C78,93,93.41,98.26,108.48,98.26Z"/><path class="icon_link_cls-1" d="M49,162.79A21.95,21.95,0,1,0,27,140.85,21.94,21.94,0,0,0,49,162.79Z"/><path class="icon_link_cls-1" d="M67.55,166.16a4.27,4.27,0,0,0-3.22-.24,29.18,29.18,0,0,1-30.72,0,4.29,4.29,0,0,0-3.23.24c-3.68,3.68-8.54,11.91-9.52,17.78-2.41,14.46,13,19.67,28.11,19.67s30.52-5.21,28.11-19.67C76.1,178.07,71.24,169.84,67.55,166.16Z"/><path class="icon_link_cls-1" d="M168,162.79a21.95,21.95,0,1,0-21.95-21.94A21.94,21.94,0,0,0,168,162.79Z"/><path class="icon_link_cls-1" d="M196.11,183.94c-1-5.87-5.84-14.1-9.52-17.78a4.29,4.29,0,0,0-3.23-.24,29.18,29.18,0,0,1-30.72,0,4.29,4.29,0,0,0-3.23.24c-3.68,3.68-8.54,11.91-9.52,17.78-2.41,14.46,13,19.67,28.11,19.67S198.52,198.4,196.11,183.94Z"/><path class="icon_link_cls-1" d="M138.27,151.26,112.1,136.15V105.94a3.62,3.62,0,1,0-7.23,0v30.21L78.7,151.26a3.62,3.62,0,1,0,3.62,6.27l26.16-15.11,26.17,15.11a3.62,3.62,0,1,0,3.62-6.27Z"/><rect class="icon_link_cls-2" width="216.97" height="216.97"/></g></g></svg>