<svg xmlns="http://www.w3.org/2000/svg" viewBox="0 0 64.83 76.26"><defs><style>.idea_cls-1{fill:#fff;}</style></defs><title>idea</title><g id="レイヤー_2" data-name="レイヤー 2"><g id="レイヤー_1-2" data-name="レイヤー 1"><path d="M64.83,32.42A32.42,32.42,0,1,0,21.31,62.88a9.69,9.69,0,0,1,5,4.18l5.07,8.62a1.18,1.18,0,0,0,2,0l5.08-8.62a9.69,9.69,0,0,1,5-4.18A32.43,32.43,0,0,0,64.83,32.42Z"/><path class="idea_cls-1" d="M26.15,51.61,27,45.15l7.73,1.06-.88,6.46Zm2.77-10.77,1.46-20.16L31.45,13,39.18,14l-1.06,7.73-4,19.81Z"/></g></g></svg>