<svg xmlns="http://www.w3.org/2000/svg" viewBox="0 0 30.56 30.56"><defs><style>.instagram_white_cls-1{fill:#fff;}</style></defs><title>instagram_white</title><g id="レイヤー_2" data-name="レイヤー 2"><g id="レイヤー_1-2" data-name="レイヤー 1"><path class="instagram_white_cls-1" d="M15.28,0C11.13,0,10.61,0,9,.09A11.28,11.28,0,0,0,5.27.8,7.77,7.77,0,0,0,.8,5.27,11.28,11.28,0,0,0,.09,9C0,10.61,0,11.13,0,15.28s0,4.67.09,6.3A11.28,11.28,0,0,0,.8,25.29a7.85,7.85,0,0,0,4.47,4.47A11.55,11.55,0,0,0,9,30.47c1.63.07,2.15.09,6.3.09s4.67,0,6.3-.09a11.55,11.55,0,0,0,3.71-.71,7.92,7.92,0,0,0,4.47-4.47,11.55,11.55,0,0,0,.71-3.71c.07-1.63.09-2.15.09-6.3s0-4.67-.09-6.3a11.55,11.55,0,0,0-.71-3.71A7.85,7.85,0,0,0,25.29.8,11.28,11.28,0,0,0,21.58.09C20,0,19.43,0,15.28,0Zm0,2.75c4.08,0,4.56,0,6.17.09a8.49,8.49,0,0,1,2.84.53,4.91,4.91,0,0,1,1.76,1.14,4.82,4.82,0,0,1,1.14,1.76,8.49,8.49,0,0,1,.53,2.84c.07,1.61.09,2.09.09,6.17s0,4.56-.09,6.17a8.49,8.49,0,0,1-.53,2.84,5,5,0,0,1-2.9,2.9,8.49,8.49,0,0,1-2.84.53c-1.61.07-2.09.09-6.17.09s-4.56,0-6.17-.09a8.49,8.49,0,0,1-2.84-.53,4.82,4.82,0,0,1-1.76-1.14,4.91,4.91,0,0,1-1.14-1.76,8.49,8.49,0,0,1-.53-2.84c-.07-1.61-.09-2.09-.09-6.17s0-4.56.09-6.17a8.49,8.49,0,0,1,.53-2.84,5,5,0,0,1,2.9-2.9,8.49,8.49,0,0,1,2.84-.53c1.61-.07,2.09-.09,6.17-.09"/><path class="instagram_white_cls-1" d="M15.28,20.37a5.09,5.09,0,1,1,5.09-5.09,5.09,5.09,0,0,1-5.09,5.09Zm0-12.94a7.85,7.85,0,1,0,7.85,7.85,7.86,7.86,0,0,0-7.85-7.85Z"/><path class="instagram_white_cls-1" d="M25.27,7.12a1.84,1.84,0,1,1-1.83-1.83,1.83,1.83,0,0,1,1.83,1.83Z"/></g></g></svg>