<svg xmlns="http://www.w3.org/2000/svg" viewBox="0 0 46.99 46.99"><defs><style>.line_cls-1{fill:#00b900;}.line_cls-2{fill:#fff;}</style></defs><title>LINE</title><g id="レイヤー_2" data-name="レイヤー 2"><g id="レイヤー_1-2" data-name="レイヤー 1"><g id="FULL_COLOR_ICON" data-name="FULL COLOR ICON"><path class="line_cls-1" d="M44.4,0H2.58A2.59,2.59,0,0,0,0,2.59V44.42A2.59,2.59,0,0,0,2.59,47H44.4A2.59,2.59,0,0,0,47,44.4V2.58A2.59,2.59,0,0,0,44.4,0Z"/><g id="TYPE_A" data-name="TYPE A"><path class="line_cls-2" d="M40.53,21.43c0-7.66-7.68-13.89-17.11-13.89S6.31,13.77,6.31,21.43c0,6.86,6.09,12.61,14.31,13.7.56.12,1.31.36,1.51.84a3.53,3.53,0,0,1,.05,1.55s-.2,1.2-.24,1.46c-.08.43-.35,1.69,1.48.92S33.27,34.1,36.86,30h0a12.36,12.36,0,0,0,3.67-8.54"/><path class="line_cls-1" d="M19.94,17.73h-1.2a.33.33,0,0,0-.33.33v7.46a.33.33,0,0,0,.33.33h1.2a.34.34,0,0,0,.34-.33V18.06a.34.34,0,0,0-.34-.33"/><path class="line_cls-1" d="M28.2,17.73H27a.33.33,0,0,0-.33.33v4.43l-3.42-4.61,0,0h0l0,0h0l0,0h-1.4a.34.34,0,0,0-.34.33v7.46a.34.34,0,0,0,.34.33H23a.33.33,0,0,0,.33-.33V21.09l3.42,4.62.08.08h0l0,0H28.2a.34.34,0,0,0,.34-.33V18.06a.34.34,0,0,0-.34-.33"/><path class="line_cls-1" d="M17.05,24H13.79V18.06a.33.33,0,0,0-.33-.33h-1.2a.34.34,0,0,0-.34.33v7.46h0a.33.33,0,0,0,.1.23h0a.36.36,0,0,0,.23.09h4.79a.33.33,0,0,0,.33-.33v-1.2a.34.34,0,0,0-.33-.34"/><path class="line_cls-1" d="M34.83,19.6a.34.34,0,0,0,.33-.34v-1.2a.33.33,0,0,0-.33-.33H30a.39.39,0,0,0-.24.09h0a.33.33,0,0,0-.1.23h0v7.46h0a.33.33,0,0,0,.1.23h0a.36.36,0,0,0,.23.09h4.79a.33.33,0,0,0,.33-.33v-1.2a.34.34,0,0,0-.33-.34H31.57V22.72h3.26a.33.33,0,0,0,.33-.33v-1.2a.33.33,0,0,0-.33-.33H31.57V19.6Z"/></g></g></g></g></svg>