<svg xmlns="http://www.w3.org/2000/svg" xmlns:xlink="http://www.w3.org/1999/xlink" viewBox="0 0 284.53 114.27"><defs><style>.matching_cls-1{fill:url(#名称未設定グラデーション_47);}.matching_cls-2{fill:#0e0f0d;}</style><linearGradient id="名称未設定グラデーション_47" y1="57.13" x2="284.53" y2="57.13" gradientTransform="translate(14.72 -27.93) rotate(11.82)" gradientUnits="userSpaceOnUse"><stop offset="0" stop-color="#d8ff6c"/><stop offset="1" stop-color="#89c9c9"/></linearGradient></defs><title>matching</title><g id="レイヤー_2" data-name="レイヤー 2"><g id="レイヤー_1-2" data-name="レイヤー 1"><rect class="matching_cls-1" x="3.04" y="27.9" width="278.45" height="58.47" transform="translate(-8.69 30.35) rotate(-11.82)"/><path class="matching_cls-2" d="M84.93,66.16l.59-5.7-.24,0-1.63,4.91L78.12,77l-1.59.34L70.77,68l-1.59-4.11-.2,0,.73,5.39,0,14.71-4.77,1L65,56.72l4.45-.94,6.66,11.54,1.15,3,.2,0,1.11-3.55L85.1,52.5l4.84-1,0,28.3-5,1Z"/><path class="matching_cls-2" d="M109.41,67.62a26.51,26.51,0,0,0,.18,3.08c.12,1,.27,2,.46,2.89q.12.54.24,1t.24.9l-3.52.74L105.77,73l-.15,0a7.66,7.66,0,0,1-.82,1.61,11.31,11.31,0,0,1-1.23,1.55A7.34,7.34,0,0,1,102,77.47a5.37,5.37,0,0,1-1.81.72,4.45,4.45,0,0,1-4.12-.87A7.51,7.51,0,0,1,94,73.12a20.3,20.3,0,0,1-.42-5.57,13.37,13.37,0,0,1,1.27-5,11.34,11.34,0,0,1,3.15-4,12.22,12.22,0,0,1,5.23-2.33,21.5,21.5,0,0,1,3-.37,29.45,29.45,0,0,1,3.26,0Zm-8.19,6.24a3,3,0,0,0,1.25-.56,5.21,5.21,0,0,0,1-1,7.09,7.09,0,0,0,.71-1.21c.2-.42.36-.81.51-1.16l0-9.49a4.31,4.31,0,0,0-1-.08,6.86,6.86,0,0,0-1.12.13,4,4,0,0,0-2.3,1.36,7.26,7.26,0,0,0-1.39,2.56,11.8,11.8,0,0,0-.5,3.28,15.59,15.59,0,0,0,.33,3.49,5.41,5.41,0,0,0,.85,2.08A1.51,1.51,0,0,0,101.22,73.86Z"/><path class="matching_cls-2" d="M111.74,55l2.52-.53v-3.8L119,48.19l0,5.29,4.53-.94-.07,4.13-4.49.94,0,9.21a7.83,7.83,0,0,0,.13,1.76,1.48,1.48,0,0,0,.63,1.09,1.88,1.88,0,0,0,1.23.07,4.85,4.85,0,0,0,1.3-.45,5.46,5.46,0,0,0,1.14-.79l.75,3.56a8.13,8.13,0,0,1-.93.66,8.82,8.82,0,0,1-1.23.62,14.24,14.24,0,0,1-1.39.51,10.28,10.28,0,0,1-1.33.36,4.6,4.6,0,0,1-3.23-.27,3.53,3.53,0,0,1-1.65-2.55,6.94,6.94,0,0,1-.11-.83c0-.29,0-.6-.06-.92l0-11-2.59.54Z"/><path class="matching_cls-2" d="M137.78,54.12a5.26,5.26,0,0,0-1.65-.26,9.35,9.35,0,0,0-1.75.21,3.55,3.55,0,0,0-1.89,1.1,7.21,7.21,0,0,0-1.41,2.16,8.92,8.92,0,0,0-.72,2.83,10.21,10.21,0,0,0,.17,3.12A4.7,4.7,0,0,0,132,66.11a2.83,2.83,0,0,0,2.46.55,6.11,6.11,0,0,0,2.07-.82,10.32,10.32,0,0,0,1.59-1.2l1.57,3.07a11.39,11.39,0,0,1-2.57,2.13A9.76,9.76,0,0,1,134,71.13a8.34,8.34,0,0,1-3.27.11,5.82,5.82,0,0,1-2.42-1,6.34,6.34,0,0,1-1.65-1.88,8.41,8.41,0,0,1-.91-2.44,17.46,17.46,0,0,1-.29-6A13.8,13.8,0,0,1,127,55.07a10.89,10.89,0,0,1,2.92-3.44,9.16,9.16,0,0,1,3.8-1.79,9.77,9.77,0,0,1,3-.26,14.6,14.6,0,0,1,2.08.38Z"/><path class="matching_cls-2" d="M153.62,66.45l0-11.43a12.61,12.61,0,0,0-.2-2.89,2.24,2.24,0,0,0-.69-1.37,1.56,1.56,0,0,0-1.29-.19,3.17,3.17,0,0,0-1.45.79,7.83,7.83,0,0,0-1.31,1.48,13.49,13.49,0,0,0-1,1.76,8.15,8.15,0,0,0-.6,1.64l0,11.57-4.77,1,.06-28.31,4.76-1-.1,11.66.15,0a14.94,14.94,0,0,1,.95-1.57A11.14,11.14,0,0,1,149.49,48a9.87,9.87,0,0,1,1.69-1.36,6.29,6.29,0,0,1,2.15-.85,4.27,4.27,0,0,1,3.08.32,4.42,4.42,0,0,1,1.71,3.08,18.79,18.79,0,0,1,.3,3.73l0,12.58Z"/><path class="matching_cls-2" d="M162.82,38.57a2.45,2.45,0,0,1,.42-2.14,3.16,3.16,0,0,1,2-1.14,3.31,3.31,0,0,1,2.25.25,2.69,2.69,0,0,1,.82,3.93,3.25,3.25,0,0,1-2,1.16,3.19,3.19,0,0,1-2.26-.27A2.53,2.53,0,0,1,162.82,38.57Zm.38,5.66,4.76-1-.05,20.22-4.76,1Z"/><path class="matching_cls-2" d="M183.59,60.17l.06-12.48a9,9,0,0,0-.17-1.93,2.21,2.21,0,0,0-.62-1.26,1.52,1.52,0,0,0-1.38-.21,3.12,3.12,0,0,0-1.32.64,5.9,5.9,0,0,0-1.13,1.2,10.66,10.66,0,0,0-1.51,3.17l-.05,12.16-4.76,1,0-20.22,3.6-.75.52,3.45.16,0q.38-.72.9-1.56a9.6,9.6,0,0,1,1.3-1.6,9.06,9.06,0,0,1,1.8-1.39,7.56,7.56,0,0,1,2.41-.91,3.59,3.59,0,0,1,4.69,3.3c.09.39.15.8.21,1.25a9,9,0,0,1,0,1.49l0,13.71Z"/><path class="matching_cls-2" d="M208,55.08a15.07,15.07,0,0,1-.55,4.13,8.6,8.6,0,0,1-1.5,3,7.63,7.63,0,0,1-2.42,2,13.19,13.19,0,0,1-3.3,1.13,13.88,13.88,0,0,1-2.46.31,13.66,13.66,0,0,1-2-.07,12.73,12.73,0,0,1-1.53-.26,8,8,0,0,1-1.06-.33l1-3.89.89.2a10,10,0,0,0,1.16.22,8.42,8.42,0,0,0,1.47.07,10.76,10.76,0,0,0,1.86-.25,4.09,4.09,0,0,0,2.83-1.85,7.27,7.27,0,0,0,1-3.65l.1-3.19-.15,0a9.33,9.33,0,0,1-1.9,3,5.91,5.91,0,0,1-3.23,1.82,4.26,4.26,0,0,1-3.72-.85,6.59,6.59,0,0,1-2.18-3.93,18.66,18.66,0,0,1-.32-5.78,15.22,15.22,0,0,1,1.43-5.07,11.86,11.86,0,0,1,3-3.83,9.82,9.82,0,0,1,4.38-2.09,19.2,19.2,0,0,1,4.21-.46,15.7,15.7,0,0,1,3,.32Zm-4.64-15.2a3.2,3.2,0,0,0-1.15-.08,11.83,11.83,0,0,0-1.33.19,4.05,4.05,0,0,0-2.15,1.23,6.43,6.43,0,0,0-1.41,2.41,11.2,11.2,0,0,0-.59,3.27,14.93,14.93,0,0,0,.33,3.82A3.52,3.52,0,0,0,198,52.6a1.64,1.64,0,0,0,1.53.45,2.72,2.72,0,0,0,1.27-.69A7,7,0,0,0,201.87,51a8.31,8.31,0,0,0,.85-1.62,12.67,12.67,0,0,0,.52-1.59Z"/><path class="matching_cls-2" d="M214.07,51.13a2.88,2.88,0,0,1,.4-2.33,3.69,3.69,0,0,1,4.53-.95,2.87,2.87,0,0,1,1.31,2,2.94,2.94,0,0,1-.4,2.35,3.26,3.26,0,0,1-2.12,1.29,3.2,3.2,0,0,1-2.41-.34A3,3,0,0,1,214.07,51.13Zm.4-25.71,5-1-.05,13.31-1,6.79-3,.63-1-6.39Z"/></g></g></svg>