<svg xmlns="http://www.w3.org/2000/svg" viewBox="0 0 646.52 597.68"><defs><style>.oic2020_logo_cls-1{fill:#fff;}.cls-2{fill:#0e0f0d;}</style></defs><g id="レイヤー_2" data-name="レイヤー 2"><g id="レイヤー_1-2" data-name="レイヤー 1"><path class="oic2020_logo_cls-1" d="M108.47,44c0,19.26-6.73,37.88-18.78,49.78-9.86,9.55-23.17,15.18-39,15.18C23.32,108.94,8,89.53,8,65c0-19.1,7-38,19.41-49.93A55.23,55.23,0,0,1,65.9,0C93.76,0,108.47,18.78,108.47,44ZM45.08,26.77c-8.45,8.29-13.15,24.73-13.15,37.4,0,14.87,6.73,26,22.07,26a25.76,25.76,0,0,0,17.69-7.67C80,74.19,84.52,56.82,84.52,44.61c0-13.15-4.69-25.83-21.28-25.83A25,25,0,0,0,45.08,26.77Z"/><path class="oic2020_logo_cls-1" d="M113.79,107.22l20-105.5h26.45L174.21,42c4.23,13.46,7,24.42,9.55,36h.47c.47-10.8,1.88-22.38,4.85-37.88l7.2-38.35h21l-19.88,105.5H174.06L159.34,65.11A332.58,332.58,0,0,1,149,28.33l-.47.16c-1.25,10.17-3.75,25.2-6.88,41.79l-6.89,36.94Z"/><path class="oic2020_logo_cls-1" d="M238.08,1.72h22.54L244.34,87.5h40.54l-3.76,19.72H218Z"/><path class="oic2020_logo_cls-1" d="M336.38,1.72l-20,105.5H293.8l20-105.5Z"/><path class="oic2020_logo_cls-1" d="M337.16,107.22l20-105.5h26.46L397.58,42c4.22,13.46,7,24.42,9.54,36h.48c.46-10.8,1.87-22.38,4.85-37.88l7.2-38.35h21l-19.88,105.5H397.42L382.71,65.11a328.26,328.26,0,0,1-10.33-36.78l-.47.16c-1.25,10.17-3.76,25.2-6.89,41.79l-6.89,36.94Z"/><path class="oic2020_logo_cls-1" d="M510,62.45H472.4L467.54,88h42.11l-3.6,19.25H441.41l20-105.5h62.45L520.14,21H480.38L476,43.51h37.56Z"/><path class="oic2020_logo_cls-1" d="M45.55,162.39l-20,105.5H3l20-105.5Z"/><path class="oic2020_logo_cls-1" d="M46.33,267.89l20-105.5H92.82l13.93,40.23c4.23,13.46,7,24.41,9.55,36h.47c.47-10.8,1.88-22.39,4.85-37.88l7.2-38.35h21l-19.87,105.5H106.59L91.88,225.78A330.41,330.41,0,0,1,81.55,189l-.47.16c-1.25,10.17-3.76,25.2-6.89,41.79L67.3,267.89Z"/><path class="oic2020_logo_cls-1" d="M186,182.11H158.09L162,162.39h78.42l-3.75,19.72H208.49l-16.12,85.78H169.83Z"/><path class="oic2020_logo_cls-1" d="M301.62,223.12H264.06l-4.85,25.51h42.1l-3.6,19.26H233.07l20-105.5h62.46l-3.76,19.25H272l-4.38,22.54h37.57Z"/><path class="oic2020_logo_cls-1" d="M333.87,164.42c7.05-1.72,17.69-2.81,28.18-2.81,10,0,20.34,1.56,27.7,6.1a22.88,22.88,0,0,1,11.74,20.66c0,15.65-10.49,25.36-23.95,29.74v.63c6.26,2.66,8.92,9.7,10,19.25,1.25,11.74,2.19,25.51,4.07,29.9H368.46c-.93-2.82-2-11.9-3.13-24.89-.94-12.84-5.32-16.75-14.24-16.75H344.2l-7.82,41.64H314Zm13.62,44.93h9.39c12.21,0,21.13-7.36,21.13-17.69,0-8.45-7.2-12.21-16.12-12.21a36.88,36.88,0,0,0-8.77.78Z"/><path class="oic2020_logo_cls-1" d="M405.25,267.89l20-105.5h26.45l13.93,40.23c4.22,13.46,7,24.41,9.55,36h.47a254.58,254.58,0,0,1,4.85-37.88l7.2-38.35h21l-19.88,105.5H465.51L450.8,225.78A330.41,330.41,0,0,1,440.47,189l-.47.16c-1.25,10.17-3.76,25.2-6.89,41.79l-6.89,36.94Z"/><path class="oic2020_logo_cls-1" d="M82.64,425.58c-5.63,2.5-15.18,4.54-27.86,4.54-27.86,0-46.64-16.91-46.64-44.77,0-23.63,10.64-42.1,26.61-52.74,11-7.67,24-11.27,38.82-11.27,11.42,0,20,2.66,23,4.54l-6.11,18.31c-3.13-1.57-10-3.45-19.09-3.45s-17.69,2.82-24.11,8.14c-8.92,7.2-14.56,19.26-14.56,34,0,16.75,9.4,28,28,28,7.36,0,14.72-1.25,20-3.45Z"/><path class="oic2020_logo_cls-1" d="M196,365.32c0,19.25-6.73,37.88-18.78,49.77-9.86,9.55-23.17,15.19-39,15.19-27.39,0-42.73-19.41-42.73-44,0-19.09,7-38,19.41-49.93a55.27,55.27,0,0,1,38.51-15C181.26,321.34,196,340.12,196,365.32ZM132.58,348.1c-8.45,8.3-13.15,24.73-13.15,37.41,0,14.87,6.73,26,22.07,26a25.72,25.72,0,0,0,17.69-7.67C167.49,395.53,172,378.15,172,366c0-13.15-4.69-25.83-21.28-25.83A25,25,0,0,0,132.58,348.1Z"/><path class="oic2020_logo_cls-1" d="M201.3,428.55l20-105.49h26.45l13.93,40.22c4.23,13.47,7.05,24.42,9.55,36h.47c.47-10.8,1.88-22.38,4.85-37.87l7.21-38.35h21L284.88,428.55H261.56l-14.72-42.1a332.58,332.58,0,0,1-10.33-36.78l-.47.15c-1.25,10.18-3.75,25.2-6.88,41.8l-6.89,36.93Z"/><path class="oic2020_logo_cls-1" d="M340.92,342.78H313.06L317,323.06h78.42l-3.76,19.72H363.46l-16.13,85.77H324.79Z"/><path class="oic2020_logo_cls-1" d="M456.59,383.79H419l-4.86,25.51h42.11l-3.6,19.25H388l20-105.49h62.45l-3.75,19.25H427l-4.39,22.54h37.57Z"/><path class="oic2020_logo_cls-1" d="M473.5,404.14a49.64,49.64,0,0,0,24.88,6.73c8.77,0,16.75-4.07,16.75-12.37,0-5.95-4.54-9.86-14.24-14.87-11.27-6.1-21.91-14.24-21.91-28,0-21.28,18.62-34.27,41.63-34.27,12.84,0,20.35,2.81,24.89,5.32l-7,18.78a42.09,42.09,0,0,0-19.73-4.7c-10.48,0-16,5.33-16,11.12,0,6.1,6.42,9.86,15.34,14.87,12.83,6.73,21,15.34,21,27.86,0,23.48-19.41,35.53-42.89,35.53-14.71,0-25.2-3.76-30.21-7.51Z"/><path class="oic2020_logo_cls-1" d="M584.16,342.78H556.3l3.91-19.72h78.42l-3.75,19.72H606.7l-16.12,85.77H568Z"/><path class="oic2020_logo_cls-1" d="M0,589.22l2.66-14.55,21.91-16.91c20.35-16.59,33.5-28.49,33.5-40.7,0-7.2-5-12.36-14.09-12.36a40,40,0,0,0-21.44,5.95L18,494.53a62.79,62.79,0,0,1,31.46-8.77c20.66,0,31.78,12.05,31.78,27.7,0,20.82-16.6,35.22-34.6,49l-10,7.2V570H73.1l-3.6,19.25Z"/><path class="oic2020_logo_cls-1" d="M168.26,520.67c0,31.77-15.33,70.27-47.42,70.27-21.13,0-29.43-16.27-29.43-36.62,0-32.09,16.28-68.56,47.58-68.56C160.91,485.76,168.26,502.51,168.26,520.67ZM113.48,555.1c0,7.51,1.25,18,10.17,18,15.5,0,22.39-38.82,22.39-52.28,0-6.73-.94-17.22-9.55-17.22C121.31,503.6,113.48,540.23,113.48,555.1Z"/><path class="oic2020_logo_cls-1" d="M169.36,589.22,172,574.67l21.92-16.91c20.34-16.59,33.49-28.49,33.49-40.7,0-7.2-5-12.36-14.09-12.36a40,40,0,0,0-21.44,5.95l-4.54-16.12a62.79,62.79,0,0,1,31.46-8.77c20.66,0,31.78,12.05,31.78,27.7,0,20.82-16.59,35.22-34.6,49l-10,7.2V570h36.47l-3.6,19.25Z"/><path class="oic2020_logo_cls-1" d="M337.62,520.67c0,31.77-15.33,70.27-47.42,70.27-21.13,0-29.43-16.27-29.43-36.62,0-32.09,16.28-68.56,47.58-68.56C330.27,485.76,337.62,502.51,337.62,520.67ZM282.84,555.1c0,7.51,1.25,18,10.18,18,15.49,0,22.38-38.82,22.38-52.28,0-6.73-.94-17.22-9.55-17.22C290.67,503.6,282.84,540.23,282.84,555.1Z"/><path class="oic2020_logo_cls-1" d="M375.35,589.22l8.92-28H371.43l2.35-14.09h15l5.79-18H381.29L383.64,515H399l8.77-27.55h13.62L412.6,515h13.77l8.77-27.55h13.77L440.15,515h12.68l-2.35,14.09H435.77l-5.64,18h13l-2.35,14.09H425.43l-8.76,28H402.74l8.92-28H398l-8.76,28Zm40.85-42.1,5.79-18H408.37l-5.63,18Z"/><path class="cls-2" d="M57.39,115.67c-26.15,0-43.73-18.07-43.73-45C13.66,50.85,21,31.92,33.38,20A56.42,56.42,0,0,1,72.58,4.73c26.88,0,43.57,17.24,43.57,45,0,19.82-7.13,38.69-19.08,50.48C86.62,110.33,72.9,115.67,57.39,115.67ZM72.58,6.73A54.46,54.46,0,0,0,34.76,21.48c-12,11.51-19.1,29.9-19.1,49.21,0,25.71,16.77,43,41.73,43,15,0,28.22-5.15,38.28-14.9,11.57-11.42,18.48-29.76,18.48-49C114.15,23.2,98.22,6.73,72.58,6.73ZM60.68,96.89c-14.66,0-23.07-9.83-23.07-27,0-12.38,4.62-29.45,13.44-38.12a25.91,25.91,0,0,1,18.87-8.28C84.29,23.51,92.2,33,92.2,50.34c0,12.34-4.6,30.06-13.12,38.59C73.77,94.07,67.24,96.89,60.68,96.89Zm9.24-71.38a23.93,23.93,0,0,0-17.44,7.68l0,0C44,41.49,39.61,57.94,39.61,69.91c0,15.87,7.68,25,21.07,25,6,0,12.07-2.62,17-7.39C85.81,79.37,90.2,62.28,90.2,50.34,90.2,39,86.68,25.51,69.92,25.51Z"/><path class="cls-2" d="M204.89,114H180L165.08,71.18c-4-12.11-6.79-21.29-9.41-32.65-1.33,9.64-3.54,22.79-6.35,37.67l-7,37.75h-23L139.68,6.45h28l14.17,40.9c3.42,10.89,6,20.36,8.39,30.78a275.56,275.56,0,0,1,4.55-32.52l7.35-39.16h23Zm-23.44-2h21.78l19.5-103.5H203.79l-7,37.54a255.18,255.18,0,0,0-4.84,37.73l0,1h-2.24l-.17-.79C186.75,71.34,183.9,60.6,179.94,48L166.25,8.45H141.34L121.68,112h18.94l6.73-36.12c3.23-17.13,5.68-31.95,6.88-41.73l.08-.63,2.12-.71.24,1.09A331.93,331.93,0,0,0,167,70.53Z"/><path class="cls-2" d="M288.63,114H223.51L243.93,6.45H268.5L252.23,92.23h40.54Zm-62.7-2h61l3.38-17.72H249.81L266.09,8.45h-20.5Z"/><path class="cls-2" d="M323.85,114H299.27L319.69,6.45h24.57Zm-22.16-2h20.5L341.85,8.45h-20.5Z"/><path class="cls-2" d="M428.25,114H403.39L388.44,71.18c-4-12.11-6.78-21.29-9.41-32.65-1.32,9.64-3.54,22.79-6.35,37.67l-7,37.75h-23L363.05,6.45h28l14.16,40.9c3.42,10.88,6,20.35,8.39,30.78a277.39,277.39,0,0,1,4.55-32.52L425.5,6.45h23Zm-23.44-2h21.78L446.1,8.45H427.16L420.11,46a255.18,255.18,0,0,0-4.84,37.73l0,1H413l-.17-.79c-2.72-12.56-5.57-23.3-9.53-35.91L389.62,8.45H364.7L345.05,112H364l6.74-36.12C374,58.7,376.39,43.88,377.6,34.1l.07-.63,2.13-.71.23,1.09a334.22,334.22,0,0,0,10.31,36.68Z"/><path class="cls-2" d="M513.56,114H446.88L467.29,6.45h64.5l-4.15,21.26H487.88l-4,20.54h37.56l-4,20.94H479.91L475.43,92.7h42.1Zm-64.27-2H511.9l3.23-17.25H473l5.23-27.51h37.57L519,50.25H481.46l4.78-24.54H526l3.37-17.26H469Z"/><path class="cls-2" d="M33,274.62H8.45l20.41-107.5H53.44Zm-22.16-2H31.37L51,169.12H30.52Z"/><path class="cls-2" d="M137.42,274.62H112.56L97.62,231.84c-4-12.1-6.79-21.28-9.42-32.64-1.32,9.64-3.54,22.79-6.34,37.67l-7,37.75h-23l20.42-107.5h28L114.37,208c3.42,10.87,6,20.35,8.4,30.77a275.14,275.14,0,0,1,4.55-32.51l7.35-39.16h23Zm-23.44-2h21.79l19.5-103.5H136.33l-7.05,37.54a253.53,253.53,0,0,0-4.83,37.73l0,1h-2.23l-.17-.79c-2.72-12.56-5.57-23.3-9.52-35.91L98.79,169.12H73.88L54.22,272.62H73.15l6.74-36.12c3.23-17.13,5.67-31.95,6.88-41.73l.07-.63,2.13-.71.24,1.09a331.93,331.93,0,0,0,10.3,36.68Z"/><path class="cls-2" d="M199.88,274.62H175.3l16.13-85.78H163.55l4.31-21.72h80.45l-4.14,21.72H216Zm-22.17-2h20.51l16.12-85.78h28.18l3.37-17.72H169.5L166,186.84h27.85Z"/><path class="cls-2" d="M305.22,274.62H238.54L259,167.12h64.49l-4.15,21.25H279.55l-4,20.54h37.56l-4,20.94H271.57l-4.47,23.52h42.1Zm-64.26-2h62.6l3.23-17.25H264.68l5.23-27.52h37.57l3.22-16.94H273.13l4.77-24.54h39.76L321,169.12H260.61Z"/><path class="cls-2" d="M399.83,274.62H374.42l-.22-.68c-1.18-3.52-2.38-15.61-3.18-25.12-1-13.25-5.59-15.84-13.25-15.84h-6.06l-7.82,41.64H319.46l.23-1.19,20-104.09.63-.16c7.18-1.75,18.06-2.84,28.41-2.84,8.25,0,19.85,1.08,28.23,6.25a23.86,23.86,0,0,1,12.21,21.51c0,13.94-8.4,24.86-23.11,30.17,5.07,2.92,8,9.13,9.17,19.34.27,2.55.53,5.18.79,7.79.88,9.11,1.8,18.53,3.21,21.83Zm-23.93-2h21c-1.24-4.23-2-12.41-2.87-21-.26-2.61-.51-5.24-.78-7.77-1.19-10.35-4.18-16.21-9.42-18.44l-.61-.26v-2l.69-.23c20.24-6.59,23.26-20.86,23.26-28.79a22,22,0,0,0-11.25-19.8c-8-4.93-19.2-6-27.19-6-9.9,0-20.28,1-27.32,2.64L321.88,272.62h20.35L350.05,231h7.72c10,0,14.31,5,15.24,17.68C374.05,261,375.06,269.37,375.9,272.62Zm-12.34-56.54H353l6-30.93.62-.15a37.7,37.7,0,0,1,9-.82c10.56,0,17.12,5.06,17.12,13.21C385.69,208.22,376.38,216.08,363.56,216.08Zm-8.18-2h8.18c11.67,0,20.13-7,20.13-16.69,0-7-5.65-11.21-15.12-11.21a40.19,40.19,0,0,0-7.91.61Z"/><path class="cls-2" d="M496.34,274.62H471.48l-15-42.78c-4-12.1-6.78-21.28-9.41-32.64-1.33,9.64-3.54,22.8-6.35,37.67l-7,37.75h-23l20.42-107.5h28L473.29,208c3.42,10.88,6,20.35,8.39,30.77a275.36,275.36,0,0,1,4.56-32.51l7.35-39.16h23Zm-23.44-2h21.78l19.51-103.5H495.25l-7.05,37.54a254.85,254.85,0,0,0-4.84,37.73l0,1h-2.23l-.17-.79c-2.72-12.56-5.56-23.3-9.53-35.91l-13.68-39.53H432.79l-19.65,103.5h18.93l6.74-36.12c3.23-17.12,5.67-31.94,6.88-41.73l.07-.63,2.13-.71.23,1.09a334.22,334.22,0,0,0,10.31,36.68Z"/><path class="cls-2" d="M61.46,436.85c-28.94,0-47.64-18-47.64-45.76,0-22.59,9.86-42.12,27.05-53.58,10.84-7.59,24.09-11.44,39.38-11.44,11.82,0,20.55,2.81,23.54,4.69l.66.42-6.71,20.15-1-.52c-3.08-1.54-9.81-3.33-18.64-3.33-9,0-17.32,2.81-23.47,7.91-9,7.28-14.2,19.38-14.2,33.19,0,17.17,9.85,27,27,27,7.29,0,14.46-1.23,19.66-3.37l1.23-.51,2.09,20.21-.66.3C83.12,435.17,72.81,436.85,61.46,436.85ZM80.25,328.07c-14.87,0-27.74,3.73-38.25,11.09-16.64,11.09-26.18,30-26.18,51.93,0,26.58,17.92,43.76,45.64,43.76,10.71,0,20.41-1.51,26.79-4.17l-1.66-16.12a57.9,57.9,0,0,1-19.18,3c-18.17,0-29-10.85-29-29,0-14.42,5.45-27.09,14.93-34.74,6.5-5.39,15.29-8.36,24.74-8.36,8.3,0,14.89,1.56,18.49,3.07l5.5-16.48C98.79,330.38,90.74,328.07,80.25,328.07Z"/><path class="cls-2" d="M144.9,437c-26.16,0-43.74-18.08-43.74-45,0-19.85,7.37-38.78,19.72-50.66a56.42,56.42,0,0,1,39.2-15.3c26.88,0,43.57,17.23,43.57,45,0,19.82-7.13,38.7-19.08,50.49C174.12,431.66,160.4,437,144.9,437Zm15.18-108.94a54.46,54.46,0,0,0-37.82,14.75c-12,11.5-19.1,29.9-19.1,49.21,0,25.71,16.77,43,41.74,43,15,0,28.21-5.15,38.27-14.9,11.57-11.42,18.48-29.76,18.48-49.06C201.65,344.54,185.72,328.07,160.08,328.07Zm-11.9,90.16c-14.66,0-23.07-9.84-23.07-27,0-12.38,4.62-29.44,13.44-38.11a25.88,25.88,0,0,1,18.87-8.28c14.37,0,22.29,9.53,22.29,26.83,0,12.34-4.61,30.06-13.13,38.58C161.27,415.4,154.74,418.23,148.18,418.23Zm9.24-71.38A24,24,0,0,0,140,354.53l0,0c-8.43,8.28-12.85,24.72-12.85,36.69,0,15.88,7.68,25,21.07,25,6,0,12.07-2.63,17-7.39,8.14-8.14,12.54-25.22,12.54-37.16C177.71,360.35,174.19,346.85,157.42,346.85Z"/><path class="cls-2" d="M292.39,435.29H267.53l-14.95-42.78c-4-12.1-6.79-21.28-9.41-32.64-1.33,9.64-3.54,22.79-6.35,37.66l-7,37.76h-23l20.41-107.5h28l14.16,40.9c3.41,10.88,6,20.35,8.39,30.77A275.14,275.14,0,0,1,282.28,367l7.35-39.16h23Zm-23.44-2h21.78l19.5-103.5H291.29l-7,37.53a255.13,255.13,0,0,0-4.84,37.74l0,1h-2.23l-.17-.79c-2.72-12.56-5.57-23.3-9.53-35.91l-13.69-39.53H228.84l-19.66,103.5h18.94l6.73-36.13c3.23-17.11,5.68-31.93,6.88-41.73l.08-.62,2.13-.71.23,1.09a332,332,0,0,0,10.31,36.68Z"/><path class="cls-2" d="M354.84,435.29H330.27l16.12-85.78H318.52l4.31-21.72h80.45l-4.14,21.72H371Zm-22.16-2h20.51l16.12-85.78h28.17l3.38-17.72H324.47L321,347.51H348.8Z"/><path class="cls-2" d="M460.19,435.29H393.5l20.42-107.5h64.5L474.27,349H434.51l-4,20.54h37.56l-4,20.94H426.53L422.06,414h42.1Zm-64.27-2h62.61L461.75,416h-42.1l5.23-27.51h37.56l3.22-16.94H428.09L432.86,347h39.76L476,329.79H415.58Z"/><path class="cls-2" d="M502.88,436.85c-15.14,0-25.84-4-30.81-7.71l-.62-.46,8.24-20.27,1,.6a48.64,48.64,0,0,0,24.38,6.59c7.83,0,15.74-3.52,15.74-11.37,0-5.1-3.58-8.76-13.7-14-10.46-5.67-22.45-14.06-22.45-28.9,0-20.77,17.53-35.28,42.63-35.28,10.43,0,18.73,1.78,25.37,5.44l.76.42-7.75,20.67-1-.55a41.17,41.17,0,0,0-19.23-4.57c-7.22,0-15,3.16-15,10.11,0,5.4,5.63,8.84,14.83,14,14.45,7.57,21.48,17,21.48,28.73C546.76,422.51,529.54,436.85,502.88,436.85Zm-29-8.86c5,3.4,15,6.86,29,6.86,25.44,0,41.88-13.55,41.88-34.53,0-11.09-6.49-19.66-20.44-27-8.53-4.79-15.87-8.92-15.87-15.76,0-5.83,5.31-12.11,17-12.11a43.56,43.56,0,0,1,19.19,4.29l6.34-16.91c-6.22-3.22-14-4.79-23.65-4.79-23.92,0-40.63,13.68-40.63,33.28,0,13.78,11.43,21.74,21.39,27.14,9.34,4.82,14.76,8.95,14.76,15.74,0,9.24-8.91,13.37-17.74,13.37a51,51,0,0,1-24.4-6.29Z"/><path class="cls-2" d="M598.09,435.29H573.52l16.12-85.78H561.76l4.31-21.72h80.45l-4.14,21.72H614.21Zm-22.16-2h20.5l16.12-85.78h28.18l3.38-17.72H567.72l-3.52,17.72h27.85Z"/><path class="cls-2" d="M77,596H5.48l2.95-16.12L30.64,562.7C50,546.9,63.75,534.78,63.75,522.8c0-7-5-11.37-13.09-11.37a39.12,39.12,0,0,0-20.91,5.8l-1.13.7L23.51,499.8l.65-.39a63.46,63.46,0,0,1,32-8.92c19.91,0,32.78,11.27,32.78,28.71,0,21.25-16.55,35.68-35,49.78l-8,5.72H81ZM7.88,594H75.35l3.22-17.26H42.31v-1.82l10.43-7.5c18-13.78,34.18-27.84,34.18-48.18,0-16.23-12.08-26.71-30.78-26.71a61.69,61.69,0,0,0-30.29,8.23l4,14.13a41.23,41.23,0,0,1,20.83-5.42c9.17,0,15.09,5.25,15.09,13.37,0,12.86-14,25.3-33.86,41.47L10.26,581Z"/><path class="cls-2" d="M127.52,597.68c-19.34,0-30.43-13.72-30.43-37.63,0-17,4.45-34.08,12.2-46.83,9-14.87,21.62-22.73,36.38-22.73,19.24,0,30.28,13.09,30.28,35.91C176,561,159,597.68,127.52,597.68Zm18.15-105.19C128,492.49,117,504.33,111,514.26c-7.57,12.44-11.91,29.13-11.91,45.79,0,31,17.81,35.63,28.43,35.63,30.15,0,46.43-35.7,46.43-69.28C174,496.9,156.23,492.49,145.67,492.49Zm-15.34,87.34c-7.41,0-11.17-6.39-11.17-19,0-15.7,8.17-52.49,24-52.49,7,0,10.55,6.12,10.55,18.21C153.72,541.23,146.53,579.83,130.33,579.83Zm12.84-69.49c-8.21,0-13.71,12.21-16.25,19.5-4,11.3-5.76,24-5.76,31,0,11.44,3,17,9.17,17,13.9,0,21.39-36.39,21.39-51.28C151.72,515.64,148.92,510.34,143.17,510.34Z"/><path class="cls-2" d="M246.37,596H174.84l2.95-16.12L200,562.7c19.38-15.8,33.11-27.92,33.11-39.9,0-7-5-11.37-13.09-11.37a39.14,39.14,0,0,0-20.91,5.8l-1.13.7-5.11-18.13.65-.39a63.46,63.46,0,0,1,32-8.92c19.91,0,32.78,11.27,32.78,28.71,0,21.25-16.55,35.68-35,49.78l-7.95,5.72h35Zm-69.13-2h67.47l3.22-17.26H211.67v-1.82l10.43-7.5c18-13.78,34.18-27.84,34.18-48.18,0-16.23-12.08-26.71-30.78-26.71a61.66,61.66,0,0,0-30.29,8.23l4,14.13A41.25,41.25,0,0,1,220,509.43c9.17,0,15.09,5.25,15.09,13.37,0,12.86-14,25.3-33.86,41.47L179.62,581Z"/><path class="cls-2" d="M296.88,597.68c-19.34,0-30.43-13.72-30.43-37.63,0-17,4.45-34.08,12.2-46.83,9-14.87,21.62-22.73,36.39-22.73,19.23,0,30.26,13.09,30.26,35.91C345.3,561,328.33,597.68,296.88,597.68ZM315,492.49c-17.73,0-28.64,11.84-34.68,21.77-7.57,12.44-11.91,29.13-11.91,45.79,0,31,17.81,35.63,28.43,35.63,30.15,0,46.42-35.7,46.42-69.28C343.3,496.9,325.59,492.49,315,492.49ZM299.7,579.83c-7.42,0-11.18-6.39-11.18-19,0-15.7,8.17-52.49,24-52.49,7,0,10.55,6.12,10.55,18.21C323.08,541.23,315.89,579.83,299.7,579.83Zm12.83-69.49c-8.2,0-13.7,12.21-16.25,19.5-4,11.3-5.76,24-5.76,31,0,11.44,3,17,9.18,17,13.88,0,21.38-36.39,21.38-51.28C321.08,515.64,318.28,510.34,312.53,510.34Z"/><path class="cls-2" d="M424.08,596h-16l8.92-28H405.46l-8.77,28h-16l8.92-28H376.93l2.69-16.09h15.14l5.15-16H386.79l2.69-16.09h15.45l8.77-27.55h15.71l-8.76,27.55h11.67l8.77-27.55H457l-8.76,27.55h12.49L458,535.85H443.18l-5,16H451l-2.68,16.09H432.85Zm-13.29-2h11.82l8.77-28h15.23l2-12.09H435.45l6.26-20h14.6l2-12.09H445.46l8.77-27.55H442.55l-8.76,27.55H417.91l8.77-27.55H415.16l-8.77,27.55H391.17l-2,12.09h13.49l-6.43,20H381.31l-2,12.09h13l-8.92,28h11.82l8.77-28h15.72Zm12.82-40.11H408.06l6.26-20H430Zm-12.83-2h11.37l5.15-16H415.79Z"/><path class="oic2020_logo_cls-1" d="M499.93,507.61h-.31l-20,8.92L479,498.85l28.33-12.37H525.6L506.5,588.22H484.75Z"/><path class="cls-2" d="M514,595H490.22l15.08-80.08-20,8.9-.7-19.84,29.15-12.73h19.73Zm-21.38-2h19.72l18.73-99.75h-16.9l-27.52,12,.55,15.53,18.87-8.41h1.74Z"/></g></g></svg>