<svg xmlns="http://www.w3.org/2000/svg" viewBox="0 0 443.62 25"><defs><style>.logo_long_cls-1{fill:#fff;}.logo_long_cls-2{fill:#0e0f0d;}</style></defs><title>oic2020_logo_long</title><g id="レイヤー_2" data-name="レイヤー 2"><g id="レイヤー_3" data-name="レイヤー 3"><path class="logo_long_cls-1" d="M21.6,9.45a15.17,15.17,0,0,1-4,10.7,11.78,11.78,0,0,1-8.38,3.26C3.3,23.41,0,19.24,0,14A15.1,15.1,0,0,1,4.17,3.23,11.87,11.87,0,0,1,12.45,0C18.44,0,21.6,4,21.6,9.45ZM8,5.75c-1.81,1.79-2.82,5.32-2.82,8,0,3.2,1.44,5.59,4.74,5.59a5.53,5.53,0,0,0,3.8-1.65c1.79-1.78,2.76-5.52,2.76-8.14,0-2.83-1-5.55-4.57-5.55A5.41,5.41,0,0,0,8,5.75Z"/><path class="logo_long_cls-1" d="M22.74,23,27.05.37h5.68l3,8.65c.91,2.89,1.51,5.24,2.05,7.73h.1a54.62,54.62,0,0,1,1-8.14L40.47.37H45L40.71,23h-5l-3.16-9a71.91,71.91,0,0,1-2.22-7.9l-.1,0c-.27,2.19-.81,5.42-1.48,9L27.25,23Z"/><path class="logo_long_cls-1" d="M49.45.37H54.3L50.8,18.81h8.71L58.71,23H45.15Z"/><path class="logo_long_cls-1" d="M70.58.37,66.28,23H61.43L65.74.37Z"/><path class="logo_long_cls-1" d="M70.75,23,75.06.37h5.68l3,8.65c.9,2.89,1.51,5.24,2.05,7.73h.1a54.62,54.62,0,0,1,1-8.14L88.48.37H93L88.71,23h-5l-3.16-9a69.76,69.76,0,0,1-2.22-7.9l-.1,0c-.27,2.19-.81,5.42-1.48,9L75.26,23Z"/><path class="logo_long_cls-1" d="M107.89,13.42H99.82l-1,5.49h9L107.05,23H93.16L97.46.37h13.42l-.8,4.14h-8.55l-.94,4.84h8.07Z"/><path class="logo_long_cls-1" d="M125.81.37,121.51,23h-4.85L121,.37Z"/><path class="logo_long_cls-1" d="M126,23,130.29.37H136L139,9c.9,2.89,1.51,5.24,2.05,7.73h.1a54.62,54.62,0,0,1,1-8.14L143.71.37h4.51L143.94,23h-5l-3.16-9a69.76,69.76,0,0,1-2.22-7.9l-.1,0c-.27,2.19-.81,5.42-1.48,9L130.49,23Z"/><path class="logo_long_cls-1" d="M156,4.61h-6l.84-4.24H167.7l-.81,4.24h-6.06L157.37,23h-4.85Z"/><path class="logo_long_cls-1" d="M180.85,13.42h-8.07l-1.05,5.49h9.05L180,23H166.12L170.42.37h13.42L183,4.51h-8.55l-.94,4.84h8.07Z"/><path class="logo_long_cls-1" d="M187.78.81A27.77,27.77,0,0,1,193.84.2a11.74,11.74,0,0,1,5.95,1.31A4.93,4.93,0,0,1,202.31,6c0,3.37-2.25,5.45-5.14,6.4v.13c1.34.57,1.91,2.09,2.15,4.14.27,2.52.47,5.48.87,6.42h-5a35.58,35.58,0,0,1-.68-5.34c-.2-2.76-1.14-3.6-3.06-3.6H190L188.32,23h-4.81Zm2.93,9.65h2c2.62,0,4.54-1.58,4.54-3.8,0-1.82-1.55-2.62-3.47-2.62a7.37,7.37,0,0,0-1.88.17Z"/><path class="logo_long_cls-1" d="M203.12,23,207.43.37h5.68l3,8.65c.91,2.89,1.51,5.24,2,7.73h.1a54.62,54.62,0,0,1,1-8.14L220.85.37h4.51L221.09,23h-5l-3.16-9a71.91,71.91,0,0,1-2.22-7.9l-.1,0c-.27,2.19-.81,5.42-1.48,9L207.63,23Z"/><path class="logo_long_cls-1" d="M247.36,22.41a15.72,15.72,0,0,1-6,1c-6,0-10-3.63-10-9.62a13.23,13.23,0,0,1,5.72-11.34A14.18,14.18,0,0,1,245.41,0a10.65,10.65,0,0,1,4.94,1L249,4.91a10.1,10.1,0,0,0-4.1-.74,8.13,8.13,0,0,0-5.19,1.75,9.2,9.2,0,0,0-3.12,7.3c0,3.6,2,6,6,6a11.86,11.86,0,0,0,4.3-.74Z"/><path class="logo_long_cls-1" d="M271.71,9.45a15.16,15.16,0,0,1-4,10.7,11.78,11.78,0,0,1-8.38,3.26c-5.89,0-9.18-4.17-9.18-9.45a15.1,15.1,0,0,1,4.17-10.73A11.86,11.86,0,0,1,262.56,0C268.55,0,271.71,4,271.71,9.45Zm-13.62-3.7c-1.82,1.79-2.83,5.32-2.83,8,0,3.2,1.45,5.59,4.75,5.59a5.53,5.53,0,0,0,3.8-1.65c1.78-1.78,2.76-5.52,2.76-8.14,0-2.83-1-5.55-4.58-5.55A5.39,5.39,0,0,0,258.09,5.75Z"/><path class="logo_long_cls-1" d="M272.86,23,277.17.37h5.68l3,8.65c.91,2.89,1.52,5.24,2.06,7.73h.1a54.62,54.62,0,0,1,1-8.14L290.59.37h4.51L290.82,23h-5l-3.16-9a69.76,69.76,0,0,1-2.22-7.9l-.1,0c-.27,2.19-.81,5.42-1.48,9L277.37,23Z"/><path class="logo_long_cls-1" d="M302.87,4.61h-6l.84-4.24h16.85l-.8,4.24h-6.06L304.25,23H299.4Z"/><path class="logo_long_cls-1" d="M327.73,13.42h-8.07l-1.05,5.49h9.05L326.89,23H313L317.3.37h13.42l-.8,4.14h-8.55l-.94,4.84h8.07Z"/><path class="logo_long_cls-1" d="M331.36,17.8a10.77,10.77,0,0,0,5.35,1.44c1.89,0,3.6-.87,3.6-2.65,0-1.28-1-2.12-3.06-3.2-2.42-1.31-4.71-3.06-4.71-6,0-4.58,4-7.37,8.95-7.37a10.84,10.84,0,0,1,5.35,1.14l-1.52,4a9.09,9.09,0,0,0-4.23-1c-2.26,0-3.44,1.15-3.44,2.39S339,8.68,341,9.76c2.76,1.44,4.51,3.29,4.51,6,0,5-4.17,7.64-9.22,7.64a11.41,11.41,0,0,1-6.49-1.61Z"/><path class="logo_long_cls-1" d="M355.15,4.61h-6L350,.37h16.86l-.81,4.24H360L356.53,23h-4.85Z"/><path class="logo_long_cls-1" d="M369.27,23.05l.57-3.13,4.71-3.64c4.37-3.56,7.2-6.12,7.2-8.74,0-1.55-1.08-2.66-3-2.66a8.6,8.6,0,0,0-4.61,1.28l-1-3.47A13.55,13.55,0,0,1,379.9.81c4.44,0,6.83,2.59,6.83,5.95,0,4.48-3.57,7.57-7.44,10.53l-2.15,1.55v.07H385l-.78,4.14Z"/><path class="logo_long_cls-1" d="M405.43,8.31c0,6.83-3.29,15.11-10.19,15.11-4.54,0-6.33-3.5-6.33-7.88,0-6.89,3.5-14.73,10.23-14.73C403.85.81,405.43,4.41,405.43,8.31Zm-11.77,7.4c0,1.62.27,3.87,2.18,3.87,3.34,0,4.82-8.34,4.82-11.23,0-1.45-.21-3.71-2.06-3.71C395.34,4.64,393.66,12.52,393.66,15.71Z"/><path class="logo_long_cls-1" d="M405.67,23.05l.57-3.13L411,16.28c4.37-3.56,7.2-6.12,7.2-8.74,0-1.55-1.08-2.66-3-2.66a8.6,8.6,0,0,0-4.61,1.28l-1-3.47A13.55,13.55,0,0,1,416.3.81c4.44,0,6.83,2.59,6.83,5.95,0,4.48-3.57,7.57-7.44,10.53l-2.15,1.55v.07h7.84l-.78,4.14Z"/><path class="logo_long_cls-1" d="M441.83,8.31c0,6.83-3.29,15.11-10.19,15.11-4.54,0-6.33-3.5-6.33-7.88,0-6.89,3.5-14.73,10.23-14.73C440.25.81,441.83,4.41,441.83,8.31Zm-11.77,7.4c0,1.62.27,3.87,2.18,3.87,3.34,0,4.82-8.34,4.82-11.23,0-1.45-.21-3.71-2.06-3.71C431.74,4.64,430.06,12.52,430.06,15.71Z"/><path class="logo_long_cls-2" d="M10.62,25c-5.7,0-9.53-3.93-9.53-9.8a15.39,15.39,0,0,1,4.28-11A12.26,12.26,0,0,1,13.88.89c5.77,0,9.5,3.84,9.5,9.8a15.57,15.57,0,0,1-4.14,10.94A12.1,12.1,0,0,1,10.62,25ZM13.88,1.58a11.55,11.55,0,0,0-8,3.13A14.68,14.68,0,0,0,1.78,15.19c0,5.45,3.55,9.11,8.84,9.11a11.42,11.42,0,0,0,8.14-3.17,14.83,14.83,0,0,0,3.93-10.44C22.69,5.07,19.31,1.58,13.88,1.58ZM11.33,21C8.14,21,6.24,18.74,6.24,15c0-2.69,1-6.4,2.92-8.29a5.71,5.71,0,0,1,4.15-1.82c3.18,0,4.92,2.1,4.92,5.9,0,2.68-1,6.53-2.86,8.39A5.84,5.84,0,0,1,11.33,21Zm2-15.34A5,5,0,0,0,9.66,7.23h0C7.87,9,6.93,12.48,6.93,15c0,4.55,2.75,5.23,4.4,5.23a5.18,5.18,0,0,0,3.56-1.55c1.72-1.72,2.65-5.35,2.65-7.89C17.54,8.45,16.81,5.62,13.31,5.62Z"/><path class="logo_long_cls-2" d="M42.43,24.62H36.88l-3.24-9.28C32.86,13,32.29,11.14,31.77,9c-.29,2-.72,4.56-1.26,7.41L29,24.62H23.76L28.2,1.26h6.22l3.07,8.87c.65,2.06,1.16,3.88,1.62,5.81A60.23,60.23,0,0,1,40,9.78l1.6-8.52h5.21Zm-5-.69h4.48L46,2H42.2l-1.5,8a55.85,55.85,0,0,0-1,8.09v.33h-.71l-.06-.27c-.59-2.69-1.2-5-2.05-7.71L33.92,2H28.77l-4.17,22h3.8l1.42-7.66c.7-3.67,1.22-6.85,1.48-9l0-.21L32,6.87l.09.38a70.42,70.42,0,0,0,2.21,7.87Z"/><path class="logo_long_cls-2" d="M60.43,24.62H46.16L50.6,1.26h5.55l-3.5,18.43h8.72ZM47,23.93H59.85l.68-3.55H51.82L55.32,2H51.18Z"/><path class="logo_long_cls-2" d="M68,24.62H62.45L66.89,1.26h5.55Zm-4.71-.69h4.13L71.6,2H67.46Z"/><path class="logo_long_cls-2" d="M90.44,24.62H84.89l-3.24-9.28C80.87,13,80.3,11.13,79.78,9c-.29,2-.73,4.55-1.27,7.41L77,24.62H71.77L76.2,1.26h6.22l3.08,8.87c.64,2.06,1.15,3.88,1.61,5.81.17-1.84.47-3.82.92-6.16l1.6-8.52h5.21Zm-5.06-.69h4.48L94,2H90.2l-1.49,8a55.85,55.85,0,0,0-1,8.09v.33h-.72l-.06-.27c-.58-2.69-1.19-5-2-7.71L81.93,2H76.78l-4.18,22h3.8l1.43-7.66c.7-3.68,1.22-6.86,1.48-9l0-.21L80,6.87l.08.38a73.27,73.27,0,0,0,2.21,7.87Z"/><path class="logo_long_cls-2" d="M108.77,24.62H94.17L98.61,1.26h14.13l-.94,4.83h-8.55l-.8,4.15h8.07L109.61,15h-8.07l-.91,4.79h9.05ZM95,23.93H108.2l.64-3.44h-9L101,14.31H109l.64-3.38H101.6l1.08-5.54h8.55L111.9,2H99.18Z"/><path class="logo_long_cls-2" d="M123.23,24.62h-5.55l4.44-23.36h5.55Zm-4.71-.69h4.13l4.18-22h-4.14Z"/><path class="logo_long_cls-2" d="M145.67,24.62h-5.55l-3.24-9.28C136.1,13,135.53,11.14,135,9c-.29,2-.73,4.56-1.27,7.41l-1.53,8.22H127l4.43-23.36h6.22l3.08,8.87c.65,2.06,1.15,3.88,1.61,5.81.17-1.84.47-3.81.92-6.16l1.6-8.52h5.21Zm-5.06-.69h4.48l4.14-22h-3.8l-1.49,8a55.85,55.85,0,0,0-1,8.09v.33h-.72l-.06-.27c-.58-2.69-1.19-5-2-7.71L137.16,2H132l-4.17,22h3.8l1.42-7.66c.7-3.67,1.22-6.85,1.48-9l0-.21.67-.23.08.38a70.5,70.5,0,0,0,2.22,7.87Z"/><path class="logo_long_cls-2" d="M159.09,24.62h-5.55L157,6.19h-6l1-4.93h17.56l-.94,4.93h-6.05Zm-4.71-.69h4.14L162,5.49H168L168.71,2H152.56l-.7,3.54h6Z"/><path class="logo_long_cls-2" d="M181.73,24.62h-14.6l4.44-23.36H185.7l-.94,4.83h-8.55l-.8,4.15h8.07L182.57,15H174.5l-.91,4.79h9ZM168,23.93h13.19l.64-3.44h-9.05l1.17-6.18H182l.64-3.38h-8.08l1.08-5.54h8.55L184.86,2H172.14Z"/><path class="logo_long_cls-2" d="M202.16,24.62H196.4l-.08-.23a36.18,36.18,0,0,1-.69-5.43c-.2-2.76-1.11-3.29-2.71-3.29h-1.2l-1.68,9h-5.52l4.4-22.86.21-.06a28.48,28.48,0,0,1,6.14-.61,12.24,12.24,0,0,1,6.14,1.36,5.25,5.25,0,0,1,2.69,4.74c0,3-1.75,5.32-4.81,6.51,1.29.92,1.65,2.75,1.81,4.11.06.55.11,1.12.17,1.68a24.37,24.37,0,0,0,.68,4.65Zm-5.24-.69h4.24a35,35,0,0,1-.58-4.37c-.06-.56-.11-1.13-.17-1.67-.25-2.17-.87-3.4-1.94-3.86l-.21-.09v-.61l.24-.08c1.83-.6,4.9-2.18,4.9-6.06A4.61,4.61,0,0,0,201.05,3a11.64,11.64,0,0,0-5.78-1.26,28.18,28.18,0,0,0-5.75.55l-4.16,21.6h4.11L191.15,15h1.77c2.21,0,3.2,1.14,3.4,3.92A43.55,43.55,0,0,0,196.92,23.93ZM194.16,12h-2.44l1.34-6.89.21-.05a8.39,8.39,0,0,1,2-.18c2.35,0,3.81,1.14,3.81,3C199.05,10.3,197,12,194.16,12Zm-1.6-.69h1.6c2.43,0,4.2-1.46,4.2-3.46s-2.18-2.27-3.12-2.27a8.56,8.56,0,0,0-1.59.11Z"/><path class="logo_long_cls-2" d="M222.81,24.62h-5.55L214,15.34c-.78-2.36-1.35-4.2-1.87-6.35-.29,2-.72,4.56-1.26,7.41l-1.54,8.22h-5.21l4.44-23.36h6.22l3.07,8.87c.65,2.06,1.15,3.88,1.62,5.81a60.64,60.64,0,0,1,.91-6.16L222,1.26h5.21Zm-5.05-.69h4.47l4.15-22h-3.81l-1.49,8A55.85,55.85,0,0,0,220,18v.33h-.71l-.06-.27c-.59-2.7-1.2-5-2-7.71L214.3,2h-5.15l-4.17,22h3.8l1.42-7.66c.7-3.67,1.22-6.85,1.48-9l0-.21.67-.23.09.38a70.42,70.42,0,0,0,2.21,7.87Z"/><path class="logo_long_cls-2" d="M242.8,25c-6.3,0-10.37-3.91-10.37-10a13.58,13.58,0,0,1,5.88-11.62A14.53,14.53,0,0,1,246.84.89a11.12,11.12,0,0,1,5.13,1l.23.15-1.52,4.57-.36-.18a9.76,9.76,0,0,0-3.95-.7,7.74,7.74,0,0,0-5,1.67,8.87,8.87,0,0,0-3,7c0,3.61,2.07,5.68,5.67,5.68a11.37,11.37,0,0,0,4.18-.72l.43-.17.47,4.61-.23.1A16.06,16.06,0,0,1,242.8,25Zm4-23.38a13.84,13.84,0,0,0-8.14,2.36A12.92,12.92,0,0,0,233.13,15c0,5.64,3.8,9.28,9.67,9.28a16.13,16.13,0,0,0,5.62-.85l-.33-3.2a13,13,0,0,1-4,.6c-4,0-6.37-2.38-6.37-6.37A9.57,9.57,0,0,1,241,6.88a8.48,8.48,0,0,1,5.4-1.82,11.5,11.5,0,0,1,3.9.61l1.1-3.3A11.6,11.6,0,0,0,246.84,1.58Z"/><path class="logo_long_cls-2" d="M260.74,25c-5.7,0-9.53-3.93-9.53-9.8a15.39,15.39,0,0,1,4.27-11A12.3,12.3,0,0,1,264,.89c5.77,0,9.5,3.84,9.5,9.8a15.57,15.57,0,0,1-4.14,10.94A12.14,12.14,0,0,1,260.74,25ZM264,1.58a11.59,11.59,0,0,0-8,3.13,14.72,14.72,0,0,0-4.06,10.48c0,5.45,3.55,9.11,8.84,9.11a11.39,11.39,0,0,0,8.13-3.17,14.84,14.84,0,0,0,3.93-10.44C272.8,5.07,269.43,1.58,264,1.58ZM261.44,21c-3.18,0-5.09-2.22-5.09-5.93,0-2.69,1-6.4,2.93-8.29a5.69,5.69,0,0,1,4.15-1.82c3.17,0,4.92,2.1,4.92,5.9,0,2.68-1,6.53-2.86,8.39A5.86,5.86,0,0,1,261.44,21Zm2-15.34a5,5,0,0,0-3.66,1.61h0C258,9,257.05,12.48,257.05,15c0,4.55,2.75,5.23,4.39,5.23A5.15,5.15,0,0,0,265,18.71c1.73-1.72,2.66-5.35,2.66-7.89C267.66,8.45,266.92,5.62,263.43,5.62Z"/><path class="logo_long_cls-2" d="M292.55,24.62H287l-3.24-9.28C283,13,282.41,11.14,281.89,9c-.29,2-.73,4.56-1.27,7.41l-1.53,8.22h-5.21l4.43-23.36h6.22l3.08,8.87c.64,2.06,1.15,3.88,1.61,5.81.17-1.84.47-3.81.92-6.16l1.6-8.52H297Zm-5.06-.69H292l4.14-22h-3.8l-1.49,8a53.19,53.19,0,0,0-1,8.09v.33h-.72l-.06-.27c-.58-2.7-1.19-5-2-7.71L284,2h-5.15l-4.18,22h3.8l1.43-7.66c.7-3.67,1.22-6.86,1.48-9l0-.21.67-.23.08.38a72.62,72.62,0,0,0,2.21,7.87Z"/><path class="logo_long_cls-2" d="M306,24.62h-5.55l3.46-18.43h-6l1-4.93h17.56l-.94,4.93h-6.05Zm-4.71-.69h4.13l3.47-18.44h6.06L315.59,2H299.44l-.7,3.54h6Z"/><path class="logo_long_cls-2" d="M328.61,24.62H314l4.44-23.36h14.13l-.94,4.83h-8.55l-.8,4.15h8.07L329.45,15h-8.07l-.91,4.79h9Zm-13.76-.69H328l.64-3.44h-9.05l1.17-6.18h8.08l.64-3.38h-8.08l1.08-5.54h8.55L331.74,2H319Z"/><path class="logo_long_cls-2" d="M337.68,25c-4.14,0-6.18-1.29-6.7-1.68l-.22-.16,1.87-4.6.35.21a10.29,10.29,0,0,0,5.17,1.4c1.62,0,3.25-.72,3.25-2.31,0-1-.75-1.8-2.87-2.89-2.29-1.24-4.9-3.07-4.9-6.33,0-4.54,3.82-7.71,9.29-7.71a11.24,11.24,0,0,1,5.52,1.18l.26.15-1.76,4.69-.35-.19a8.69,8.69,0,0,0-4.06-1c-2.13,0-3.09,1.06-3.09,2s1.18,1.81,3.12,2.9c3.15,1.65,4.68,3.71,4.68,6.29C347.24,21.83,343.49,25,337.68,25Zm-6.07-2.09a11.6,11.6,0,0,0,6.07,1.4c5.39,0,8.87-2.87,8.87-7.29,0-2.33-1.38-4.14-4.32-5.68-1.88-1.06-3.49-2-3.49-3.51,0-1.32,1.19-2.73,3.78-2.73a9.45,9.45,0,0,1,4.05.87l1.27-3.39a10.89,10.89,0,0,0-4.92-1c-5.06,0-8.6,2.89-8.6,7,0,2.89,2.42,4.57,4.53,5.72s3.24,2,3.24,3.5c0,2.07-2,3-3.94,3A11.22,11.22,0,0,1,333,19.53Z"/><path class="logo_long_cls-2" d="M358.25,24.62H352.7l3.47-18.43h-6l1-4.93h17.56l-.94,4.93h-6Zm-4.71-.69h4.14l3.46-18.44h6.06L367.87,2H351.72L351,5.49h6Z"/><path class="logo_long_cls-2" d="M385.93,24.63H370.29L371,21l4.81-3.72c4.14-3.37,7.07-5.95,7.07-8.47,0-1.45-1-2.31-2.68-2.31a8.26,8.26,0,0,0-4.43,1.23l-.39.24-1.17-4.16.22-.14a13.84,13.84,0,0,1,6.94-1.94c4.36,0,7.18,2.48,7.18,6.31,0,4.62-3.58,7.75-7.57,10.8l-1.38,1h7.27Zm-14.81-.7h14.23l.65-3.44h-7.77V19.9l2.3-1.66c3.83-2.93,7.29-5.93,7.29-10.24,0-3.41-2.55-5.61-6.49-5.61A13.08,13.08,0,0,0,375,4.09l.78,2.78a9,9,0,0,1,4.4-1.1c2,0,3.37,1.17,3.37,3,0,2.82-3,5.52-7.33,9l-4.61,3.55Z"/><path class="logo_long_cls-2" d="M396.67,25c-4.24,0-6.67-3-6.67-8.22a20.13,20.13,0,0,1,2.64-10.14c2-3.23,4.72-4.95,7.94-4.95,4.22,0,6.64,2.87,6.64,7.85C407.22,17,403.52,25,396.67,25Zm3.91-22.61c-3.75,0-6.06,2.51-7.34,4.61a19.28,19.28,0,0,0-2.54,9.78c0,2.81.77,7.52,6,7.52,4.78,0,9.85-5.17,9.85-14.76C406.52,6.87,405.75,2.39,400.58,2.39Zm-3.3,18.77c-1.68,0-2.53-1.42-2.53-4.22,0-3.14,1.62-11.41,5.29-11.41,1.59,0,2.4,1.36,2.4,4.05C402.44,11.94,401.09,21.16,397.28,21.16ZM400,6.22c-2.86,0-4.6,7.45-4.6,10.72,0,3.53,1.38,3.53,1.84,3.53,2.9,0,4.46-7.73,4.46-10.89C401.74,7.32,401.19,6.22,400,6.22Z"/><path class="logo_long_cls-2" d="M422.33,24.63H406.69l.67-3.67,4.81-3.72c4.14-3.37,7.07-5.95,7.07-8.47,0-1.45-1-2.31-2.68-2.31a8.26,8.26,0,0,0-4.43,1.23l-.39.24-1.17-4.16.22-.14a13.84,13.84,0,0,1,6.94-1.94c4.36,0,7.18,2.48,7.18,6.31,0,4.62-3.58,7.75-7.57,10.8l-1.38,1h7.27Zm-14.81-.7h14.23l.65-3.44h-7.77V19.9l2.3-1.66c3.83-2.93,7.29-5.93,7.29-10.24,0-3.41-2.55-5.61-6.49-5.61a13.08,13.08,0,0,0-6.35,1.7l.78,2.78a9,9,0,0,1,4.4-1.1c2.05,0,3.37,1.17,3.37,3,0,2.82-3,5.52-7.33,9L408,21.34Z"/><path class="logo_long_cls-2" d="M433.08,25c-4.24,0-6.68-3-6.68-8.22A20.13,20.13,0,0,1,429,6.64c2-3.23,4.72-4.95,7.94-4.95,4.22,0,6.64,2.87,6.64,7.85C443.62,17,439.92,25,433.08,25ZM437,2.39c-3.75,0-6.06,2.51-7.34,4.61a19.28,19.28,0,0,0-2.54,9.78c0,2.81.77,7.52,6,7.52,4.77,0,9.84-5.17,9.84-14.76C442.92,6.87,442.15,2.39,437,2.39Zm-3.3,18.77c-1.68,0-2.53-1.42-2.53-4.22,0-3.14,1.62-11.41,5.29-11.41,1.59,0,2.4,1.36,2.4,4.05C438.84,11.94,437.49,21.16,433.68,21.16Zm2.76-14.94c-2.86,0-4.6,7.45-4.6,10.72,0,3.53,1.39,3.53,1.84,3.53,2.9,0,4.46-7.73,4.46-10.89C438.14,7.32,437.59,6.22,436.44,6.22Z"/></g></g></svg>