<svg xmlns="http://www.w3.org/2000/svg" viewBox="0 0 484.61 24.95"><defs><style>.logo_long_cls-1{fill:#fff;}.cls-2{fill:#0e0f0d;}</style></defs><g id="レイヤー_2" data-name="レイヤー 2"><g id="レイヤー_1-2" data-name="レイヤー 1"><path class="logo_long_cls-1" d="M21.54,9.43a15.12,15.12,0,0,1-4,10.67,11.75,11.75,0,0,1-8.36,3.26C3.29,23.36,0,19.2,0,13.93A15.07,15.07,0,0,1,4.16,3.22,11.88,11.88,0,0,1,12.42,0C18.39,0,21.54,4,21.54,9.43ZM8,5.74c-1.81,1.78-2.82,5.3-2.82,8,0,3.19,1.45,5.57,4.74,5.57a5.54,5.54,0,0,0,3.79-1.64c1.78-1.78,2.75-5.51,2.75-8.13,0-2.81-1-5.53-4.56-5.53A5.35,5.35,0,0,0,8,5.74Z"/><path class="logo_long_cls-1" d="M22.68,23,27,.37h5.67l3,8.62c.9,2.89,1.51,5.24,2,7.72h.1a56,56,0,0,1,1-8.12L40.37.37h4.5L40.6,23h-5l-3.15-9a71.16,71.16,0,0,1-2.22-7.89l-.1,0c-.26,2.18-.8,5.4-1.47,9L27.18,23Z"/><path class="logo_long_cls-1" d="M49.33.37h4.83L50.67,18.76h8.69L58.56,23H45Z"/><path class="logo_long_cls-1" d="M70.4.37,66.11,23H61.27L65.57.37Z"/><path class="logo_long_cls-1" d="M70.57,23,74.86.37h5.67l3,8.62c.91,2.89,1.51,5.24,2,7.72h.1a54.39,54.39,0,0,1,1-8.12L88.25.37h4.5L88.49,23h-5l-3.16-9a71,71,0,0,1-2.21-7.89l-.1,0c-.27,2.18-.81,5.4-1.48,9L75.06,23Z"/><path class="logo_long_cls-1" d="M107.61,13.39h-8l-1,5.47h9L106.78,23H92.92L97.21.37H110.6l-.8,4.13h-8.53l-.94,4.83h8.06Z"/><path class="logo_long_cls-1" d="M125.47.37,121.17,23h-4.83L120.63.37Z"/><path class="logo_long_cls-1" d="M125.63,23,129.93.37h5.67l3,8.62c.9,2.89,1.51,5.24,2,7.72h.1a55.75,55.75,0,0,1,1-8.12L143.32.37h4.5L143.55,23h-5l-3.15-9a71.16,71.16,0,0,1-2.22-7.89l-.1,0c-.27,2.18-.8,5.4-1.47,9L130.13,23Z"/><path class="logo_long_cls-1" d="M155.57,4.6h-6l.84-4.23h16.81l-.8,4.23h-6L156.94,23h-4.83Z"/><path class="logo_long_cls-1" d="M180.36,13.39h-8.05l-1,5.47h9L179.52,23H165.67L170,.37h13.39l-.81,4.13H174l-.94,4.83h8.06Z"/><path class="logo_long_cls-1" d="M187.28.81a27.64,27.64,0,0,1,6-.61,11.73,11.73,0,0,1,5.94,1.31,4.92,4.92,0,0,1,2.51,4.43c0,3.36-2.25,5.44-5.13,6.38v.13c1.34.57,1.91,2.08,2.15,4.13.26,2.51.47,5.47.87,6.41h-5a37.92,37.92,0,0,1-.67-5.34c-.2-2.75-1.14-3.59-3.05-3.59h-1.48L187.81,23H183Zm2.92,9.63h2c2.62,0,4.53-1.58,4.53-3.8,0-1.81-1.54-2.61-3.46-2.61a8.13,8.13,0,0,0-1.88.16Z"/><path class="logo_long_cls-1" d="M202.58,23,206.87.37h5.67l3,8.62c.91,2.89,1.51,5.24,2.05,7.72h.1a54.39,54.39,0,0,1,1-8.12L220.26.37h4.5L220.5,23h-5l-3.16-9a71,71,0,0,1-2.21-7.89l-.1,0c-.27,2.18-.81,5.4-1.48,9L207.07,23Z"/><path class="logo_long_cls-1" d="M248.08,22.35a15.45,15.45,0,0,1-6,1c-6,0-10-3.62-10-9.59a13.18,13.18,0,0,1,5.7-11.31A14.11,14.11,0,0,1,246.13,0a10.82,10.82,0,0,1,4.94,1L249.76,4.9a9.93,9.93,0,0,0-4.1-.74,8.07,8.07,0,0,0-5.16,1.75,9.12,9.12,0,0,0-3.13,7.28c0,3.59,2,6,6,6a11.86,11.86,0,0,0,4.3-.74Z"/><path class="logo_long_cls-1" d="M272.38,9.43a15.13,15.13,0,0,1-4,10.67A11.75,11.75,0,0,1,260,23.36c-5.87,0-9.16-4.16-9.16-9.43A15.07,15.07,0,0,1,255,3.22,11.88,11.88,0,0,1,263.25,0C269.22,0,272.38,4,272.38,9.43Zm-13.6-3.69C257,7.52,256,11,256,13.76c0,3.19,1.44,5.57,4.73,5.57a5.54,5.54,0,0,0,3.79-1.64c1.78-1.78,2.75-5.51,2.75-8.13,0-2.81-1-5.53-4.56-5.53A5.35,5.35,0,0,0,258.78,5.74Z"/><path class="logo_long_cls-1" d="M273.51,23,277.81.37h5.67l3,8.62c.9,2.89,1.51,5.24,2,7.72h.1a54.39,54.39,0,0,1,1-8.12L291.2.37h4.5L291.43,23h-5l-3.15-9a68.91,68.91,0,0,1-2.21-7.89l-.11,0c-.26,2.18-.8,5.4-1.47,9L278,23Z"/><path class="logo_long_cls-1" d="M303.45,4.6h-6l.84-4.23h16.82l-.81,4.23h-6L304.82,23H300Z"/><path class="logo_long_cls-1" d="M328.25,13.39h-8.06l-1,5.47h9L327.41,23H313.55L317.84.37h13.39l-.8,4.13H321.9L321,9.33H329Z"/><path class="logo_long_cls-1" d="M331.87,17.75a10.56,10.56,0,0,0,5.33,1.45c1.88,0,3.6-.88,3.6-2.66,0-1.27-1-2.11-3.06-3.18-2.41-1.31-4.7-3.06-4.7-6C333,2.79,337,0,342,0a10.71,10.71,0,0,1,5.34,1.14l-1.51,4a9.09,9.09,0,0,0-4.23-1c-2.25,0-3.43,1.14-3.43,2.38s1.38,2.12,3.29,3.19c2.75,1.44,4.5,3.29,4.5,6,0,5-4.16,7.61-9.2,7.61a11.28,11.28,0,0,1-6.47-1.61Z"/><path class="logo_long_cls-1" d="M355.59,4.6h-6l.84-4.23h16.81l-.8,4.23h-6L357,23h-4.83Z"/><path class="logo_long_cls-1" d="M371.13,23l.57-3.12,4.7-3.63c4.36-3.56,7.18-6.11,7.18-8.72,0-1.55-1.07-2.65-3-2.65A8.62,8.62,0,0,0,376,6.14l-1-3.46A13.47,13.47,0,0,1,381.73.81c4.43,0,6.82,2.58,6.82,5.94,0,4.46-3.56,7.55-7.42,10.5L379,18.79v.07h7.82L386,23Z"/><path class="logo_long_cls-1" d="M407.2,8.29c0,6.81-3.29,15.07-10.17,15.07-4.53,0-6.3-3.49-6.3-7.86,0-6.88,3.49-14.69,10.2-14.69C405.63.81,407.2,4.4,407.2,8.29Zm-11.74,7.38c0,1.61.27,3.86,2.18,3.86,3.32,0,4.8-8.32,4.8-11.21,0-1.44-.2-3.69-2.05-3.69C397.14,4.63,395.46,12.48,395.46,15.67Z"/><path class="logo_long_cls-1" d="M407.44,23l.57-3.12,4.7-3.63c4.36-3.56,7.18-6.11,7.18-8.72,0-1.55-1.08-2.65-3-2.65a8.62,8.62,0,0,0-4.6,1.27l-1-3.46A13.47,13.47,0,0,1,418,.81c4.43,0,6.81,2.58,6.81,5.94,0,4.46-3.55,7.55-7.41,10.5l-2.15,1.54v.07h7.82L422.34,23Z"/><path class="logo_long_cls-1" d="M443.51,8.29c0,6.81-3.29,15.07-10.17,15.07-4.53,0-6.31-3.49-6.31-7.86C427,8.62,430.52.81,437.23.81,441.93.81,443.51,4.4,443.51,8.29Zm-11.75,7.38c0,1.61.27,3.86,2.19,3.86,3.32,0,4.79-8.32,4.79-11.21,0-1.44-.2-3.69-2-3.69C433.44,4.63,431.76,12.48,431.76,15.67Z"/><path class="logo_long_cls-1" d="M451.6,23l1.91-6h-2.75l.5-3h3.22l1.24-3.86h-2.85l.5-3h3.29l1.88-5.91h2.92l-1.88,5.91h3l1.87-5.91h3l-1.88,5.91h2.72l-.51,3h-3.15L463.34,14h2.79l-.51,3h-3.29l-1.88,6h-3l1.91-6h-2.92l-1.88,6Zm8.75-9,1.25-3.86h-2.92L457.47,14Z"/><path class="cls-2" d="M10.59,25C4.89,25,1.06,21,1.06,15.16a15.39,15.39,0,0,1,4.28-11A12.26,12.26,0,0,1,13.85.86c5.77,0,9.5,3.85,9.5,9.8a15.53,15.53,0,0,1-4.14,10.93A12.1,12.1,0,0,1,10.59,25ZM13.85,1.6a11.51,11.51,0,0,0-8,3.12,14.6,14.6,0,0,0-4,10.44c0,5.42,3.53,9.06,8.79,9.06a11.39,11.39,0,0,0,8.1-3.15,14.81,14.81,0,0,0,3.92-10.41C22.61,5.07,19.25,1.6,13.85,1.6ZM11.3,20.93c-3.2,0-5.1-2.22-5.1-5.94,0-2.61.91-6.31,2.92-8.28a5.73,5.73,0,0,1,4.16-1.82c3.18,0,4.93,2.09,4.93,5.9,0,2.68-1,6.53-2.86,8.39A5.88,5.88,0,0,1,11.3,20.93Zm2-15.31a5,5,0,0,0-3.63,1.6h0C7.87,9,6.94,12.45,6.94,15c0,4.52,2.73,5.2,4.36,5.2a5.13,5.13,0,0,0,3.53-1.54c1.72-1.71,2.64-5.33,2.64-7.86C17.47,8.44,16.75,5.62,13.28,5.62Z"/><path class="cls-2" d="M42.34,24.59H36.77l-3.24-9.28c-.76-2.31-1.32-4.13-1.83-6.22-.29,2-.72,4.48-1.25,7.28l-1.53,8.22H23.67L28.11,1.23h6.24l3.07,8.87c.63,2,1.13,3.79,1.58,5.66.17-1.79.46-3.73.89-6l1.6-8.52h5.25Zm-5-.74h4.43L45.85,2H42.11L40.62,9.89a53.94,53.94,0,0,0-1,8.07l0,.35h-.75L38.76,18c-.58-2.69-1.19-5-2-7.69L33.82,2h-5.1L24.56,23.85h3.75l1.42-7.62c.69-3.67,1.21-6.84,1.47-8.94l0-.23.71-.24.09.4a71,71,0,0,0,2.2,7.85Z"/><path class="cls-2" d="M60.29,24.59H46L50.45,1.23H56L52.55,19.62h8.69Zm-13.38-.74H59.68l.67-3.49H51.66L55.15,2H51.06Z"/><path class="cls-2" d="M67.84,24.59H62.26L66.7,1.23h5.58Zm-4.69-.74h4.08L71.39,2H67.31Z"/><path class="cls-2" d="M90.23,24.59H84.66l-3.24-9.28c-.77-2.31-1.33-4.13-1.84-6.22-.29,2-.72,4.48-1.24,7.28L76.8,24.59H71.55L76,1.23h6.24L85.3,10.1c.63,2,1.13,3.79,1.58,5.66.17-1.8.46-3.73.9-6l1.6-8.52h5.25Zm-5-.74h4.43L93.74,2H90L88.5,9.89a53.94,53.94,0,0,0-1,8.07l0,.35H86.7L86.64,18c-.58-2.69-1.19-5-2-7.69L81.7,2H76.6L72.45,23.85h3.74l1.42-7.62c.69-3.67,1.22-6.84,1.47-8.94l0-.23.71-.24.09.4a69.51,69.51,0,0,0,2.21,7.85Z"/><path class="cls-2" d="M108.51,24.59H93.9L98.34,1.23h14.14l-1,4.86H103l-.8,4.1h8.05l-.91,4.8h-8l-.9,4.73h9Zm-13.72-.74H107.9l.64-3.39h-9l1.18-6.21h8l.63-3.32h-8.05l1.08-5.57h8.52L111.59,2H99Z"/><path class="cls-2" d="M122.91,24.59h-5.59l4.44-23.36h5.58Zm-4.69-.74h4.08L126.45,2h-4.08Z"/><path class="cls-2" d="M145.29,24.59h-5.57l-3.24-9.28c-.76-2.31-1.32-4.13-1.83-6.22-.29,2-.72,4.48-1.25,7.28l-1.53,8.22h-5.25l4.44-23.36h6.23l3.08,8.87c.63,2,1.13,3.79,1.58,5.66.17-1.8.46-3.73.89-6l1.6-8.52h5.25Zm-5-.74h4.43L148.8,2h-3.74l-1.49,7.92a55.44,55.44,0,0,0-1,8.07v.35h-.75l-.06-.29c-.59-2.69-1.2-5-2-7.69L136.77,2h-5.1l-4.16,21.88h3.75l1.42-7.62c.69-3.67,1.21-6.84,1.47-8.94l0-.23.71-.24.09.4a69.44,69.44,0,0,0,2.2,7.85Z"/><path class="cls-2" d="M158.68,24.59H153.1L156.55,6.2h-6l1-5h17.56l-.94,5h-6ZM154,23.85h4.08l3.45-18.39h6L168.23,2H152.17l-.7,3.49h6Z"/><path class="cls-2" d="M181.26,24.59H166.65l4.44-23.36h14.14l-.95,4.86h-8.52l-.8,4.1h8L182.1,15h-8l-.9,4.73h9Zm-13.72-.74h13.11l.63-3.39h-9l1.18-6.21h8.05l.63-3.32h-8.05l1.08-5.57h8.52L184.33,2H171.7Z"/><path class="cls-2" d="M201.65,24.59h-5.79l-.09-.26a36.34,36.34,0,0,1-.68-5.42c-.2-2.73-1.1-3.25-2.69-3.25h-1.17l-1.68,8.93H184l4.39-22.86.23-.05a28.25,28.25,0,0,1,6.13-.62,12.21,12.21,0,0,1,6.13,1.37,5.24,5.24,0,0,1,2.69,4.74c0,3-1.72,5.3-4.77,6.5,1.27.93,1.63,2.74,1.79,4.09,0,.55.11,1.12.16,1.68a24.93,24.93,0,0,0,.68,4.63Zm-5.24-.74h4.18a37.35,37.35,0,0,1-.57-4.34c-.06-.56-.11-1.12-.17-1.66-.25-2.16-.86-3.38-1.92-3.83l-.23-.1v-.64l.26-.09c1.82-.59,4.88-2.16,4.88-6a4.55,4.55,0,0,0-2.34-4.11,11.55,11.55,0,0,0-5.75-1.26,28.11,28.11,0,0,0-5.73.54l-4.13,21.51h4.05l1.68-8.93h1.78c2.23,0,3.22,1.14,3.42,3.93A45.76,45.76,0,0,0,196.41,23.85ZM193.64,12h-2.46l1.34-6.91.23,0a7.79,7.79,0,0,1,2-.18c2.36,0,3.83,1.14,3.83,3C198.54,10.28,196.48,12,193.64,12Zm-1.57-.73h1.57c2.41,0,4.16-1.44,4.16-3.43s-2.16-2.25-3.09-2.25a9.22,9.22,0,0,0-1.56.11Z"/><path class="cls-2" d="M222.24,24.59h-5.57l-3.24-9.28c-.77-2.31-1.33-4.13-1.84-6.22-.29,2-.72,4.48-1.24,7.28l-1.54,8.22h-5.25L208,1.23h6.24l3.07,8.87c.63,2,1.13,3.79,1.58,5.66.17-1.79.46-3.73.9-6l1.6-8.52h5.25Zm-5.05-.74h4.43L225.75,2H222l-1.49,7.92a53.94,53.94,0,0,0-1,8.07l0,.35h-.75l-.06-.29c-.58-2.69-1.19-5-2-7.69L213.71,2h-5.1l-4.16,21.88h3.75l1.42-7.62c.69-3.67,1.22-6.84,1.47-8.94l0-.23.71-.24.09.4a69.51,69.51,0,0,0,2.21,7.85Z"/><path class="cls-2" d="M243.54,24.92c-6.3,0-10.37-3.91-10.37-10A13.61,13.61,0,0,1,239,3.34,14.6,14.6,0,0,1,247.57.86a11.16,11.16,0,0,1,5.13,1l.24.15-1.53,4.61L251,6.46a9.63,9.63,0,0,0-3.92-.7,7.73,7.73,0,0,0-4.94,1.66,8.82,8.82,0,0,0-3,7c0,3.58,2,5.64,5.63,5.64a11.26,11.26,0,0,0,4.16-.72l.46-.18.48,4.65-.25.11A16.3,16.3,0,0,1,243.54,24.92Zm4-23.32A13.86,13.86,0,0,0,239.45,4a12.89,12.89,0,0,0-5.54,11c0,5.61,3.78,9.23,9.63,9.23a16,16,0,0,0,5.58-.84l-.33-3.14a12.81,12.81,0,0,1-4,.59c-4,0-6.37-2.38-6.37-6.37a9.57,9.57,0,0,1,3.26-7.57A8.41,8.41,0,0,1,247.1,5a11.39,11.39,0,0,1,3.87.61l1.08-3.25A11.51,11.51,0,0,0,247.57,1.6Z"/><path class="cls-2" d="M261.42,25c-5.7,0-9.53-3.93-9.53-9.79a15.39,15.39,0,0,1,4.28-11A12.26,12.26,0,0,1,264.68.86c5.77,0,9.5,3.85,9.5,9.8A15.53,15.53,0,0,1,270,21.59,12.1,12.1,0,0,1,261.42,25ZM264.68,1.6a11.51,11.51,0,0,0-8,3.12,14.64,14.64,0,0,0-4.05,10.44c0,5.42,3.54,9.06,8.79,9.06a11.39,11.39,0,0,0,8.1-3.15,14.81,14.81,0,0,0,3.92-10.41C273.44,5.07,270.08,1.6,264.68,1.6Zm-2.55,19.33c-3.19,0-5.1-2.22-5.1-5.94,0-2.61.91-6.31,2.92-8.28a5.73,5.73,0,0,1,4.16-1.82c3.18,0,4.93,2.09,4.93,5.9,0,2.68-1,6.53-2.86,8.39A5.88,5.88,0,0,1,262.13,20.93Zm2-15.31a5,5,0,0,0-3.63,1.6h0c-1.77,1.75-2.7,5.22-2.7,7.76,0,4.52,2.73,5.2,4.36,5.2a5.13,5.13,0,0,0,3.53-1.54c1.72-1.71,2.64-5.33,2.64-7.86C268.3,8.44,267.58,5.62,264.11,5.62Z"/><path class="cls-2" d="M293.17,24.59H287.6l-3.24-9.28c-.76-2.31-1.32-4.13-1.83-6.22-.29,2-.72,4.48-1.25,7.28l-1.53,8.22H274.5l4.44-23.36h6.24l3.07,8.87c.63,2,1.13,3.79,1.58,5.66.17-1.79.46-3.73.9-6l1.6-8.52h5.24Zm-5-.74h4.43L296.68,2h-3.74l-1.49,7.92a53.94,53.94,0,0,0-1,8.07l0,.35h-.75l-.06-.29c-.58-2.69-1.19-5-2-7.69L284.65,2h-5.1l-4.16,21.88h3.75l1.42-7.62c.69-3.67,1.21-6.84,1.47-8.94l0-.23.71-.24.09.4a71,71,0,0,0,2.2,7.85Z"/><path class="cls-2" d="M306.56,24.59H301L304.43,6.2h-6l1-5H317l-.94,5h-6Zm-4.69-.74H306l3.46-18.39h6L316.11,2H300.05l-.7,3.49h6Z"/><path class="cls-2" d="M329.15,24.59H314.53L319,1.23h14.14l-.95,4.86h-8.52l-.8,4.1h8.05L330,15h-8.05l-.9,4.73h9Zm-13.73-.74h13.11l.64-3.39h-9l1.18-6.21h8.05l.63-3.32H322L323,5.36h8.52L332.22,2H319.58Z"/><path class="cls-2" d="M338.17,24.92c-4.13,0-6.17-1.29-6.7-1.68l-.23-.17,1.88-4.63.37.22a10.22,10.22,0,0,0,5.15,1.4c1.6,0,3.22-.71,3.22-2.29,0-1-.75-1.77-2.86-2.86-2.28-1.23-4.89-3.07-4.89-6.33,0-4.55,3.82-7.72,9.29-7.72a11.26,11.26,0,0,1,5.52,1.19l.27.15-1.77,4.72-.37-.2a8.57,8.57,0,0,0-4-1c-2.11,0-3.06,1-3.06,2s1.17,1.79,3.1,2.87c3.15,1.65,4.68,3.71,4.68,6.29C347.73,21.79,344,24.92,338.17,24.92Zm-6-2.11a11.66,11.66,0,0,0,6,1.37c5.36,0,8.82-2.84,8.82-7.25,0-2.31-1.36-4.1-4.3-5.64-1.87-1-3.48-2-3.48-3.52C339.21,6.45,340.39,5,343,5a9.58,9.58,0,0,1,4,.86l1.25-3.33a10.88,10.88,0,0,0-4.88-.95c-5,0-8.56,2.87-8.56,7,0,2.87,2.41,4.54,4.51,5.68s3.25,2,3.25,3.51c0,2.09-2,3-4,3a11.13,11.13,0,0,1-5.16-1.28Z"/><path class="cls-2" d="M358.71,24.59h-5.59L356.58,6.2h-6l1-5h17.56l-.95,5h-6Zm-4.7-.74h4.09l3.45-18.39h6L368.26,2H352.19l-.69,3.49h6Z"/><path class="cls-2" d="M387.77,24.59H372.12l.67-3.7,4.81-3.71c4.12-3.36,7-5.93,7-8.43,0-1.43-1-2.29-2.65-2.29a8.23,8.23,0,0,0-4.4,1.22l-.42.26L376,3.75l.24-.15a13.8,13.8,0,0,1,6.94-1.93c4.36,0,7.18,2.47,7.18,6.3,0,4.63-3.58,7.75-7.56,10.8l-1.32.95h7.21ZM373,23.85h14.15l.64-3.39H380v-.63l2.31-1.65c3.82-2.93,7.26-5.91,7.26-10.21,0-3.38-2.53-5.57-6.44-5.57a13.07,13.07,0,0,0-6.32,1.69l.77,2.72A9,9,0,0,1,382,5.73c2.06,0,3.39,1.18,3.39,3,0,2.82-3,5.51-7.32,9l-4.59,3.54Z"/><path class="cls-2" d="M398.47,25c-4.25,0-6.68-3-6.68-8.22a20,20,0,0,1,2.64-10.12c2-3.23,4.71-4.94,7.93-4.94,4.22,0,6.64,2.86,6.64,7.85C409,17,405.31,25,398.47,25ZM402.36,2.4c-4.77,0-9.83,5-9.83,14.33,0,2.8.77,7.49,5.94,7.49,4.75,0,9.8-5.15,9.8-14.7C408.27,6.86,407.5,2.4,402.36,2.4Zm-3.29,18.73c-1.69,0-2.55-1.42-2.55-4.23,0-3.14,1.63-11.41,5.3-11.41,1.61,0,2.42,1.37,2.42,4.06a25.46,25.46,0,0,1-1.17,6.8C402.06,19.48,400.68,21.13,399.07,21.13Zm2.75-14.9c-2.84,0-4.56,7.41-4.56,10.67,0,3.49,1.36,3.49,1.81,3.49,2.88,0,4.43-7.69,4.43-10.84C403.5,7.32,403,6.23,401.82,6.23Z"/><path class="cls-2" d="M424.07,24.59H408.43l.67-3.7,4.81-3.71c4.12-3.36,7-5.93,7-8.43,0-1.43-1-2.29-2.65-2.29a8.29,8.29,0,0,0-4.41,1.22l-.41.26L412.3,3.75l.23-.15a13.83,13.83,0,0,1,6.94-1.93c4.37,0,7.18,2.47,7.18,6.3,0,4.63-3.57,7.75-7.56,10.8l-1.32.95H425Zm-14.76-.74h14.15l.64-3.39h-7.75v-.63l2.3-1.65c3.83-2.93,7.27-5.91,7.27-10.21,0-3.38-2.53-5.57-6.45-5.57a13,13,0,0,0-6.31,1.69l.77,2.72a9,9,0,0,1,4.37-1.08c2.06,0,3.39,1.18,3.39,3,0,2.82-3,5.51-7.32,9l-4.59,3.54Z"/><path class="cls-2" d="M434.77,25c-4.24,0-6.67-3-6.67-8.22a20.08,20.08,0,0,1,2.63-10.12c2-3.23,4.71-4.94,7.94-4.94,4.22,0,6.64,2.86,6.64,7.85C445.31,17,441.62,25,434.77,25Zm3.9-22.55c-4.77,0-9.84,5-9.84,14.33,0,2.8.78,7.49,5.94,7.49,4.75,0,9.8-5.15,9.8-14.7C444.57,6.86,443.81,2.4,438.67,2.4Zm-3.29,18.73c-1.69,0-2.55-1.42-2.55-4.23,0-3.14,1.63-11.41,5.3-11.41,1.6,0,2.42,1.37,2.42,4.06a25.52,25.52,0,0,1-1.18,6.8C438.37,19.48,437,21.13,435.38,21.13Zm2.75-14.9c-2.84,0-4.56,7.41-4.56,10.67,0,3.49,1.36,3.49,1.81,3.49,2.88,0,4.43-7.69,4.43-10.84C439.81,7.32,439.26,6.23,438.13,6.23Z"/><path class="cls-2" d="M462.16,24.59H458.4l1.91-6h-2.15l-1.87,6h-3.77l1.92-6h-2.69l.63-3.76h3.26l1-3.12h-2.78l.62-3.76h3.34L459.7,2h3.7l-1.88,5.91h2.18L465.58,2h3.72l-1.87,5.91h2.64l-.62,3.76h-3.2l-1,3.12H468l-.62,3.76H464Zm-2.75-.74h2.21l1.88-6h3.24l.38-2.28h-2.85l1.44-4.6h3.11l.38-2.28h-2.78l1.88-5.91h-2.18l-1.88,5.91h-3.73l1.88-5.91h-2.15l-1.88,5.91h-3.24L454.74,11h2.92l-1.48,4.6H453l-.38,2.28h2.82l-1.91,6h2.21l1.88-6h3.7Zm2.65-8.29H458.4l1.44-4.6h3.69Zm-2.66-.74h2.12l1-3.12h-2.14Z"/><path class="logo_long_cls-1" d="M477.23,6h-.06l-4.3,1.91-.13-3.79,6.07-2.65h3.93l-4.1,21.81H474Z"/><path class="cls-2" d="M480.38,24.83H475l3.22-17.06L474,9.65l-.16-4.59,6.37-2.78h4.45Zm-4.53-.74h3.92l4-21.07h-3.4l-5.77,2.52.1,3,3.87-1.72h.59Z"/></g></g></svg>