<svg xmlns="http://www.w3.org/2000/svg" viewBox="0 0 669.43 618.86"><defs><style>.oic2020_logo_cls-1{fill:#fff;}.oic2020_logo_cls-2{fill:#0e0f0d;}</style></defs><title>oic2020_logo</title><g id="レイヤー_2" data-name="レイヤー 2"><g id="レイヤー_1-2" data-name="レイヤー 1"><path class="oic2020_logo_cls-1" d="M112.32,45.54c0,19.94-7,39.23-19.45,51.55-10.21,9.88-24,15.72-40.36,15.72-28.36,0-44.24-20.1-44.24-45.55,0-19.77,7.29-39.38,20.09-51.7A57.23,57.23,0,0,1,68.24,0C97.09,0,112.32,19.45,112.32,45.54ZM46.68,27.72c-8.75,8.59-13.62,25.6-13.62,38.73,0,15.4,7,26.91,22.86,26.91,6.81,0,13.29-3.08,18.31-7.94,8.59-8.59,13.29-26.58,13.29-39.23,0-13.61-4.86-26.74-22-26.74A25.88,25.88,0,0,0,46.68,27.72Z"/><path class="oic2020_logo_cls-1" d="M117.83,111,138.58,1.78H166L180.4,43.44c4.37,13.94,7.29,25.28,9.88,37.28h.49c.49-11.19,1.95-23.18,5-39.23l7.45-39.71H225L204.39,111H180.24L165,67.43a344,344,0,0,1-10.7-38.09l-.48.16c-1.3,10.53-3.89,26.09-7.13,43.27L139.55,111Z"/><path class="oic2020_logo_cls-1" d="M246.53,1.78h23.34L253,90.6h42L291.1,111H225.78Z"/><path class="oic2020_logo_cls-1" d="M348.32,1.78,327.57,111H304.23L325,1.78Z"/><path class="oic2020_logo_cls-1" d="M349.13,111,369.87,1.78h27.4l14.42,41.66c4.38,13.94,7.29,25.28,9.89,37.28h.48c.49-11.19,1.95-23.18,5-39.23l7.45-39.71h21.72L435.68,111H411.53l-15.24-43.6A341.74,341.74,0,0,1,385.6,29.34l-.49.16C383.81,40,381.22,55.59,378,72.77L370.85,111Z"/><path class="oic2020_logo_cls-1" d="M528.07,64.67h-38.9l-5,26.42h43.6L524,111H457.07L477.82,1.78h64.67L538.6,21.72H497.43l-4.54,23.34h38.9Z"/><path class="oic2020_logo_cls-1" d="M47.17,168.15,26.42,277.4H3.08L23.83,168.15Z"/><path class="oic2020_logo_cls-1" d="M48,277.4,68.72,168.15H96.11l14.43,41.66c4.37,13.94,7.29,25.28,9.89,37.28h.48c.49-11.19,2-23.18,5-39.23l7.45-39.71h21.72L134.53,277.4H110.38L95.14,233.8a344,344,0,0,1-10.7-38.09l-.48.16c-1.3,10.54-3.89,26.09-7.13,43.28L69.69,277.4Z"/><path class="oic2020_logo_cls-1" d="M192.55,188.58H163.7l4.05-20.43H249l-3.89,20.43H215.89L199.2,277.4H175.86Z"/><path class="oic2020_logo_cls-1" d="M312.33,231h-38.9l-5,26.42H312l-3.73,19.94H241.34l20.75-109.25h64.67l-3.89,19.94H281.7l-4.54,23.34h38.9Z"/><path class="oic2020_logo_cls-1" d="M345.72,170.26c7.3-1.78,18.32-2.92,29.18-2.92,10.37,0,21.07,1.62,28.69,6.32a23.71,23.71,0,0,1,12.15,21.4c0,16.21-10.86,26.26-24.8,30.79v.65c6.49,2.76,9.24,10.05,10.38,19.94,1.29,12.16,2.27,26.42,4.21,31h-24c-1-2.92-2.1-12.32-3.24-25.77-1-13.3-5.51-17.35-14.75-17.35h-7.13l-8.1,43.12H325.14Zm14.1,46.52h9.73c12.64,0,21.88-7.62,21.88-18.32,0-8.75-7.46-12.64-16.69-12.64a37.93,37.93,0,0,0-9.08.81Z"/><path class="oic2020_logo_cls-1" d="M419.63,277.4l20.75-109.25h27.39l14.43,41.66c4.37,13.94,7.29,25.28,9.88,37.28h.49c.49-11.19,1.95-23.18,5-39.23l7.45-39.71h21.72L506.19,277.4H482L466.8,233.8a344,344,0,0,1-10.7-38.09l-.48.16c-1.3,10.54-3.89,26.09-7.14,43.28l-7.13,38.25Z"/><path class="oic2020_logo_cls-1" d="M85.58,440.69c-5.84,2.59-15.72,4.7-28.85,4.7-28.85,0-48.3-17.51-48.3-46.36,0-24.47,11-43.6,27.55-54.62,11.35-7.94,24.8-11.67,40.2-11.67,11.83,0,20.74,2.76,23.82,4.7l-6.32,19c-3.24-1.63-10.37-3.57-19.77-3.57s-18.32,2.92-25,8.43c-9.24,7.45-15.07,19.93-15.07,35.17,0,17.34,9.72,29,29,29,7.62,0,15.23-1.29,20.74-3.56Z"/><path class="oic2020_logo_cls-1" d="M202.93,378.29c0,19.93-7,39.22-19.45,51.54-10.21,9.89-24,15.72-40.36,15.72-28.36,0-44.25-20.1-44.25-45.54,0-19.78,7.3-39.39,20.1-51.71a57.25,57.25,0,0,1,39.87-15.56C187.69,332.74,202.93,352.19,202.93,378.29Zm-65.64-17.83c-8.76,8.59-13.62,25.61-13.62,38.74,0,15.39,7,26.9,22.85,26.9,6.81,0,13.3-3.08,18.32-7.94,8.59-8.59,13.29-26.58,13.29-39.22,0-13.62-4.86-26.75-22-26.75A25.87,25.87,0,0,0,137.29,360.46Z"/><path class="oic2020_logo_cls-1" d="M208.44,443.77l20.75-109.24h27.39L271,376.18c4.38,13.94,7.3,25.28,9.89,37.28h.49c.48-11.19,1.94-23.18,5-39.23l7.46-39.7h21.72L295,443.77H270.84l-15.23-43.6a341.88,341.88,0,0,1-10.7-38.09l-.49.16c-1.29,10.54-3.89,26.1-7.13,43.28l-7.13,38.25Z"/><path class="oic2020_logo_cls-1" d="M353,355H324.17l4.05-20.42h81.2L405.53,355H376.36l-16.7,88.82H336.32Z"/><path class="oic2020_logo_cls-1" d="M472.8,397.41H433.9l-5,26.42h43.6l-3.72,19.94H401.81l20.74-109.24h64.67l-3.89,19.93H442.17l-4.54,23.34h38.9Z"/><path class="oic2020_logo_cls-1" d="M490.31,418.48a51.33,51.33,0,0,0,25.77,7c9.07,0,17.34-4.21,17.34-12.8,0-6.16-4.7-10.21-14.75-15.4C507,390.93,496,382.5,496,368.24c0-22.05,19.29-35.5,43.11-35.5,13.29,0,21.07,2.92,25.77,5.51l-7.29,19.45a43.61,43.61,0,0,0-20.42-4.86c-10.86,0-16.54,5.51-16.54,11.51,0,6.32,6.65,10.21,15.89,15.4,13.29,7,21.72,15.88,21.72,28.85,0,24.31-20.1,36.79-44.41,36.79-15.24,0-26.1-3.89-31.28-7.78Z"/><path class="oic2020_logo_cls-1" d="M604.9,355H576.05l4.05-20.42h81.2L657.41,355H628.24l-16.7,88.82H588.2Z"/><path class="oic2020_logo_cls-1" d="M0,610.14l2.76-15.07,22.69-17.51c21.07-17.18,34.68-29.5,34.68-42.14,0-7.46-5.18-12.81-14.59-12.81a41.46,41.46,0,0,0-22.2,6.16l-4.7-16.69A65,65,0,0,1,51.22,503c21.39,0,32.9,12.48,32.9,28.69,0,21.56-17.18,36.47-35.82,50.73l-10.37,7.46v.32H75.69L72,610.14Z"/><path class="oic2020_logo_cls-1" d="M174.24,539.15c0,32.9-15.89,72.77-49.11,72.77-21.88,0-30.47-16.85-30.47-37.93,0-33.22,16.85-71,49.27-71C166.62,503,174.24,520.35,174.24,539.15Zm-56.73,35.66c0,7.77,1.3,18.63,10.53,18.63,16.05,0,23.18-40.19,23.18-54.13,0-7-1-17.83-9.88-17.83C125.61,521.48,117.51,559.41,117.51,574.81Z"/><path class="oic2020_logo_cls-1" d="M175.37,610.14l2.76-15.07,22.69-17.51c21.07-17.18,34.68-29.5,34.68-42.14,0-7.46-5.18-12.81-14.58-12.81a41.5,41.5,0,0,0-22.21,6.16L194,512.08A65,65,0,0,1,226.59,503c21.39,0,32.9,12.48,32.9,28.69,0,21.56-17.18,36.47-35.82,50.73l-10.37,7.46v.32h37.76l-3.72,19.94Z"/><path class="oic2020_logo_cls-1" d="M349.61,539.15c0,32.9-15.88,72.77-49.11,72.77C278.62,611.92,270,595.07,270,574c0-33.22,16.85-71,49.27-71C342,503,349.61,520.35,349.61,539.15Zm-56.73,35.66c0,7.77,1.3,18.63,10.54,18.63,16,0,23.17-40.19,23.17-54.13,0-7-1-17.83-9.88-17.83C301,521.48,292.88,559.41,292.88,574.81Z"/><path class="oic2020_logo_cls-2" d="M59.43,119.74c-27.06,0-45.25-18.7-45.25-46.54,0-20.54,7.63-40.13,20.41-52.43A58.4,58.4,0,0,1,75.15,4.94c14,0,25.65,4.6,33.6,13.31,7.52,8.23,11.49,19.72,11.49,33.23,0,20.52-7.38,40.05-19.75,52.25C89.67,114.21,75.48,119.74,59.43,119.74ZM75.15,6.94A56.38,56.38,0,0,0,36,22.22c-12.39,11.92-19.79,31-19.79,51,0,26.64,17.38,44.54,43.25,44.54,15.52,0,29.23-5.34,39.66-15.44,12-11.83,19.15-30.83,19.15-50.82C118.24,24,101.73,6.94,75.15,6.94ZM62.84,100.29C47.68,100.29,39,90.12,39,72.39,39,59.57,43.76,41.92,52.89,33A26.76,26.76,0,0,1,72.4,24.39c14.86,0,23,9.85,23,27.74,0,12.77-4.76,31.11-13.58,39.93C76.37,97.37,69.61,100.29,62.84,100.29Zm9.56-73.9a24.82,24.82,0,0,0-18.09,8v0C45.56,43,41,60,41,72.39c0,16.46,8,25.9,21.86,25.9,6.25,0,12.51-2.72,17.62-7.66,8.43-8.43,13-26.13,13-38.5C93.44,40.38,89.79,26.39,72.4,26.39Z"/><path class="oic2020_logo_cls-2" d="M212.13,118H186.44L171,73.69c-4.15-12.6-7.06-22.14-9.78-34-1.38,10-3.68,23.7-6.61,39.2L147.3,118H123.54L144.67,6.72H173.6l14.66,42.33c3.56,11.34,6.26,21.21,8.74,32.09a283.61,283.61,0,0,1,4.73-33.9l7.61-40.52h23.75Zm-24.27-2h22.61L230.68,8.72H211l-7.3,38.89c-3,15.43-4.51,27.48-5,39.09l0,1h-2.26l-.17-.79c-2.81-13-5.76-24.12-9.86-37.19L172.18,8.72H146.33L126,116h19.68l7-37.43c3.34-17.73,5.87-33.08,7.12-43.22l.08-.62L162,34l.24,1.09a343.13,343.13,0,0,0,10.67,38Z"/><path class="oic2020_logo_cls-2" d="M298.84,118H231.49L252.62,6.72H278L261.14,95.54h42Zm-64.93-2h63.28l3.51-18.42h-42L275.58,8.72H254.27Z"/><path class="oic2020_logo_cls-2" d="M335.32,118H309.94L331.07,6.72h25.37Zm-23-2h21.3L354,8.72H332.72Z"/><path class="oic2020_logo_cls-2" d="M443.42,118H417.74L402.27,73.69c-4.16-12.6-7.06-22.14-9.79-34-1.37,10-3.68,23.7-6.6,39.2L378.59,118H354.84L376,6.72h28.93l14.66,42.33c3.56,11.34,6.26,21.21,8.74,32.09A287.77,287.77,0,0,1,433,47.24l7.61-40.52h23.76Zm-24.26-2h22.61L462,8.72H442.29L435,47.61c-3,15.42-4.51,27.47-5,39.09l0,1h-2.25l-.17-.79c-2.81-13-5.76-24.12-9.87-37.19L403.47,8.72H377.62L357.25,116h19.68l7-37.43c3.35-17.73,5.88-33.08,7.12-43.22l.08-.62,2.14-.72.24,1.09a345.32,345.32,0,0,0,10.67,38Z"/><path class="oic2020_logo_cls-2" d="M531.76,118h-69L483.91,6.72h66.71l-4.28,21.93H505.17L501,50h38.9l-4.11,21.62h-38.9L492.27,96h43.59Zm-66.56-2h64.9L533.45,98h-43.6l5.41-28.42h38.9L537.5,52H498.6l4.93-25.34h41.16l3.5-17.93H485.57Z"/><path class="oic2020_logo_cls-2" d="M34.16,284.33H8.79L29.92,173.09H55.29Zm-23-2H32.51L52.87,175.09H31.57Z"/><path class="oic2020_logo_cls-2" d="M142.27,284.33H116.58l-15.47-44.27c-4.15-12.6-7.06-22.14-9.78-34-1.38,10-3.68,23.7-6.6,39.2l-7.29,39.06H53.68L74.81,173.09h28.93l14.66,42.33c3.56,11.34,6.26,21.22,8.74,32.09a283.34,283.34,0,0,1,4.73-33.9l7.61-40.52h23.75Zm-24.27-2h22.61l20.21-107.24H141.14L133.84,214c-3,15.42-4.51,27.47-5,39.09l0,1h-2.25l-.17-.79c-2.81-13-5.76-24.11-9.87-37.19l-14.18-40.95H76.47L56.1,282.33H75.78l7-37.43c3.34-17.73,5.87-33.08,7.12-43.22l.08-.62,2.14-.72.24,1.09a343.13,343.13,0,0,0,10.67,38Z"/><path class="oic2020_logo_cls-2" d="M207,284.33H181.57l16.69-88.82H169.4l4.45-22.42h83.23l-4.27,22.42H223.64Zm-23-2h21.31L222,193.51h29.18l3.51-18.42H175.49l-3.65,18.42h28.84Z"/><path class="oic2020_logo_cls-2" d="M316,284.33h-69l21.13-111.24h66.71L330.61,195H289.44l-4.15,21.34h38.9L320.08,238h-38.9l-4.65,24.42h43.6Zm-66.56-2h64.9l3.35-17.93h-43.6l5.4-28.42h38.9l3.35-17.61H282.86L287.79,193H329l3.5-17.94H269.83Z"/><path class="oic2020_logo_cls-2" d="M414,284.33H387.74l-.23-.68c-1.21-3.64-2.46-16.15-3.29-26-1-13.75-5.8-16.43-13.75-16.43h-6.3l-8.11,43.11H330.85l20.93-108.95.62-.15c7.44-1.82,18.71-2.95,29.42-2.95,8.54,0,20.54,1.12,29.21,6.47A24.68,24.68,0,0,1,423.66,201c0,14.43-8.71,25.73-24,31.22,5.28,3,8.33,9.43,9.55,20,.28,2.64.55,5.37.81,8.08.92,9.43,1.86,19.18,3.33,22.6Zm-24.76-2H411c-1.3-4.35-2.12-12.85-3-21.79-.26-2.71-.53-5.43-.81-8.06-1.23-10.73-4.34-16.81-9.77-19.12l-.61-.26v-2l.69-.22c21-6.83,24.11-21.63,24.11-29.84A22.76,22.76,0,0,0,410,180.46c-8.28-5.11-19.89-6.18-28.17-6.18-10.27,0-21,1-28.32,2.74L333.27,282.33H354.4l8.11-43.11h8c10.37,0,14.78,5.12,15.75,18.27C387.29,270.26,388.35,279,389.21,282.33Zm-12.74-58.62H365.53l6.19-32,.61-.15a39.08,39.08,0,0,1,9.32-.84c10.92,0,17.7,5.22,17.7,13.64C399.35,215.59,389.72,223.71,376.47,223.71Zm-8.52-2h8.52c12.1,0,20.88-7.28,20.88-17.31,0-7.29-5.87-11.64-15.7-11.64a41.35,41.35,0,0,0-8.22.64Z"/><path class="oic2020_logo_cls-2" d="M513.93,284.33H488.24l-15.47-44.27c-4.15-12.6-7.06-22.13-9.78-34-1.38,10-3.68,23.7-6.61,39.2l-7.28,39.06H425.34l21.13-111.24H475.4l14.66,42.33c3.56,11.34,6.26,21.21,8.74,32.09a283.61,283.61,0,0,1,4.73-33.9l7.61-40.52h23.75Zm-24.27-2h22.61l20.21-107.24H512.8L505.5,214c-3,15.43-4.51,27.48-5,39.09l0,1h-2.26l-.17-.79c-2.81-13-5.76-24.11-9.86-37.19L474,175.09H448.13L427.76,282.33h19.68l7-37.43c3.34-17.73,5.87-33.07,7.12-43.22l.08-.62,2.14-.72.24,1.09a342.52,342.52,0,0,0,10.67,38Z"/><path class="oic2020_logo_cls-2" d="M63.65,452.32c-29.95,0-49.3-18.58-49.3-47.35,0-23.38,10.2-43.59,28-55.45,11.22-7.85,24.94-11.84,40.76-11.84,12.23,0,21.27,2.9,24.36,4.85l.66.42-6.94,20.8-1-.51c-3.19-1.6-10.17-3.46-19.32-3.46-9.31,0-17.95,2.91-24.33,8.19-9.35,7.55-14.71,20.09-14.71,34.41,0,17.8,10.21,28,28,28,7.56,0,15-1.27,20.37-3.49l1.24-.51,2.16,20.85-.67.3C86.06,450.58,75.39,452.32,63.65,452.32ZM83.1,339.68c-15.4,0-28.74,3.86-39.63,11.49-17.24,11.49-27.12,31.1-27.12,53.8,0,27.55,18.56,45.35,47.3,45.35,11.1,0,21.16-1.57,27.78-4.32l-1.74-16.77a60,60,0,0,1-19.89,3.16c-18.79,0-30-11.22-30-30,0-14.93,5.63-28,15.45-35.95,6.72-5.58,15.81-8.65,25.59-8.65,8.62,0,15.45,1.62,19.17,3.19l5.71-17.13C102.36,342.09,94,339.68,83.1,339.68Z"/><path class="oic2020_logo_cls-2" d="M150,452.49c-27.07,0-45.25-18.71-45.25-46.55,0-20.53,7.63-40.13,20.41-52.42a58.36,58.36,0,0,1,40.56-15.84c14,0,25.65,4.6,33.6,13.31,7.51,8.23,11.49,19.72,11.49,33.23,0,20.52-7.39,40-19.75,52.26C180.28,447,166.08,452.49,150,452.49Zm15.72-112.81A56.42,56.42,0,0,0,126.58,355c-12.39,11.92-19.79,31-19.79,51,0,26.64,17.38,44.55,43.25,44.55,15.51,0,29.23-5.34,39.66-15.44,12-11.83,19.15-30.84,19.15-50.83C208.85,356.75,192.34,339.68,165.76,339.68ZM153.44,433c-15.16,0-23.85-10.17-23.85-27.91,0-12.81,4.78-30.47,13.9-39.44A26.78,26.78,0,0,1,163,357.13c14.85,0,23,9.85,23,27.74,0,12.77-4.76,31.11-13.59,39.93C167,430.12,160.22,433,153.44,433ZM163,359.13a24.82,24.82,0,0,0-18.09,8l0,0c-8.74,8.58-13.31,25.62-13.31,38,0,16.46,8,25.91,21.85,25.91,6.26,0,12.52-2.72,17.62-7.66,8.43-8.43,13-26.14,13-38.51C184.05,373.13,180.4,359.13,163,359.13Z"/><path class="oic2020_logo_cls-2" d="M302.74,450.7H277.05l-15.47-44.27c-4.15-12.6-7.06-22.14-9.79-34-1.37,10-3.67,23.69-6.6,39.19l-7.28,39.06H214.15l21.13-111.24h28.93l14.66,42.33c3.56,11.34,6.25,21.21,8.74,32.09a283.61,283.61,0,0,1,4.73-33.9L300,339.46H323.7Zm-24.27-2h22.61l20.21-107.24H301.6l-7.3,38.89c-3,15.43-4.5,27.48-5,39.09l0,.95H287l-.17-.78c-2.81-13-5.76-24.13-9.86-37.19l-14.19-41H236.93L216.57,448.7h19.68l7-37.43c3.34-17.73,5.87-33.07,7.12-43.22l.08-.62,2.14-.72.23,1.09a346.92,346.92,0,0,0,10.67,38Z"/><path class="oic2020_logo_cls-2" d="M367.41,450.7H342l16.69-88.82H329.87l4.45-22.42h83.23l-4.27,22.42H384.11Zm-23-2h21.3l16.7-88.82h29.17l3.51-18.42H336l-3.66,18.42h28.84Z"/><path class="oic2020_logo_cls-2" d="M476.49,450.7h-69l21.12-111.24h66.71l-4.28,21.94H449.91l-4.15,21.34h38.89l-4.11,21.61h-38.9L437,428.77h43.6Zm-66.56-2h64.9l3.36-17.93H434.58L440,402.35h38.9l3.35-17.61H443.33l4.93-25.34h41.17l3.5-17.94H430.3Z"/><path class="oic2020_logo_cls-2" d="M520.72,452.32c-15.66,0-26.73-4.12-31.88-8l-.61-.46L496.74,423l1,.6A50.39,50.39,0,0,0,523,430.39c8.14,0,16.35-3.65,16.35-11.81,0-5.29-3.72-9.09-14.21-14.51-10.83-5.86-23.23-14.55-23.23-29.9,0-21.48,18.14-36.49,44.11-36.49,10.79,0,19.38,1.84,26.25,5.63l.76.42-8,21.34-1-.55a42.42,42.42,0,0,0-19.93-4.74c-7.5,0-15.55,3.28-15.55,10.5,0,5.61,5.84,9.18,15.38,14.53,15.15,7.95,22.22,17.4,22.22,29.72C566.13,437.49,548.31,452.32,520.72,452.32Zm-30.05-9.13c5.13,3.53,15.5,7.13,30.05,7.13,26.38,0,43.41-14.05,43.41-35.79,0-11.5-6.73-20.38-21.18-28-8.82-5-16.42-9.22-16.42-16.29,0-6,5.49-12.5,17.53-12.5A45,45,0,0,1,564,362.23l6.59-17.57c-6.45-3.35-14.48-5-24.53-5-24.8,0-42.11,14.18-42.11,34.49,0,14.3,11.84,22.55,22.16,28.14,9.67,5,15.28,9.25,15.28,16.27,0,9.54-9.22,13.81-18.35,13.81a52.68,52.68,0,0,1-25.27-6.53Z"/><path class="oic2020_logo_cls-2" d="M619.29,450.7H593.92l16.69-88.82H581.75l4.45-22.42h83.23l-4.27,22.42H636Zm-23-2h21.3l16.7-88.82H663.5L667,341.46H587.84l-3.66,18.42H613Z"/><path class="oic2020_logo_cls-2" d="M79.71,617.07h-74l3-16.63,23-17.74c20.08-16.36,34.3-28.92,34.3-41.35,0-7.28-5.21-11.8-13.59-11.8a40.6,40.6,0,0,0-21.68,6l-1.13.7-5.26-18.7.64-.4a65.85,65.85,0,0,1,33.1-9.22c20.6,0,33.91,11.65,33.91,29.69,0,22-17.13,36.92-36.21,51.52l-8.33,6H83.81Zm-71.59-2H78.05l3.36-17.93H43.84V595.3l10.79-7.75C73.28,573.28,90,558.71,90,537.63c0-16.82-12.53-27.69-31.91-27.69a63.82,63.82,0,0,0-31.4,8.54l4.14,14.7a42.64,42.64,0,0,1,21.59-5.63c9.47,0,15.59,5.42,15.59,13.8,0,13.31-14.53,26.19-35,42.92L10.59,601.56Z"/><path class="oic2020_logo_cls-2" d="M132,618.86c-20,0-31.47-14.19-31.47-38.93,0-17.61,4.6-35.28,12.63-48.47,9.35-15.39,22.37-23.52,37.65-23.52,19.89,0,31.3,13.54,31.3,37.14C182.15,580.85,164.59,618.86,132,618.86Zm18.81-108.92c-18.37,0-29.69,12.26-35.94,22.55-7.84,12.9-12.34,30.19-12.34,47.44,0,32.13,18.47,36.93,29.47,36.93,31.25,0,48.11-37,48.11-71.78C180.15,514.5,161.79,509.94,150.85,509.94ZM135,600.38c-7.65,0-11.53-6.61-11.53-19.64,0-16.25,8.44-54.32,24.82-54.32,7.23,0,10.89,6.33,10.89,18.83C159.14,560.43,151.7,600.38,135,600.38Zm13.29-72c-14.82,0-22.82,37.14-22.82,52.32,0,11.87,3.12,17.64,9.53,17.64,14.41,0,22.18-37.71,22.18-53.13C157.14,533.92,154.23,528.42,148.25,528.42Z"/><path class="oic2020_logo_cls-2" d="M255.08,617.07h-74l3-16.63,23-17.74c20.07-16.36,34.29-28.92,34.29-41.35,0-7.28-5.2-11.8-13.59-11.8a40.63,40.63,0,0,0-21.68,6l-1.12.7-5.27-18.7.65-.4a65.82,65.82,0,0,1,33.1-9.22c20.59,0,33.9,11.65,33.9,29.69,0,22-17.13,36.92-36.21,51.52l-8.33,6h36.32Zm-71.59-2h69.93l3.36-17.93H219.22V595.3L230,587.55c18.64-14.27,35.4-28.84,35.4-49.92,0-16.82-12.52-27.69-31.9-27.69a63.83,63.83,0,0,0-31.41,8.54l4.14,14.7a42.64,42.64,0,0,1,21.59-5.63c9.47,0,15.59,5.42,15.59,13.8,0,13.31-14.53,26.19-35,42.92L186,601.56Z"/><path class="oic2020_logo_cls-2" d="M307.42,618.86c-20,0-31.48-14.19-31.48-38.93,0-17.61,4.61-35.28,12.63-48.47,9.36-15.39,22.37-23.52,37.65-23.52,19.89,0,31.31,13.54,31.31,37.14C357.53,580.85,340,618.86,307.42,618.86Zm18.8-108.92c-18.37,0-29.68,12.26-35.94,22.55-7.84,12.9-12.34,30.19-12.34,47.44,0,32.13,18.47,36.93,29.48,36.93,31.25,0,48.11-37,48.11-71.78C355.53,514.5,337.16,509.94,326.22,509.94Zm-15.89,90.44c-7.65,0-11.53-6.61-11.53-19.64,0-16.25,8.44-54.32,24.82-54.32,7.23,0,10.89,6.33,10.89,18.83C334.51,560.43,327.08,600.38,310.33,600.38Zm13.29-72c-14.82,0-22.82,37.14-22.82,52.32,0,11.87,3.12,17.64,9.53,17.64,14.41,0,22.18-37.71,22.18-53.13C332.51,533.92,329.6,528.42,323.62,528.42Z"/></g></g></svg>