<svg xmlns="http://www.w3.org/2000/svg" viewBox="0 0 49.55 38.91"><defs><style>.prossell_cls-1{fill:#fff;}</style></defs><title>prossell</title><g id="レイヤー_2" data-name="レイヤー 2"><g id="レイヤー_1-2" data-name="レイヤー 1"><path class="prossell_cls-1" d="M26.69.05a.52.52,0,0,1,.23,1c-6.6,3.57-9.88,10-10.35,16.75a.91.91,0,0,1-1,.91l-14.3,0c-.9,0-1.25-.47-1.24-1.35C.58,3.48,15.28-.48,26.69.05Z"/><path class="prossell_cls-1" d="M32.1.89C26.59,33.83,6.29,11,.23,37.6c-.19.81.33,1.31,1.27,1.31H16.37c.72,0,1.17-.31,1.27-.87C23.67,5.83,43.45,30,49.51,1.3c.14-.67-.09-1.3-1-1.3H33.15A1,1,0,0,0,32.1.89Z"/></g></g></svg>