<svg xmlns="http://www.w3.org/2000/svg" xmlns:xlink="http://www.w3.org/1999/xlink" viewBox="0 0 396.92 47.49"><defs><style>.sankaoubo_cls-1{fill:#fff;}.sankaoubo_cls-2{fill:url(#名称未設定グラデーション_4);}</style><linearGradient id="名称未設定グラデーション_4" y1="23.75" x2="396.92" y2="23.75" gradientUnits="userSpaceOnUse"><stop offset="0" stop-color="#d8ff6c"/><stop offset="1" stop-color="#9ad4b6"/></linearGradient></defs><title>sankaoubo</title><g id="レイヤー_2" data-name="レイヤー 2"><g id="レイヤー_1-2" data-name="レイヤー 1"><path class="sankaoubo_cls-1" d="M48.42,27.07a44.22,44.22,0,0,0-5,5.45,34.49,34.49,0,0,1-14.52-11.7H22a43.2,43.2,0,0,1-6.68,5.7,30.62,30.62,0,0,0,11.78-4.89l3.61,3.43-.56.3a42.49,42.49,0,0,1-20.4,7.16c-.08-.66-.33-1.51-.56-2.47a53,53,0,0,1-5.61,2.27A47.17,47.17,0,0,0,0,27.17a38.67,38.67,0,0,0,13.65-6.35H7.5c-2.06,0-3.68,0-5,.1l1.08-6c1.3.1,2.91.1,5,.1H19.44c.59-.75,1.13-1.51,1.68-2.31-4.27.15-8.23.3-10.65.35l-2.86.2c-.08-1-.09-4-.08-6,.8.05,2.3.15,3.7.2h4.33C18.47,5.09,21.85,1.76,22.87,0l7,2a10.49,10.49,0,0,0-.87.6C27.65,4,25.88,5.65,24.07,7.31c3.8-.1,7.71-.25,10.91-.4a34.55,34.55,0,0,0-2.75-2.62l5.4-2.83a53.32,53.32,0,0,1,9.58,9.73c-1.58,1-4.35,2.57-6.16,3.68a33.3,33.3,0,0,0-1.92-3l-10.79.55c-.57.91-1.14,1.82-1.69,2.67H44.44c2.12,0,3.73,0,5.06-.1l-1.08,6c-1.29-.1-2.9-.1-5-.1H36.75A35.17,35.17,0,0,0,48.42,27.07ZM37.23,31l4.31,3.73A4.59,4.59,0,0,0,41,35c-9.46,6.86-20.16,11.09-35.52,12.1a55,55,0,0,0-1.7-5.6C18.06,41,28.66,37.61,37.23,31Zm-1.69-1c-7.95,5.49-16.91,8.77-28.46,9.63a32.1,32.1,0,0,0-1.82-5c11.64-.81,20.17-3.33,26.82-8.32l4,3.48A4.92,4.92,0,0,0,35.54,30Z"/><path class="sankaoubo_cls-1" d="M77.46,12.3C74,31.46,72.69,36.4,71,39.78c-1.81,3.83-5.53,5.75-11.28,5.75-.07-1-.47-4.34-.79-6.76a34.7,34.7,0,0,1-5.7,7.82c-1.13-1-3.83-3.08-5.57-4.34,5.68-5.19,9.45-12.35,12.64-25.51H56.74c-1,0-2,0-2.78.05l1.18-6.51c.75.06,1.76.06,2.76.06h3.84c.38-1.87.73-3.79,1.11-5.85.18-1,.45-2.78.58-3.78,2.05.1,5.26.2,6.56.25,0,.25-.26.91-.36,1.41-.51,2.82-1,5.49-1.54,8h9.83C77.76,10.94,77.54,11.85,77.46,12.3ZM65.73,35.85c.91-2,1.76-5.25,4.37-19.11H66.68c-2.3,9.58-4.75,16.43-7.56,21.63a9.88,9.88,0,0,0,2.51.35C63.65,38.72,64.85,37.91,65.73,35.85ZM93.82,42.2l-.51,3.38H86.6l.62-3.38h-6l-.62,3.38H73.9c.21-.91.5-2.22.71-3.38L80.64,9c.22-1.21.39-2.47.51-3.37h19.41c-.25,1.11-.5,2.16-.71,3.37Zm-5.45-6.35,4.34-24h-6l-4.34,24Z"/><path class="sankaoubo_cls-1" d="M103.27,46.53a68.53,68.53,0,0,0-4.69-5.84c3-3.48,5.56-8.68,7.22-17.85l2.8-15.43c.08-.45.21-1.46.27-2.07h17.95l.7-3.88a11.46,11.46,0,0,0,.14-1.31c1.56,0,5.78.1,7.22.2-.11.36-.24.81-.3,1.11l-.7,3.88h12.5c1.82,0,3.28,0,4.45,0l-1.15,6.31c-1.14-.1-2.6-.1-4.41-.1H129.49a49.92,49.92,0,0,1,9.42,5.84c-1.35,1.62-3.31,3.84-5,5.65-2.34-2.67-7.09-5.7-9.91-7.11l4.33-4.38H114.77l-2,11.29C110.87,33,107.34,41.9,103.27,46.53ZM115.53,23.7l5.56,1.56a3.87,3.87,0,0,0-.39.76A45.85,45.85,0,0,1,113,42.85c-.93-1-3-2.62-4.28-3.63C111.6,35.9,114.64,28.33,115.53,23.7ZM133.76,33c1.67,1.06,4.4,2.73,5.77,3.48-1.62,7.26-4,10.24-11.89,10.24-4.53,0-6.44-.36-7.43-1.26-1.12-1.06-1.06-2.78-.45-6.16.29-1.31,2.48-13.41,3.1-16.78a9.79,9.79,0,0,0,.13-1.31c1.79.15,4.89.3,6.73.45a5.56,5.56,0,0,0-.3,1.06l-3.06,16.89c-.1.55.12.75.45.85a8.39,8.39,0,0,0,2.34.16,3.1,3.1,0,0,0,2.77-1.11C132.55,38.52,133,37,133.76,33Zm13.52,2.47c-1.75.76-4.77,2.12-6.83,3.18a57.79,57.79,0,0,0-3.85-13.26l6.08-2.67A59.47,59.47,0,0,1,147.28,35.44Z"/><path class="sankaoubo_cls-1" d="M194,39.78a36.6,36.6,0,0,1-5.92-2.67c-.56,2.57-1.14,4.64-2.33,6.2-1.64,2.37-5.27,3.78-11.88,3.78-.1-1.11-.55-3.93-.86-5.8a10.94,10.94,0,0,0,3.48.56c2.21,0,3.56-.46,4.27-1.31a5.43,5.43,0,0,0,.74-1.62h-6.9c-3.65,4.84-10.52,7.41-20.26,8.57-.47-1.31-1.53-3.78-2.22-5.29,6.54-.45,11.31-1.46,14.51-3.28h-3.38c-1.06,0-2,0-2.93,0l.42-2.32a48.79,48.79,0,0,1-8,2.78,28.32,28.32,0,0,0-2.42-5,39.9,39.9,0,0,0,12.18-4.33h-5.79c-2,0-3.53,0-4.81.1l.94-5.19c1.24.1,2.75.1,4.77.1h11.6c.43-.46.87-.91,1.25-1.36H159.34c.13-.46.29-1.06.4-1.67l1.85-10.18a15.24,15.24,0,0,0,.2-1.67h33.27c-.14.51-.24,1.06-.35,1.67L192.86,22l-.25,1.67H177l-1,1.36h18.3c2,0,3.53,0,4.86-.1l-.94,5.19c-1.29-.1-2.81-.1-4.82-.1h-6.91a37.63,37.63,0,0,0,11.29,4.49A47.93,47.93,0,0,0,194,39.78ZM161,7.86c-2,0-3.53,0-4.86.11l1-5.5c1.3,0,2.81,0,4.83,0h7l.12-.71a10.83,10.83,0,0,0,.2-1.36c1.3,0,5.06.15,6.36.26a9.39,9.39,0,0,0-.26,1.1l-.12.71h9.07l.13-.71c.07-.4.16-.9.2-1.36,1.35,0,5.16.15,6.45.26-.12.4-.19.8-.25,1.1l-.13.71h7c2,0,3.58,0,4.85,0l-1,5.5c-1.24-.11-2.8-.11-4.82-.11h-7l0,.21a12.51,12.51,0,0,0-.15,1.36H183c.11-.35.21-.91.3-1.36l0-.21h-9.07l0,.21a13.58,13.58,0,0,0-.2,1.36h-6.45a10.32,10.32,0,0,0,.35-1.36l0-.21Zm16.76,23.5c0,.2-.24.81-.31,1.16a12.38,12.38,0,0,1-.49,1.86h7.16a28,28,0,0,1-4.31-4.33h-8.62a44.47,44.47,0,0,1-6.08,4.33h5.75a11.09,11.09,0,0,0,.65-2.16c.06-.36.12-1,.15-1.11C173.56,31.16,176.57,31.26,177.76,31.36ZM167,20.12h19.2l.29-1.57H167.28Zm1.15-6.36-.27,1.47h19.21l.26-1.47Z"/><path class="sankaoubo_cls-1" d="M216.43,26.92c-4,7.77-5.23,11.6-6.1,16.94l-6.67,1.77c-.83-4.34-.41-11.09.77-17.6a156,156,0,0,1,7.12-25.36L218.82,4a109.15,109.15,0,0,0-8.19,24.61l-.26,1.46c1.07-2.32,2.12-4.49,3-6.15ZM242.12,41.8a26.77,26.77,0,0,0-5.32-4.59c-1.49,4.59-5.94,7.71-12,7.71s-10.44-3-9.48-8.32,5.77-8.16,12.12-8.16a31.73,31.73,0,0,1,3.94.25c.47-3.18,1-7,1.54-10.49-4.12.2-8.57.3-12.89.2l.93-6.8a100.63,100.63,0,0,0,13,.05l.11-.61a78.71,78.71,0,0,1,1.7-8l7.11.55a37.79,37.79,0,0,0-2,7.61,54.9,54.9,0,0,0,7.5-1.06l-.82,6.76c-1.71.25-4.49.55-7.82.86-.79,4.94-1.37,9.22-1.8,12.45a33.46,33.46,0,0,1,8.61,5.34Zm-11.7-6.66.12-.65a13.33,13.33,0,0,0-3.69-.56c-3.27,0-4.39.86-4.61,2.12-.32,1.76,1,2.67,3.55,2.67A4.4,4.4,0,0,0,230.42,35.14Z"/><path class="sankaoubo_cls-1" d="M277,41.85l.52-2.32H253.77c-1.11,0-2.64.1-3.25.15l1.4-7.72c.54,0,2,.16,3.19.16h23.75l3-16.64-23.51,0c-1.21,0-2.64.1-3.25.15L256.51,8c.54.05,2,.1,3.21.1h31.1l-5.48,30.25c-.26,1.41-.54,3.27-.58,3.48Z"/><path class="sankaoubo_cls-1" d="M336.9,18.45l-1.33,7.31c-.6-.05-2.15-.1-3.31-.1h-12.7c-3.26,10.19-8.79,15.63-17.82,19.87a44.87,44.87,0,0,0-5.29-5.3c8.33-3.12,12.91-7.56,15.59-14.57H297.57c-1.1,0-2.73.05-3.39.1l1.32-7.26c.6,0,2.15.05,3.36.05h15.08c.24-1.31.76-4.18,1.24-6.55-5.12.7-9.91,1.26-12.26,1.41a34.65,34.65,0,0,0-2.35-6.75C309.1,6.6,326.06,4.24,330.86,2l3.39,6.6a27.87,27.87,0,0,0-3.07.56c-1.92.55-4.95,1.1-8.38,1.71-.46,2.52-1.21,6.4-1.45,7.71h12.2C334.76,18.55,336.28,18.5,336.9,18.45Z"/><path class="sankaoubo_cls-1" d="M378.54,19.31l-.91.81c-6.43,13.26-16.1,21.78-29.23,25.81a28.42,28.42,0,0,0-4.92-6c13-2.87,21.12-10.54,24.75-17.19h-23.7c-1,0-2.73.05-3.75.1l1.32-7.26c.95,0,2.6.1,3.71.1h27.48l1-.5ZM350.07,10c-1.06,0-2.64.1-3.25.1L348.12,3c.55,0,2.05.11,3.21.11h22.59c.55,0,2-.06,2.54-.11l-1.3,7.16c-.41,0-1.4-.1-2.5-.1Z"/><path class="sankaoubo_cls-1" d="M382.24,35.59h8.62l-1.44,8h-8.63ZM387.19,5.5h9.73l-6.15,26.41h-7.06Z"/><path class="sankaoubo_cls-2" d="M48.42,27.07a44.22,44.22,0,0,0-5,5.45,34.49,34.49,0,0,1-14.52-11.7H22a43.2,43.2,0,0,1-6.68,5.7,30.62,30.62,0,0,0,11.78-4.89l3.61,3.43-.56.3a42.49,42.49,0,0,1-20.4,7.16c-.08-.66-.33-1.51-.56-2.47a53,53,0,0,1-5.61,2.27A47.17,47.17,0,0,0,0,27.17a38.67,38.67,0,0,0,13.65-6.35H7.5c-2.06,0-3.68,0-5,.1l1.08-6c1.3.1,2.91.1,5,.1H19.44c.59-.75,1.13-1.51,1.68-2.31-4.27.15-8.23.3-10.65.35l-2.86.2c-.08-1-.09-4-.08-6,.8.05,2.3.15,3.7.2h4.33C18.47,5.09,21.85,1.76,22.87,0l7,2a10.49,10.49,0,0,0-.87.6C27.65,4,25.88,5.65,24.07,7.31c3.8-.1,7.71-.25,10.91-.4a34.55,34.55,0,0,0-2.75-2.62l5.4-2.83a53.32,53.32,0,0,1,9.58,9.73c-1.58,1-4.35,2.57-6.16,3.68a33.3,33.3,0,0,0-1.92-3l-10.79.55c-.57.91-1.14,1.82-1.69,2.67H44.44c2.12,0,3.73,0,5.06-.1l-1.08,6c-1.29-.1-2.9-.1-5-.1H36.75A35.17,35.17,0,0,0,48.42,27.07ZM37.23,31l4.31,3.73A4.59,4.59,0,0,0,41,35c-9.46,6.86-20.16,11.09-35.52,12.1a55,55,0,0,0-1.7-5.6C18.06,41,28.66,37.61,37.23,31Zm-1.69-1c-7.95,5.49-16.91,8.77-28.46,9.63a32.1,32.1,0,0,0-1.82-5c11.64-.81,20.17-3.33,26.82-8.32l4,3.48A4.92,4.92,0,0,0,35.54,30Z"/><path class="sankaoubo_cls-2" d="M77.46,12.3C74,31.46,72.69,36.4,71,39.78c-1.81,3.83-5.53,5.75-11.28,5.75-.07-1-.47-4.34-.79-6.76a34.7,34.7,0,0,1-5.7,7.82c-1.13-1-3.83-3.08-5.57-4.34,5.68-5.19,9.45-12.35,12.64-25.51H56.74c-1,0-2,0-2.78.05l1.18-6.51c.75.06,1.76.06,2.76.06h3.84c.38-1.87.73-3.79,1.11-5.85.18-1,.45-2.78.58-3.78,2.05.1,5.26.2,6.56.25,0,.25-.26.91-.36,1.41-.51,2.82-1,5.49-1.54,8h9.83C77.76,10.94,77.54,11.85,77.46,12.3ZM65.73,35.85c.91-2,1.76-5.25,4.37-19.11H66.68c-2.3,9.58-4.75,16.43-7.56,21.63a9.88,9.88,0,0,0,2.51.35C63.65,38.72,64.85,37.91,65.73,35.85ZM93.82,42.2l-.51,3.38H86.6l.62-3.38h-6l-.62,3.38H73.9c.21-.91.5-2.22.71-3.38L80.64,9c.22-1.21.39-2.47.51-3.37h19.41c-.25,1.11-.5,2.16-.71,3.37Zm-5.45-6.35,4.34-24h-6l-4.34,24Z"/><path class="sankaoubo_cls-2" d="M103.27,46.53a68.53,68.53,0,0,0-4.69-5.84c3-3.48,5.56-8.68,7.22-17.85l2.8-15.43c.08-.45.21-1.46.27-2.07h17.95l.7-3.88a11.46,11.46,0,0,0,.14-1.31c1.56,0,5.78.1,7.22.2-.11.36-.24.81-.3,1.11l-.7,3.88h12.5c1.82,0,3.28,0,4.45,0l-1.15,6.31c-1.14-.1-2.6-.1-4.41-.1H129.49a49.92,49.92,0,0,1,9.42,5.84c-1.35,1.62-3.31,3.84-5,5.65-2.34-2.67-7.09-5.7-9.91-7.11l4.33-4.38H114.77l-2,11.29C110.87,33,107.34,41.9,103.27,46.53ZM115.53,23.7l5.56,1.56a3.87,3.87,0,0,0-.39.76A45.85,45.85,0,0,1,113,42.85c-.93-1-3-2.62-4.28-3.63C111.6,35.9,114.64,28.33,115.53,23.7ZM133.76,33c1.67,1.06,4.4,2.73,5.77,3.48-1.62,7.26-4,10.24-11.89,10.24-4.53,0-6.44-.36-7.43-1.26-1.12-1.06-1.06-2.78-.45-6.16.29-1.31,2.48-13.41,3.1-16.78a9.79,9.79,0,0,0,.13-1.31c1.79.15,4.89.3,6.73.45a5.56,5.56,0,0,0-.3,1.06l-3.06,16.89c-.1.55.12.75.45.85a8.39,8.39,0,0,0,2.34.16,3.1,3.1,0,0,0,2.77-1.11C132.55,38.52,133,37,133.76,33Zm13.52,2.47c-1.75.76-4.77,2.12-6.83,3.18a57.79,57.79,0,0,0-3.85-13.26l6.08-2.67A59.47,59.47,0,0,1,147.28,35.44Z"/><path class="sankaoubo_cls-2" d="M194,39.78a36.6,36.6,0,0,1-5.92-2.67c-.56,2.57-1.14,4.64-2.33,6.2-1.64,2.37-5.27,3.78-11.88,3.78-.1-1.11-.55-3.93-.86-5.8a10.94,10.94,0,0,0,3.48.56c2.21,0,3.56-.46,4.27-1.31a5.43,5.43,0,0,0,.74-1.62h-6.9c-3.65,4.84-10.52,7.41-20.26,8.57-.47-1.31-1.53-3.78-2.22-5.29,6.54-.45,11.31-1.46,14.51-3.28h-3.38c-1.06,0-2,0-2.93,0l.42-2.32a48.79,48.79,0,0,1-8,2.78,28.32,28.32,0,0,0-2.42-5,39.9,39.9,0,0,0,12.18-4.33h-5.79c-2,0-3.53,0-4.81.1l.94-5.19c1.24.1,2.75.1,4.77.1h11.6c.43-.46.87-.91,1.25-1.36H159.34c.13-.46.29-1.06.4-1.67l1.85-10.18a15.24,15.24,0,0,0,.2-1.67h33.27c-.14.51-.24,1.06-.35,1.67L192.86,22l-.25,1.67H177l-1,1.36h18.3c2,0,3.53,0,4.86-.1l-.94,5.19c-1.29-.1-2.81-.1-4.82-.1h-6.91a37.63,37.63,0,0,0,11.29,4.49A47.93,47.93,0,0,0,194,39.78ZM161,7.86c-2,0-3.53,0-4.86.11l1-5.5c1.3,0,2.81,0,4.83,0h7l.12-.71a10.83,10.83,0,0,0,.2-1.36c1.3,0,5.06.15,6.36.26a9.39,9.39,0,0,0-.26,1.1l-.12.71h9.07l.13-.71c.07-.4.16-.9.2-1.36,1.35,0,5.16.15,6.45.26-.12.4-.19.8-.25,1.1l-.13.71h7c2,0,3.58,0,4.85,0l-1,5.5c-1.24-.11-2.8-.11-4.82-.11h-7l0,.21a12.51,12.51,0,0,0-.15,1.36H183c.11-.35.21-.91.3-1.36l0-.21h-9.07l0,.21a13.58,13.58,0,0,0-.2,1.36h-6.45a10.32,10.32,0,0,0,.35-1.36l0-.21Zm16.76,23.5c0,.2-.24.81-.31,1.16a12.38,12.38,0,0,1-.49,1.86h7.16a28,28,0,0,1-4.31-4.33h-8.62a44.47,44.47,0,0,1-6.08,4.33h5.75a11.09,11.09,0,0,0,.65-2.16c.06-.36.12-1,.15-1.11C173.56,31.16,176.57,31.26,177.76,31.36ZM167,20.12h19.2l.29-1.57H167.28Zm1.15-6.36-.27,1.47h19.21l.26-1.47Z"/><path class="sankaoubo_cls-2" d="M216.43,26.92c-4,7.77-5.23,11.6-6.1,16.94l-6.67,1.77c-.83-4.34-.41-11.09.77-17.6a156,156,0,0,1,7.12-25.36L218.82,4a109.15,109.15,0,0,0-8.19,24.61l-.26,1.46c1.07-2.32,2.12-4.49,3-6.15ZM242.12,41.8a26.77,26.77,0,0,0-5.32-4.59c-1.49,4.59-5.94,7.71-12,7.71s-10.44-3-9.48-8.32,5.77-8.16,12.12-8.16a31.73,31.73,0,0,1,3.94.25c.47-3.18,1-7,1.54-10.49-4.12.2-8.57.3-12.89.2l.93-6.8a100.63,100.63,0,0,0,13,.05l.11-.61a78.71,78.71,0,0,1,1.7-8l7.11.55a37.79,37.79,0,0,0-2,7.61,54.9,54.9,0,0,0,7.5-1.06l-.82,6.76c-1.71.25-4.49.55-7.82.86-.79,4.94-1.37,9.22-1.8,12.45a33.46,33.46,0,0,1,8.61,5.34Zm-11.7-6.66.12-.65a13.33,13.33,0,0,0-3.69-.56c-3.27,0-4.39.86-4.61,2.12-.32,1.76,1,2.67,3.55,2.67A4.4,4.4,0,0,0,230.42,35.14Z"/><path class="sankaoubo_cls-2" d="M277,41.85l.52-2.32H253.77c-1.11,0-2.64.1-3.25.15l1.4-7.72c.54,0,2,.16,3.19.16h23.75l3-16.64-23.51,0c-1.21,0-2.64.1-3.25.15L256.51,8c.54.05,2,.1,3.21.1h31.1l-5.48,30.25c-.26,1.41-.54,3.27-.58,3.48Z"/><path class="sankaoubo_cls-2" d="M336.9,18.45l-1.33,7.31c-.6-.05-2.15-.1-3.31-.1h-12.7c-3.26,10.19-8.79,15.63-17.82,19.87a44.87,44.87,0,0,0-5.29-5.3c8.33-3.12,12.91-7.56,15.59-14.57H297.57c-1.1,0-2.73.05-3.39.1l1.32-7.26c.6,0,2.15.05,3.36.05h15.08c.24-1.31.76-4.18,1.24-6.55-5.12.7-9.91,1.26-12.26,1.41a34.65,34.65,0,0,0-2.35-6.75C309.1,6.6,326.06,4.24,330.86,2l3.39,6.6a27.87,27.87,0,0,0-3.07.56c-1.92.55-4.95,1.1-8.38,1.71-.46,2.52-1.21,6.4-1.45,7.71h12.2C334.76,18.55,336.28,18.5,336.9,18.45Z"/><path class="sankaoubo_cls-2" d="M378.54,19.31l-.91.81c-6.43,13.26-16.1,21.78-29.23,25.81a28.42,28.42,0,0,0-4.92-6c13-2.87,21.12-10.54,24.75-17.19h-23.7c-1,0-2.73.05-3.75.1l1.32-7.26c.95,0,2.6.1,3.71.1h27.48l1-.5ZM350.07,10c-1.06,0-2.64.1-3.25.1L348.12,3c.55,0,2.05.11,3.21.11h22.59c.55,0,2-.06,2.54-.11l-1.3,7.16c-.41,0-1.4-.1-2.5-.1Z"/><path class="sankaoubo_cls-2" d="M382.24,35.59h8.62l-1.44,8h-8.63ZM387.19,5.5h9.73l-6.15,26.41h-7.06Z"/></g></g></svg>