<svg xmlns="http://www.w3.org/2000/svg" viewBox="0 0 63.13 17.3"><defs><style>.scroll_cls-1{fill:#0e0f0d;}</style></defs><title>scroll</title><g id="レイヤー_2" data-name="レイヤー 2"><g id="レイヤー_1-2" data-name="レイヤー 1"><path class="scroll_cls-1" d="M0,16.72l.51-2.57a11.16,11.16,0,0,0,4.06,1,3.45,3.45,0,0,0,2.3-.65,2.09,2.09,0,0,0,.77-1.67,2.17,2.17,0,0,0-.58-1.51,9.15,9.15,0,0,0-1.27-1.14l-.9-.66A9,9,0,0,1,2.94,7.62a3.46,3.46,0,0,1-.65-2,4.38,4.38,0,0,1,.76-2.47,5.18,5.18,0,0,1,2.07-1.8A7.21,7.21,0,0,1,8.34.66a15.18,15.18,0,0,1,4.42.71l-.47,2.39a10.69,10.69,0,0,0-4-.92,3,3,0,0,0-1.93.55,1.71,1.71,0,0,0-.72,1.42A1.76,1.76,0,0,0,6.09,6,7.6,7.6,0,0,0,7.42,7.17l1,.73a8.83,8.83,0,0,1,2.29,2.26,3.87,3.87,0,0,1,.59,2.06,4.4,4.4,0,0,1-.83,2.51A5.4,5.4,0,0,1,8.1,16.62a9.62,9.62,0,0,1-3.89.68A15.49,15.49,0,0,1,0,16.72Z"/><path class="scroll_cls-1" d="M22.22,16.13a12.12,12.12,0,0,1-4.68,1,4.31,4.31,0,0,1-3-1.05,3.69,3.69,0,0,1-1.17-2.9,8.33,8.33,0,0,1,1.09-4,8.48,8.48,0,0,1,3-3.14,7,7,0,0,1,3.77-1.17,9,9,0,0,1,2.88.54l-.44,2.23A6.62,6.62,0,0,0,21,6.86a3.31,3.31,0,0,0-2,.72A5.43,5.43,0,0,0,17.4,9.77a7.29,7.29,0,0,0-.63,2.89,2.19,2.19,0,0,0,.58,1.68,2.14,2.14,0,0,0,1.46.52,4.77,4.77,0,0,0,1.07-.15,10.92,10.92,0,0,0,1.35-.39,8.16,8.16,0,0,0,1.49-.69Z"/><path class="scroll_cls-1" d="M25,16.9,27.32,5.15h3.16l-1,4.88A13.25,13.25,0,0,1,32.3,6.26a4.4,4.4,0,0,1,2.79-1.38A2.86,2.86,0,0,1,36,5l-.92,3a2.16,2.16,0,0,0-.9-.24,3.74,3.74,0,0,0-2.59,1.63A30.9,30.9,0,0,0,28.92,13l-.78,3.89Z"/><path class="scroll_cls-1" d="M40.52,17.17a4.59,4.59,0,0,1-3.22-1.09,3.64,3.64,0,0,1-1.2-2.84,8.66,8.66,0,0,1,1.11-4.13A8.26,8.26,0,0,1,40,6a6.85,6.85,0,0,1,3.76-1.08A4.72,4.72,0,0,1,47.08,6a3.7,3.7,0,0,1,1.19,2.84,8.66,8.66,0,0,1-1.11,4.13,8.4,8.4,0,0,1-2.78,3.14A6.87,6.87,0,0,1,40.52,17.17Zm.67-2.06a2.66,2.66,0,0,0,1.89-.76,5.69,5.69,0,0,0,1.33-2.15,8,8,0,0,0,.53-2.83,3,3,0,0,0-.47-1.82,1.58,1.58,0,0,0-1.34-.61,2.63,2.63,0,0,0-1.83.76A5.71,5.71,0,0,0,40,9.84a8.06,8.06,0,0,0-.53,2.87,2.87,2.87,0,0,0,.48,1.79A1.52,1.52,0,0,0,41.19,15.11Z"/><path class="scroll_cls-1" d="M49.66,16.9,53,0h3.16L52.82,16.9Z"/><path class="scroll_cls-1" d="M56.59,16.9,60,0h3.17L59.76,16.9Z"/></g></g></svg>