<svg xmlns="http://www.w3.org/2000/svg" viewBox="0 0 40.16 54.41"><defs><style>.three_cls-1{fill:#0e0f0d;}</style></defs><title>three</title><g id="レイヤー_2" data-name="レイヤー 2"><g id="レイヤー_1-2" data-name="レイヤー 1"><path class="three_cls-1" d="M0,52.59l1.47-7.28,1.39.42A39.2,39.2,0,0,0,14,47.93a13.36,13.36,0,0,0,6.13-1.38,10.21,10.21,0,0,0,4.27-4,10.53,10.53,0,0,0,1.55-5.44,7,7,0,0,0-3.81-6.46q-3.8-2.16-11.45-2.16H8.86L10.15,22h3Q22,22,25.84,18.77c2.54-2.17,3.82-4.45,3.82-6.83a4.81,4.81,0,0,0-2-3.85C26.35,7,24.22,6.48,21.29,6.48a31.71,31.71,0,0,0-6.54.75A43.1,43.1,0,0,0,9.38,8.65l1.4-7A56.9,56.9,0,0,1,24.48,0q8.06,0,11.87,2.78a8.67,8.67,0,0,1,3.81,7.34,11.93,11.93,0,0,1-1.52,5.79,16.17,16.17,0,0,1-4.43,5,26.89,26.89,0,0,1-7.88,3.89A14.57,14.57,0,0,1,34,29.5a11.24,11.24,0,0,1,2.61,7.23,15.64,15.64,0,0,1-2.94,9.05,18.44,18.44,0,0,1-7.82,6.44A28.86,28.86,0,0,1,14,54.41,57,57,0,0,1,0,52.59Z"/></g></g></svg>