<svg xmlns="http://www.w3.org/2000/svg" viewBox="0 0 60.35 65.12"><defs><style>.top_cls-1{fill:#0e0f0d;}</style></defs><title>top</title><g id="レイヤー_2" data-name="レイヤー 2"><g id="レイヤー_1-2" data-name="レイヤー 1"><path class="top_cls-1" d="M4.52,58.8,8.59,38.37H0L.64,35.1H22.75l-.64,3.27h-8.6L9.45,58.8Z"/><path class="top_cls-1" d="M27.69,59.2a6.91,6.91,0,0,1-4.82-1.63,5.45,5.45,0,0,1-1.8-4.25,12.93,12.93,0,0,1,1.67-6.18,12.42,12.42,0,0,1,4.2-4.71,10.24,10.24,0,0,1,5.63-1.61,7,7,0,0,1,4.93,1.63,5.48,5.48,0,0,1,1.78,4.24,12.92,12.92,0,0,1-1.66,6.18,12.52,12.52,0,0,1-4.15,4.7A10.34,10.34,0,0,1,27.69,59.2Zm1-3.08A4,4,0,0,0,31.52,55a8.54,8.54,0,0,0,2-3.22,11.91,11.91,0,0,0,.78-4.23,4.44,4.44,0,0,0-.7-2.72,2.37,2.37,0,0,0-2-.92A3.93,3.93,0,0,0,28.86,45a8.38,8.38,0,0,0-2,3.21,11.86,11.86,0,0,0-.8,4.28,4.33,4.33,0,0,0,.71,2.68A2.28,2.28,0,0,0,28.7,56.12Z"/><path class="top_cls-1" d="M40,65.12l4.76-23.9H49.5l-1.45,7.3A20.82,20.82,0,0,1,52,43.16a6.81,6.81,0,0,1,4.66-2.34,3.22,3.22,0,0,1,2.71,1.37,4.94,4.94,0,0,1,1,3,14.18,14.18,0,0,1-2,6.83,15.18,15.18,0,0,1-4.62,5.42,9.22,9.22,0,0,1-5.21,1.79A9.58,9.58,0,0,1,46,58.8l-1.26,6.32Zm7.2-12.39-.58,2.91a4.7,4.7,0,0,0,2.23.6A4.41,4.41,0,0,0,51.73,55a10.89,10.89,0,0,0,2.61-4.1,13,13,0,0,0,1.18-4.61,1.85,1.85,0,0,0-.23-.92.78.78,0,0,0-.73-.4c-.83,0-2,.91-3.55,2.71A46.61,46.61,0,0,0,47.21,52.73Z"/><polygon class="top_cls-1" points="19.16 19.81 17.87 19.05 29.13 0 40.39 19.05 39.1 19.81 29.13 2.94 19.16 19.81"/></g></g></svg>