<svg xmlns="http://www.w3.org/2000/svg" viewBox="0 0 34.55 29.16"><defs><style>.twitter_white_cls-1{fill:#fff;}</style></defs><title>twitter_white</title><g id="レイヤー_2" data-name="レイヤー 2"><g id="レイヤー_1-2" data-name="レイヤー 1"><path class="twitter_white_cls-1" d="M10.85,29.16C23.89,29.16,31,17.94,31,8.22c0-.31,0-.63,0-.94a15,15,0,0,0,3.54-3.82,14.08,14.08,0,0,1-4.08,1.16A7.36,7.36,0,0,0,33.59.55a14,14,0,0,1-4.5,1.77A7,7,0,0,0,23.92,0a7.24,7.24,0,0,0-7.1,7.36A8.47,8.47,0,0,0,17,9,19.88,19.88,0,0,1,2.39,1.35a7.54,7.54,0,0,0-1,3.7,7.46,7.46,0,0,0,3.15,6.13,6.92,6.92,0,0,1-3.21-.92v.1a7.32,7.32,0,0,0,5.68,7.22,6.69,6.69,0,0,1-1.86.26,7.23,7.23,0,0,1-1.33-.13,7.15,7.15,0,0,0,6.62,5.11A13.88,13.88,0,0,1,1.69,26,13.46,13.46,0,0,1,0,25.87a19.6,19.6,0,0,0,10.85,3.29"/></g></g></svg>