<svg xmlns="http://www.w3.org/2000/svg" viewBox="0 0 29.48 24.88"><defs><style>.cls-1{fill:#fff;}</style></defs><title>twitter_white</title><g id="レイヤー_2" data-name="レイヤー 2"><g id="レイヤー_1-2" data-name="レイヤー 1"><path class="cls-1" d="M9.26,24.88c11.12,0,17.21-9.57,17.21-17.86,0-.27,0-.54,0-.81a12.7,12.7,0,0,0,3-3.26,12,12,0,0,1-3.48,1A6.28,6.28,0,0,0,28.66.47,11.67,11.67,0,0,1,24.82,2a6,6,0,0,0-4.41-2,6.17,6.17,0,0,0-6.05,6.28,7.46,7.46,0,0,0,.15,1.43A16.94,16.94,0,0,1,2,1.15a6.46,6.46,0,0,0-.81,3.16A6.36,6.36,0,0,0,3.92,9.54a6.05,6.05,0,0,1-2.74-.78v.08A6.24,6.24,0,0,0,6,15a5.6,5.6,0,0,1-1.59.22,6.12,6.12,0,0,1-1.14-.11A6.09,6.09,0,0,0,9,19.47a11.83,11.83,0,0,1-7.51,2.69A11.48,11.48,0,0,1,0,22.08a16.78,16.78,0,0,0,9.26,2.8"/></g></g></svg>