<svg xmlns="http://www.w3.org/2000/svg" viewBox="0 0 46.99 46.99"><defs><style>.twitter_cls-1{fill:#1da1f2;}.twitter_cls-2{fill:#fff;}</style></defs><title>Twitter</title><g id="レイヤー_2" data-name="レイヤー 2"><g id="レイヤー_1-2" data-name="レイヤー 1"><path class="twitter_cls-1" d="M44.4,0H2.58A2.59,2.59,0,0,0,0,2.59V44.42A2.59,2.59,0,0,0,2.59,47H44.4A2.59,2.59,0,0,0,47,44.4V2.58A2.59,2.59,0,0,0,44.4,0Z"/><path class="twitter_cls-2" d="M18.62,36.44c11.12,0,17.21-9.57,17.21-17.86,0-.27,0-.54,0-.81a12.7,12.7,0,0,0,3-3.26,12,12,0,0,1-3.48,1A6.27,6.27,0,0,0,38,12a11.48,11.48,0,0,1-3.84,1.52,6,6,0,0,0-4.41-2,6.17,6.17,0,0,0-6.05,6.28,6.74,6.74,0,0,0,.15,1.43A16.94,16.94,0,0,1,11.4,12.71a6.46,6.46,0,0,0-.81,3.16,6.36,6.36,0,0,0,2.69,5.23,5.94,5.94,0,0,1-2.74-.79v.09a6.24,6.24,0,0,0,4.85,6.16,5.6,5.6,0,0,1-1.59.22,6.12,6.12,0,0,1-1.14-.11A6.09,6.09,0,0,0,18.31,31a11.83,11.83,0,0,1-7.51,2.69,11.48,11.48,0,0,1-1.44-.08,16.78,16.78,0,0,0,9.26,2.8"/></g></g></svg>